<svg width="32" height="32" viewBox="0 0 32 32" fill="none" xmlns="http://www.w3.org/2000/svg">
<circle cx="16" cy="15.9941" r="16" fill="#4DF284"/>
<path d="M18.3783 8.11914C18.7765 8.11914 19.1579 8.27664 19.4391 8.55789L22.3112 11.43C22.5925 11.7113 22.75 12.0926 22.75 12.4909V23.1188C22.75 23.3178 22.6709 23.5086 22.5302 23.6494C22.3895 23.7901 22.1986 23.8691 21.9996 23.8691H10.0004C9.80136 23.8691 9.6105 23.7901 9.46978 23.6494C9.32906 23.5086 9.25 23.3178 9.25 23.1188V8.86952C9.25 8.45439 9.58525 8.11914 10.0004 8.11914H18.3783ZM16.3757 17.4938H13.0008C12.9514 17.4936 12.9024 17.5032 12.8568 17.5221C12.8111 17.5409 12.7696 17.5686 12.7347 17.6035C12.6998 17.6384 12.6721 17.6799 12.6533 17.7255C12.6345 17.7712 12.6249 17.8201 12.625 17.8695V18.6188C12.625 18.8258 12.7938 18.9945 12.9996 18.9945H16.3746C16.5816 18.9945 16.7504 18.8258 16.7504 18.6188V17.8695C16.7505 17.8201 16.7409 17.7712 16.7221 17.7255C16.7032 17.6799 16.6756 17.6384 16.6407 17.6035C16.6057 17.5686 16.5642 17.5409 16.5186 17.5221C16.4729 17.5032 16.424 17.4936 16.3746 17.4938H16.3757ZM18.9993 13.7441H12.9996C12.9003 13.7441 12.805 13.7836 12.7347 13.8539C12.6645 13.9241 12.625 14.0194 12.625 14.1188V14.8691C12.625 15.0761 12.7938 15.2438 12.9996 15.2438H19.0004C19.2074 15.2438 19.375 15.0761 19.375 14.8691V14.1188C19.375 14.0194 19.3355 13.9241 19.2653 13.8539C19.195 13.7836 19.0997 13.7441 19.0004 13.7441H18.9993Z" fill="#191919"/>
</svg>
