<svg width="32" height="32" viewBox="0 0 32 32" fill="none" xmlns="http://www.w3.org/2000/svg">
<circle cx="16" cy="15.9941" r="16" fill="#4DF284"/>
<path d="M22.7267 12.6243C22.646 18.7309 18.7406 22.9138 12.9114 23.1768C10.5073 23.2865 8.76578 22.51 7.25 21.5471C9.0267 21.8308 11.23 21.1205 12.4082 20.1121C10.6667 19.9423 9.6355 19.056 9.15301 17.6292C9.6562 17.7162 10.1863 17.6934 10.6647 17.592C9.09296 17.066 7.97062 16.0948 7.91264 14.0593C8.35371 14.2601 8.81341 14.4486 9.42428 14.4859C8.2481 13.817 7.37839 11.3715 8.37441 9.75421C10.1201 11.6676 12.2198 13.2289 15.6676 13.4401C14.802 9.73971 19.7055 7.73316 21.7576 10.2201C22.6253 10.0524 23.3314 9.72315 24.0106 9.36491C23.7311 10.2243 23.1927 10.8248 22.5362 11.3052C23.2568 11.2079 23.8946 11.0319 24.4392 10.7627C24.1017 11.4646 23.3625 12.0941 22.7267 12.6243Z" fill="#191919"/>
</svg>
