<svg width="32" height="32" viewBox="0 0 32 32" fill="none" xmlns="http://www.w3.org/2000/svg">
<circle cx="16" cy="15.9941" r="16" fill="#4DF284"/>
<path d="M22.039 10.8062C22.6651 9.64356 21.9496 8.12256 21.9496 8.12256C20.3397 8.12256 19.1765 9.19581 19.1765 9.19581C18.5504 8.83806 16.4928 8.83806 16.4928 8.83806C16.4928 8.83806 14.4352 8.83806 13.8091 9.19581C13.8091 9.19581 12.6464 8.12256 11.036 8.12256C11.036 8.12256 10.3205 9.643 10.9465 10.8062C10.9465 10.8062 9.51553 12.1478 10.0522 15.0104C10.5567 17.7002 12.9147 18.4096 14.4352 18.4096C14.4352 18.4096 13.8091 18.9462 13.8985 19.8406C13.8985 19.8406 13.0042 20.3772 12.1098 20.0194C11.2154 19.6617 10.7682 18.7673 10.7682 18.7673C10.7682 18.7673 9.87384 17.6046 8.97947 18.0518C8.97947 18.0518 8.71116 18.3201 9.69497 18.7673C9.69497 18.7673 10.4105 19.8406 10.6788 20.4666C10.9471 21.0927 12.3781 21.6293 13.8097 21.2716V23.3286C13.8097 23.3286 13.8097 23.5075 13.4519 23.5969C13.0942 23.6864 13.0942 23.8652 13.273 23.8652H19.7137C19.8925 23.8652 19.8925 23.6864 19.5348 23.5969C19.177 23.5075 19.177 23.3286 19.177 23.3286V21.2716C19.177 21.2716 19.1849 20.1989 19.177 19.8406C19.1573 18.9417 18.551 18.4096 18.551 18.4096C20.0714 18.4096 22.4294 17.7002 22.934 15.0104C23.4706 12.1478 22.0396 10.8062 22.0396 10.8062H22.039Z" fill="#191919"/>
</svg>
