<svg width="32" height="32" viewBox="0 0 32 32" fill="none" xmlns="http://www.w3.org/2000/svg">
<circle cx="16" cy="15.9941" r="16" fill="#4DF284"/>
<path d="M20.9045 21.6245L23.3658 10.0236C23.4662 9.53185 23.4075 9.18098 23.191 8.96837C22.9732 8.75577 22.6849 8.71663 22.3288 8.85098L7.86361 14.4258C7.54013 14.5484 7.31969 14.6879 7.2023 14.8445C7.08491 15.001 7.07187 15.1484 7.16056 15.2879C7.25056 15.4275 7.42926 15.5358 7.69665 15.614L11.3958 16.7697L19.9849 11.3619C20.2197 11.2053 20.3971 11.1727 20.5197 11.2614C20.598 11.3175 20.5758 11.401 20.4545 11.5132L13.5062 17.791L13.2375 21.6075C13.4945 21.6075 13.7462 21.4849 13.9914 21.2397L15.7993 19.4984L19.5493 22.261C20.264 22.6627 20.7153 22.4501 20.9058 21.6245H20.9045Z" fill="#191919"/>
</svg>
