<svg width="32" height="32" viewBox="0 0 32 32" fill="none" xmlns="http://www.w3.org/2000/svg">
<circle cx="16" cy="15.9941" r="16" fill="#4DF284"/>
<path d="M11.9152 20.6153L11.5751 20.4624L11.2115 20.7721C11.7562 21.0924 12.2523 21.3351 12.7004 21.4979C12.4204 22.0543 12.101 22.59 11.7448 23.101C9.99793 22.5075 8.52573 21.7315 7.32743 20.7728C6.87093 16.2931 8.52345 12.4988 9.91272 10.4583C11.0586 9.90702 12.2745 9.51511 13.5267 9.29346C13.6925 9.60235 13.8492 9.92799 13.9953 10.2711C14.712 10.1722 15.3131 10.1212 15.7985 10.119L16.0009 10.1205L16.2017 10.1182C16.6887 10.1212 17.2897 10.1715 18.0049 10.2711C18.1517 9.92875 18.3085 9.60159 18.4743 9.29346C19.7571 9.52551 20.9615 9.91429 22.0867 10.459C23.4768 12.4996 25.1285 16.2946 24.6728 20.7721C23.4745 21.7322 22.0023 22.5083 20.2554 23.101C19.8992 22.59 19.5798 22.0543 19.2998 21.4979C19.7487 21.3343 20.244 21.0924 20.7888 20.7721L20.4258 20.4624L20.085 20.6153C18.7239 21.2042 17.362 21.4979 16.0009 21.4979C14.639 21.4979 13.2771 21.2042 11.9152 20.6153ZM13.0869 15.0583C12.2028 15.0583 11.5181 15.8876 11.5181 16.8797C11.5181 17.8718 12.1952 18.7057 13.0869 18.7057C13.9793 18.7057 14.6618 17.8718 14.6618 16.8797C14.6618 15.8868 13.9702 15.0583 13.0869 15.0583ZM18.9126 15.0583C18.0285 15.0583 17.3376 15.8876 17.3376 16.8797C17.3376 17.8718 18.0201 18.7057 18.9126 18.7057C19.805 18.7057 20.4814 17.8718 20.4814 16.8797C20.4814 15.8868 19.7966 15.0583 18.9126 15.0583Z" fill="#191919"/>
</svg>
