<svg width="23" height="14" viewBox="0 0 23 14" fill="none" xmlns="http://www.w3.org/2000/svg">
<rect width="23" height="14" rx="2" fill="#15D47B"/>
<path d="M2.34375 3.63672H4.91519C5.16363 3.63672 5.40898 3.66777 5.65121 3.72989C5.89345 3.78579 6.10774 3.88206 6.29407 4.01871C6.48662 4.14914 6.6419 4.31995 6.75991 4.53113C6.87792 4.74231 6.93693 4.99697 6.93693 5.29511C6.93693 5.66778 6.83134 5.97523 6.62016 6.21747C6.40898 6.45971 6.13258 6.63362 5.79096 6.73921V6.75784C6.20711 6.81375 6.54873 6.97524 6.81581 7.24232C7.08289 7.5094 7.21643 7.86654 7.21643 8.31375C7.21643 8.674 7.14501 8.97835 7.00215 9.2268C6.85929 9.46903 6.66985 9.66469 6.43382 9.81375C6.20401 9.96282 5.93693 10.0715 5.63258 10.1398C5.33444 10.202 5.03009 10.233 4.71953 10.233H2.34375V3.63672ZM3.51767 6.31996H4.56115C4.95245 6.31996 5.25059 6.24232 5.45556 6.08704C5.66053 5.93176 5.76301 5.71126 5.76301 5.42554C5.76301 5.12741 5.65742 4.91623 5.44624 4.792C5.23506 4.66778 4.90587 4.60567 4.45866 4.60567H3.51767V6.31996ZM3.51767 9.24543H4.57046C4.71953 9.24543 4.88102 9.23611 5.05494 9.21748C5.22885 9.19263 5.38724 9.14605 5.53009 9.07773C5.67916 9.0094 5.80028 8.91002 5.89345 8.77959C5.99283 8.64915 6.04252 8.47524 6.04252 8.25785C6.04252 7.91002 5.9245 7.66779 5.68848 7.53114C5.45245 7.39449 5.09531 7.32617 4.61705 7.32617H3.51767V9.24543Z" fill="white"/>
<path d="M11.4692 7.54977C11.4692 7.40692 11.4474 7.27027 11.404 7.13983C11.3667 7.0094 11.3046 6.89449 11.2176 6.79511C11.1307 6.69573 11.0189 6.61809 10.8822 6.56219C10.7518 6.50008 10.5965 6.46902 10.4164 6.46902C10.081 6.46902 9.79527 6.57151 9.55924 6.77648C9.32943 6.97524 9.2021 7.233 9.17726 7.54977H11.4692ZM12.5872 8.05288C12.5872 8.10257 12.5872 8.15226 12.5872 8.20195C12.5872 8.25164 12.5841 8.30133 12.5779 8.35102H9.17726C9.18968 8.51251 9.23005 8.66158 9.29837 8.79822C9.37291 8.92866 9.46918 9.04357 9.58719 9.14294C9.70521 9.23611 9.83875 9.31065 9.98782 9.36655C10.1369 9.42245 10.2922 9.4504 10.4537 9.4504C10.7332 9.4504 10.9692 9.40071 11.1617 9.30133C11.3543 9.19574 11.5127 9.05288 11.6369 8.87276L12.3822 9.46903C11.9412 10.0653 11.3015 10.3634 10.463 10.3634C10.1151 10.3634 9.79527 10.3106 9.50334 10.2051C9.21142 10.0933 8.95676 9.93798 8.73937 9.73922C8.52819 9.54046 8.36048 9.29822 8.23626 9.01251C8.11825 8.72058 8.05924 8.39139 8.05924 8.02493C8.05924 7.66468 8.11825 7.33859 8.23626 7.04667C8.36048 6.74853 8.52819 6.49697 8.73937 6.29201C8.95055 6.08082 9.19899 5.91933 9.48471 5.80753C9.77664 5.68952 10.0903 5.63051 10.4257 5.63051C10.7363 5.63051 11.022 5.68331 11.2829 5.7889C11.5499 5.88828 11.7797 6.04045 11.9723 6.24542C12.1648 6.44418 12.3139 6.69573 12.4195 7.00008C12.5313 7.29822 12.5872 7.64915 12.5872 8.05288Z" fill="white"/>
<path d="M13.0271 6.65536V5.76095H13.8097V4.46591H14.9091V5.76095H16.0271V6.65536H14.9091V8.73301C14.9091 8.93176 14.9433 9.09636 15.0116 9.2268C15.0861 9.35723 15.2476 9.42245 15.4961 9.42245C15.5706 9.42245 15.6514 9.41624 15.7383 9.40382C15.8253 9.38518 15.9029 9.36034 15.9712 9.32928L16.0085 10.2051C15.9091 10.2423 15.7911 10.2703 15.6545 10.2889C15.5178 10.3138 15.3874 10.3262 15.2632 10.3262C14.965 10.3262 14.7228 10.2858 14.5365 10.2051C14.3501 10.1181 14.201 10.0032 14.0892 9.86034C13.9837 9.71127 13.9091 9.54357 13.8656 9.35723C13.8284 9.16468 13.8097 8.95971 13.8097 8.74232V6.65536H13.0271Z" fill="white"/>
<path d="M19.6126 9.66469H19.5847C19.4729 9.86344 19.2928 10.028 19.0443 10.1585C18.7959 10.2827 18.5133 10.3448 18.1965 10.3448C18.0164 10.3448 17.8269 10.32 17.6282 10.2703C17.4356 10.2268 17.2555 10.1523 17.0878 10.0467C16.9263 9.93487 16.7897 9.79202 16.6779 9.6181C16.5723 9.43798 16.5195 9.21748 16.5195 8.95661C16.5195 8.6212 16.6126 8.35412 16.799 8.15536C16.9915 7.95661 17.2369 7.80443 17.535 7.69884C17.8331 7.59325 18.1623 7.52493 18.5226 7.49387C18.889 7.4566 19.2462 7.43797 19.594 7.43797V7.32617C19.594 7.04667 19.4915 6.8417 19.2866 6.71126C19.0878 6.57461 18.8487 6.50629 18.5692 6.50629C18.3331 6.50629 18.1064 6.55598 17.889 6.65536C17.6716 6.75474 17.4915 6.87586 17.3487 7.01872L16.771 6.33859C17.0257 6.10256 17.3176 5.92554 17.6468 5.80753C17.9822 5.68952 18.3207 5.63051 18.6623 5.63051C19.0599 5.63051 19.3859 5.68641 19.6406 5.79822C19.9015 5.91002 20.1064 6.05598 20.2555 6.2361C20.4046 6.41623 20.5071 6.61809 20.563 6.8417C20.6251 7.0653 20.6561 7.2889 20.6561 7.51251V10.233H19.6126V9.66469ZM19.594 8.19263H19.3425C19.1623 8.19263 18.9729 8.20195 18.7741 8.22058C18.5754 8.233 18.3921 8.26717 18.2244 8.32307C18.0567 8.37276 17.917 8.44729 17.8052 8.54667C17.6934 8.63984 17.6375 8.77027 17.6375 8.93798C17.6375 9.04357 17.6592 9.13363 17.7027 9.20816C17.7524 9.27649 17.8145 9.33239 17.889 9.37586C17.9636 9.41934 18.0474 9.4504 18.1406 9.46903C18.2338 9.48767 18.3269 9.49698 18.4201 9.49698C18.8052 9.49698 19.0971 9.3945 19.2959 9.18953C19.4946 8.98456 19.594 8.70506 19.594 8.35102V8.19263Z" fill="white"/>
</svg>
