<svg width="150" height="150" viewBox="0 0 150 150" fill="none" xmlns="http://www.w3.org/2000/svg">
<g clip-path="url(#clip0_116_18027)">
<path d="M59.4712 24.0443L132.956 97.529L32.5739 124.426L59.4712 24.0443Z" fill="url(#paint0_linear_116_18027)"/>
<mask id="mask0_116_18027" style="mask-type:alpha" maskUnits="userSpaceOnUse" x="0" y="7" width="150" height="150">
<path fill-rule="evenodd" clip-rule="evenodd" d="M150 7H0V157H150V7ZM59.4705 24.0442L132.955 97.5289L82.7642 110.978L46.0219 74.2352L59.4705 24.0442Z" fill="#D9D9D9"/>
</mask>
<g mask="url(#mask0_116_18027)">
<path d="M90.5298 24.0443L117.427 124.426L17.0451 97.529L90.5298 24.0443Z" stroke="#191919"/>
</g>
<path d="M104.998 56.0867L95.1327 100.22L77.4788 93.1589L73.8442 91.7051L70.2096 105.412L63.9788 87.759L50.998 82.5668L104.998 56.0867Z" fill="white"/>
<path d="M63.9788 87.759L50.998 82.5668L104.998 56.0867L95.1327 100.22L77.4788 93.1589M63.9788 87.759L70.2096 105.412M63.9788 87.759L97.2096 65.4326L73.8442 91.7051M73.8442 91.7051L70.2096 105.412M73.8442 91.7051L77.4788 93.1589M70.2096 105.412L77.4788 93.1589" stroke="#191919" stroke-width="1.03845" stroke-linejoin="round"/>
<path d="M70.209 105.412L73.8436 91.7051L77.4782 93.1589L70.209 105.412Z" fill="#191919" stroke="#191919" stroke-width="1.03845" stroke-linejoin="round"/>
<path d="M70.2112 105.413L73.8459 91.7053L97.2112 65.4329L63.9805 87.7593L70.2112 105.413Z" fill="url(#paint1_linear_116_18027)" stroke="#191919" stroke-width="1.03845" stroke-linejoin="round"/>
<path fill-rule="evenodd" clip-rule="evenodd" d="M109.561 50.4977C109.774 50.6731 109.805 50.9882 109.63 51.2015L107.525 53.7625C107.349 53.9758 107.034 54.0066 106.821 53.8313C106.608 53.6559 106.577 53.3408 106.752 53.1275L108.857 50.5665C109.032 50.3532 109.348 50.3224 109.561 50.4977ZM104.828 48.8605C105.103 48.8881 105.303 49.1331 105.276 49.4079L105.077 51.39C105.05 51.6648 104.804 51.8652 104.53 51.8377C104.255 51.8101 104.055 51.565 104.082 51.2903L104.281 49.3081C104.308 49.0333 104.554 48.8329 104.828 48.8605ZM111.463 54.4928C111.727 54.4126 112.006 54.5617 112.087 54.8259C112.167 55.0902 112.018 55.3694 111.753 55.4497L109.847 56.0285C109.583 56.1087 109.304 55.9596 109.223 55.6954C109.143 55.4311 109.292 55.1519 109.557 55.0717L111.463 54.4928Z" fill="#191919"/>
<path d="M32 40L33.6205 44.3795L38 46L33.6205 47.6205L32 52L30.3795 47.6205L26 46L30.3795 44.3795L32 40Z" fill="#191919"/>
<path d="M124.5 68.9995L125.715 72.2841L129 73.4995L125.715 74.7149L124.5 77.9995L123.285 74.7149L120 73.4995L123.285 72.2841L124.5 68.9995Z" fill="#191919"/>
</g>
<defs>
<linearGradient id="paint0_linear_116_18027" x1="34.298" y1="123.335" x2="120" y2="43" gradientUnits="userSpaceOnUse">
<stop stop-color="#F2F2F2"/>
<stop offset="1" stop-color="#F2F2F2" stop-opacity="0"/>
</linearGradient>
<linearGradient id="paint1_linear_116_18027" x1="67.0959" y1="96.0668" x2="93.576" y2="69.0668" gradientUnits="userSpaceOnUse">
<stop stop-color="#D0F8DD"/>
<stop offset="1" stop-color="white"/>
</linearGradient>
<clipPath id="clip0_116_18027">
<rect width="150" height="150" fill="white"/>
</clipPath>
</defs>
</svg>
