<svg width="21" height="20" viewBox="0 0 21 20" fill="none" xmlns="http://www.w3.org/2000/svg">
<path d="M17 10C17 6.13401 13.866 3 10 3C6.13401 3 3 6.13401 3 10C3 13.866 6.13401 17 10 17" stroke="#191919" stroke-linecap="round"/>
<path fill-rule="evenodd" clip-rule="evenodd" d="M14.5948 16.6892C14.5948 16.9653 14.8186 17.1892 15.0948 17.1892C15.3709 17.1892 15.5948 16.9653 15.5948 16.6892V14.5944H17.6892C17.9653 14.5944 18.1892 14.3706 18.1892 14.0944C18.1892 13.8183 17.9653 13.5944 17.6892 13.5944H15.5948V11.5C15.5948 11.2239 15.3709 11 15.0948 11C14.8186 11 14.5948 11.2239 14.5948 11.5V13.5944H12.5C12.2239 13.5944 12 13.8183 12 14.0944C12 14.3706 12.2239 14.5944 12.5 14.5944H14.5948V16.6892Z" fill="#191919"/>
<path d="M11.669 8.5C11.5305 8.26423 11.3181 8.07317 11.0319 7.92683C10.7548 7.77236 10.4363 7.69512 10.0762 7.69512C9.90997 7.69512 9.74377 7.71138 9.57756 7.7439C9.41136 7.77642 9.26362 7.82927 9.13435 7.90244C9.00508 7.97561 8.89889 8.06911 8.81579 8.18293C8.74192 8.29675 8.70499 8.43089 8.70499 8.58537C8.70499 8.85366 8.82964 9.06098 9.07895 9.20732C9.32825 9.34553 9.72068 9.46341 10.2562 9.56098C11.0226 9.69919 11.5859 9.90244 11.946 10.1707C12.3153 10.4309 12.5 10.7846 12.5 11.2317C12.5 11.5569 12.4261 11.8333 12.2784 12.061C12.1399 12.2805 11.9552 12.4634 11.7244 12.6098C11.4935 12.748 11.2304 12.8455 10.9349 12.9024C10.6487 12.9675 10.3578 13 10.0623 13C9.57295 13 9.09741 12.9106 8.63573 12.7317C8.17405 12.5528 7.79548 12.2724 7.5 11.8902L8.24792 11.4024C8.41413 11.6545 8.65882 11.8659 8.98199 12.0366C9.30517 12.2073 9.66066 12.2927 10.0485 12.2927C10.2516 12.2927 10.4455 12.2764 10.6302 12.2439C10.8149 12.2114 10.9765 12.1545 11.115 12.0732C11.2535 11.9919 11.3643 11.8902 11.4474 11.7683C11.5305 11.6382 11.572 11.4797 11.572 11.2927C11.572 10.9919 11.4058 10.7683 11.0734 10.622C10.7502 10.4675 10.2793 10.3252 9.66066 10.1951C9.46676 10.1545 9.259 10.1057 9.0374 10.0488C8.82502 9.98374 8.6265 9.89431 8.44183 9.78049C8.25716 9.65854 8.1048 9.50813 7.98476 9.32927C7.86473 9.15041 7.80471 8.92683 7.80471 8.65854C7.80471 8.36585 7.86934 8.11789 7.99861 7.91463C8.12789 7.70325 8.29871 7.53252 8.51108 7.40244C8.73269 7.26423 8.98199 7.1626 9.259 7.09756C9.53601 7.03252 9.82225 7 10.1177 7C10.5702 7 11.0088 7.08943 11.4335 7.26829C11.8583 7.44715 12.1768 7.69919 12.3892 8.02439L11.669 8.5Z" fill="#191919"/>
<path d="M10 6.5V13.5" stroke="#191919" stroke-linecap="round"/>
</svg>
