<svg width="456" height="64" viewBox="0 0 456 64" fill="none" xmlns="http://www.w3.org/2000/svg">
<rect y="8" width="456" height="40" rx="8" fill="#FAFAFA"/>
<path d="M19.9717 28.7412L19.2197 31.3252C19.1149 31.6898 19.0625 31.9473 19.0625 32.0977C19.0625 32.3073 19.1309 32.4668 19.2676 32.5762C19.4043 32.681 19.7142 32.738 20.1973 32.7471L20.1084 33H15.583L15.6582 32.7471C16.041 32.7425 16.3122 32.7061 16.4717 32.6377C16.6312 32.5648 16.7633 32.4486 16.8682 32.2891C16.9456 32.1842 17.0618 31.863 17.2168 31.3252L18.9326 25.4395C19.0511 25.0475 19.1104 24.7673 19.1104 24.5986C19.1104 24.43 19.0352 24.2887 18.8848 24.1748C18.7344 24.0563 18.4609 23.9925 18.0645 23.9834L18.1396 23.7305H21.8105C22.8177 23.7305 23.5423 23.8581 23.9844 24.1133C24.668 24.5143 25.0098 25.1159 25.0098 25.918C25.0098 26.6927 24.668 27.3763 23.9844 27.9688C23.3053 28.5566 22.3893 28.8506 21.2363 28.8506C20.89 28.8506 20.4684 28.8141 19.9717 28.7412ZM20.1084 28.2148C20.4046 28.2513 20.6507 28.2695 20.8467 28.2695C21.4756 28.2695 21.9701 27.9824 22.3301 27.4082C22.6901 26.834 22.8701 26.2347 22.8701 25.6104C22.8701 25.1865 22.7539 24.8584 22.5215 24.626C22.2891 24.389 21.9678 24.2705 21.5576 24.2705C21.471 24.2705 21.3639 24.2751 21.2363 24.2842L20.1084 28.2148ZM29.1592 26.6631C29.5192 26.6631 29.8564 26.7474 30.1709 26.916C30.4899 27.0801 30.7292 27.3102 30.8887 27.6064C31.0527 27.9027 31.1348 28.2308 31.1348 28.5908C31.1348 29.3291 30.9274 30.0674 30.5127 30.8057C30.1025 31.5439 29.5602 32.1273 28.8857 32.5557C28.2113 32.9795 27.5322 33.1914 26.8486 33.1914C26.2288 33.1914 25.748 33.0068 25.4062 32.6377C25.069 32.2686 24.9004 31.8174 24.9004 31.2842C24.9004 30.6507 25.0257 30.0583 25.2764 29.5068C25.5316 28.9508 25.8529 28.4678 26.2402 28.0576C26.6322 27.6429 27.0811 27.3079 27.5869 27.0527C28.0928 26.793 28.6169 26.6631 29.1592 26.6631ZM28.8789 27.0254C28.6374 27.0254 28.4368 27.096 28.2773 27.2373C27.9583 27.5244 27.5983 28.1966 27.1973 29.2539C26.7962 30.3066 26.5957 31.2568 26.5957 32.1045C26.5957 32.3141 26.6595 32.4873 26.7871 32.624C26.9147 32.7607 27.0651 32.8291 27.2383 32.8291C27.416 32.8291 27.5732 32.7744 27.71 32.665C27.9105 32.501 28.1566 32.1341 28.4482 31.5645C28.7399 30.9902 28.9792 30.359 29.166 29.6709C29.3529 28.9782 29.4463 28.3447 29.4463 27.7705C29.4463 27.5335 29.3893 27.3512 29.2754 27.2236C29.1615 27.0915 29.0293 27.0254 28.8789 27.0254ZM34.7031 23.5186C34.9857 23.5186 35.2227 23.6165 35.4141 23.8125C35.61 24.0085 35.708 24.2454 35.708 24.5234C35.708 24.8014 35.61 25.0384 35.4141 25.2344C35.2181 25.4303 34.9811 25.5283 34.7031 25.5283C34.4297 25.5283 34.195 25.4303 33.999 25.2344C33.8031 25.0384 33.7051 24.8014 33.7051 24.5234C33.7051 24.2454 33.8008 24.0085 33.9922 23.8125C34.1882 23.6165 34.4251 23.5186 34.7031 23.5186ZM35.127 26.6631L33.7256 31.5234C33.6481 31.8014 33.6094 31.9837 33.6094 32.0703C33.6094 32.1204 33.6299 32.1683 33.6709 32.2139C33.7119 32.2549 33.7552 32.2754 33.8008 32.2754C33.8783 32.2754 33.9557 32.2412 34.0332 32.1729C34.2383 32.0042 34.4844 31.6989 34.7715 31.2568L35.0039 31.3936C34.3158 32.5921 33.5843 33.1914 32.8096 33.1914C32.5133 33.1914 32.2764 33.1094 32.0986 32.9453C31.9255 32.7767 31.8389 32.5648 31.8389 32.3096C31.8389 32.141 31.8776 31.9268 31.9551 31.667L32.9053 28.3994C32.9964 28.085 33.042 27.848 33.042 27.6885C33.042 27.5882 32.9987 27.4993 32.9121 27.4219C32.8255 27.3444 32.707 27.3057 32.5566 27.3057C32.4883 27.3057 32.4062 27.3079 32.3105 27.3125L32.3994 27.0391L34.7168 26.6631H35.127ZM39.1943 26.6631L38.3467 29.5957C38.9163 28.7389 39.3424 28.1533 39.625 27.8389C40.0397 27.3831 40.3975 27.0732 40.6982 26.9092C40.999 26.7451 41.2816 26.6631 41.5459 26.6631C41.7829 26.6631 41.9857 26.752 42.1543 26.9297C42.3229 27.1029 42.4072 27.3307 42.4072 27.6133C42.4072 27.8685 42.3525 28.1784 42.2432 28.543L41.3682 31.4619C41.2952 31.7171 41.2588 31.8835 41.2588 31.9609C41.2588 32.0065 41.2747 32.0475 41.3066 32.084C41.3431 32.1204 41.3796 32.1387 41.416 32.1387C41.4616 32.1387 41.5094 32.1204 41.5596 32.084C41.7191 31.9518 41.8809 31.765 42.0449 31.5234C42.0859 31.4596 42.152 31.3639 42.2432 31.2363L42.5029 31.3936C41.833 32.5192 41.1289 33.082 40.3906 33.082C40.1081 33.082 39.887 33.0091 39.7275 32.8633C39.568 32.7174 39.4883 32.5352 39.4883 32.3164C39.4883 32.125 39.543 31.8402 39.6523 31.4619L40.5068 28.543C40.5661 28.3516 40.5957 28.2103 40.5957 28.1191C40.5957 28.069 40.5752 28.0257 40.5342 27.9893C40.4932 27.9482 40.4453 27.9277 40.3906 27.9277C40.2174 27.9277 40.0078 28.0462 39.7617 28.2832C39.1328 28.8848 38.5244 29.7803 37.9365 30.9697L37.376 33H35.6328L36.9111 28.6113C37.0342 28.1784 37.0957 27.8708 37.0957 27.6885C37.0957 27.611 37.0775 27.5472 37.041 27.4971C37.0046 27.4424 36.9453 27.4014 36.8633 27.374C36.7812 27.3421 36.6263 27.3262 36.3984 27.3262L36.4736 27.0664L38.7773 26.6631H39.1943ZM47.2607 24.9951L46.7139 26.8545H47.6094L47.3701 27.6406H46.4883L45.3467 31.6055C45.2738 31.8516 45.2373 32.0384 45.2373 32.166C45.2373 32.2253 45.2578 32.2777 45.2988 32.3232C45.3398 32.3643 45.3854 32.3848 45.4355 32.3848C45.513 32.3848 45.5928 32.3529 45.6748 32.2891C45.8844 32.1296 46.1283 31.8516 46.4062 31.4551L46.6455 31.6055C46.3311 32.1523 45.9847 32.5534 45.6064 32.8086C45.2282 33.0638 44.8568 33.1914 44.4922 33.1914C44.1823 33.1914 43.9408 33.1139 43.7676 32.959C43.599 32.7995 43.5146 32.599 43.5146 32.3574C43.5146 32.0931 43.5739 31.7536 43.6924 31.3389L44.7725 27.6406H43.8428L43.9795 27.1348C44.5628 26.9206 45.055 26.6699 45.4561 26.3828C45.8571 26.0957 46.3402 25.6331 46.9053 24.9951H47.2607ZM52.3535 26.6631L52.0527 28.7754H51.7998C51.7633 28.2285 51.5947 27.7979 51.2939 27.4834C50.9977 27.1689 50.6787 27.0117 50.3369 27.0117C50.1273 27.0117 49.9541 27.0732 49.8174 27.1963C49.6807 27.3193 49.6123 27.4674 49.6123 27.6406C49.6123 27.7865 49.6419 27.9232 49.7012 28.0508C49.7604 28.1784 49.8926 28.3516 50.0977 28.5703C50.8177 29.3451 51.2552 29.8783 51.4102 30.1699C51.5651 30.4616 51.6426 30.7738 51.6426 31.1064C51.6426 31.4665 51.5514 31.8083 51.3691 32.1318C51.1868 32.4508 50.9134 32.7083 50.5488 32.9043C50.1888 33.0957 49.8128 33.1914 49.4209 33.1914C49.1566 33.1914 48.8307 33.139 48.4434 33.0342C48.1882 32.9613 47.9967 32.9248 47.8691 32.9248C47.7552 32.9248 47.6663 32.943 47.6025 32.9795C47.5387 33.0114 47.4681 33.082 47.3906 33.1914H47.1377L47.4727 30.915H47.6914C47.8509 31.4665 47.999 31.8607 48.1357 32.0977C48.277 32.3301 48.4639 32.5169 48.6963 32.6582C48.9287 32.7949 49.152 32.8633 49.3662 32.8633C49.6169 32.8633 49.8242 32.7858 49.9883 32.6309C50.1523 32.4714 50.2344 32.2822 50.2344 32.0635C50.2344 31.8493 50.1797 31.6419 50.0703 31.4414C49.9655 31.2409 49.7194 30.9287 49.332 30.5049C48.7988 29.9261 48.4479 29.4795 48.2793 29.165C48.1608 28.9372 48.1016 28.6774 48.1016 28.3857C48.1016 27.8936 48.2793 27.4834 48.6348 27.1553C48.9948 26.8271 49.4984 26.6631 50.1455 26.6631C50.4281 26.6631 50.7744 26.7132 51.1846 26.8135C51.3896 26.8636 51.5537 26.8887 51.6768 26.8887C51.8545 26.8887 51.998 26.8135 52.1074 26.6631H52.3535ZM59.7637 27.6543L58.9639 30.8125C58.5902 32.3027 58.2256 33.3828 57.8701 34.0527C57.5146 34.7227 57.0977 35.2171 56.6191 35.5361C56.1452 35.8597 55.6006 36.0215 54.9854 36.0215C54.598 36.0215 54.3132 35.9463 54.1309 35.7959C53.9486 35.6501 53.8574 35.4769 53.8574 35.2764C53.8574 35.0895 53.9326 34.9277 54.083 34.791C54.2334 34.6543 54.4316 34.5859 54.6777 34.5859C54.8828 34.5859 55.04 34.6383 55.1494 34.7432C55.2588 34.848 55.3135 34.9801 55.3135 35.1396C55.3135 35.2855 55.2793 35.3926 55.2109 35.4609C55.1426 35.5339 55.1084 35.5817 55.1084 35.6045L55.1426 35.6523C55.1699 35.6751 55.2018 35.6865 55.2383 35.6865C55.375 35.6865 55.4912 35.6432 55.5869 35.5566C55.8285 35.3424 56.0085 35.0827 56.127 34.7773C56.209 34.5677 56.3662 34.014 56.5986 33.1162L57.9932 27.6543H57.043L57.2686 26.8545C57.6104 26.859 57.8587 26.8158 58.0137 26.7246C58.1686 26.6335 58.3327 26.4284 58.5059 26.1094C59.0072 25.1842 59.5358 24.5212 60.0918 24.1201C60.6478 23.7191 61.2676 23.5186 61.9512 23.5186C62.3887 23.5186 62.7054 23.6029 62.9014 23.7715C63.1019 23.9401 63.2021 24.1589 63.2021 24.4277C63.2021 24.6647 63.1361 24.8538 63.0039 24.9951C62.8717 25.1318 62.7077 25.2002 62.5117 25.2002C62.3294 25.2002 62.179 25.1432 62.0605 25.0293C61.9421 24.9154 61.8828 24.7786 61.8828 24.6191C61.8828 24.5052 61.9193 24.3844 61.9922 24.2568C62.0697 24.1292 62.1084 24.0426 62.1084 23.9971C62.1084 23.9469 62.0902 23.9059 62.0537 23.874C62.0218 23.8421 61.9785 23.8262 61.9238 23.8262C61.6549 23.8262 61.3792 23.9925 61.0967 24.3252C60.6318 24.8584 60.2581 25.7015 59.9756 26.8545H60.9668L60.7275 27.6543H59.7637ZM65.3623 26.6631C65.7223 26.6631 66.0596 26.7474 66.374 26.916C66.693 27.0801 66.9323 27.3102 67.0918 27.6064C67.2559 27.9027 67.3379 28.2308 67.3379 28.5908C67.3379 29.3291 67.1305 30.0674 66.7158 30.8057C66.3057 31.5439 65.7633 32.1273 65.0889 32.5557C64.4144 32.9795 63.7354 33.1914 63.0518 33.1914C62.432 33.1914 61.9512 33.0068 61.6094 32.6377C61.2721 32.2686 61.1035 31.8174 61.1035 31.2842C61.1035 30.6507 61.2288 30.0583 61.4795 29.5068C61.7347 28.9508 62.056 28.4678 62.4434 28.0576C62.8353 27.6429 63.2842 27.3079 63.79 27.0527C64.2959 26.793 64.82 26.6631 65.3623 26.6631ZM65.082 27.0254C64.8405 27.0254 64.64 27.096 64.4805 27.2373C64.1615 27.5244 63.8014 28.1966 63.4004 29.2539C62.9993 30.3066 62.7988 31.2568 62.7988 32.1045C62.7988 32.3141 62.8626 32.4873 62.9902 32.624C63.1178 32.7607 63.2682 32.8291 63.4414 32.8291C63.6191 32.8291 63.7764 32.7744 63.9131 32.665C64.1136 32.501 64.3597 32.1341 64.6514 31.5645C64.943 30.9902 65.1823 30.359 65.3691 29.6709C65.556 28.9782 65.6494 28.3447 65.6494 27.7705C65.6494 27.5335 65.5924 27.3512 65.4785 27.2236C65.3646 27.0915 65.2324 27.0254 65.082 27.0254ZM71.0771 26.6631L70.0449 30.5049C70.8926 28.6318 71.5306 27.4788 71.959 27.0459C72.2096 26.7907 72.474 26.6631 72.752 26.6631C72.9434 26.6631 73.0983 26.7337 73.2168 26.875C73.3353 27.0117 73.3945 27.2077 73.3945 27.4629C73.3945 27.9049 73.2874 28.2764 73.0732 28.5771C72.9365 28.7686 72.7839 28.8643 72.6152 28.8643C72.4329 28.8643 72.2962 28.7799 72.2051 28.6113C72.1139 28.4427 72.0501 28.3447 72.0137 28.3174C71.9772 28.2855 71.9385 28.2695 71.8975 28.2695C71.8519 28.2695 71.804 28.2832 71.7539 28.3105C71.6536 28.3652 71.5215 28.4997 71.3574 28.7139C71.1979 28.9235 70.9997 29.2767 70.7627 29.7734C70.5257 30.2702 70.3411 30.6917 70.209 31.0381C70.0768 31.3799 69.8923 32.0339 69.6553 33H68.001L69.1289 28.4678C69.2109 28.1305 69.252 27.9072 69.252 27.7979C69.252 27.6748 69.2292 27.5791 69.1836 27.5107C69.1426 27.4424 69.0833 27.3923 69.0059 27.3604C68.9329 27.3285 68.778 27.3125 68.541 27.3125L68.6025 27.1143L70.667 26.6631H71.0771ZM83.4229 26.7588L82.0967 31.3047L81.96 31.8584C81.9463 31.9268 81.9395 31.9769 81.9395 32.0088C81.9395 32.0635 81.9577 32.1113 81.9941 32.1523C82.0352 32.1934 82.0762 32.2139 82.1172 32.2139C82.2129 32.2139 82.3451 32.141 82.5137 31.9951C82.582 31.9359 82.7461 31.7262 83.0059 31.3662L83.2451 31.4893C82.9215 32.0817 82.5752 32.5146 82.2061 32.7881C81.8415 33.057 81.4473 33.1914 81.0234 33.1914C80.7637 33.1914 80.5654 33.1253 80.4287 32.9932C80.292 32.8564 80.2236 32.6855 80.2236 32.4805C80.2236 32.3027 80.2965 31.9723 80.4424 31.4893L80.6064 30.9355C80.0778 31.8424 79.5697 32.485 79.082 32.8633C78.7995 33.082 78.4987 33.1914 78.1797 33.1914C77.7604 33.1914 77.4574 33.0205 77.2705 32.6787C77.0837 32.3324 76.9902 31.9427 76.9902 31.5098C76.9902 30.8672 77.1862 30.1312 77.5781 29.3018C77.9701 28.4678 78.485 27.7979 79.123 27.292C79.6471 26.8727 80.1393 26.6631 80.5996 26.6631C80.8548 26.6631 81.0599 26.7383 81.2148 26.8887C81.3698 27.0345 81.4837 27.3034 81.5566 27.6953L81.8027 26.8545L83.4229 26.7588ZM81.2354 28.0576C81.2354 27.6885 81.1784 27.4219 81.0645 27.2578C80.9824 27.1439 80.8708 27.0869 80.7295 27.0869C80.5882 27.0869 80.4424 27.1553 80.292 27.292C79.9867 27.5745 79.6562 28.1488 79.3008 29.0146C78.9499 29.876 78.7744 30.6211 78.7744 31.25C78.7744 31.4915 78.8132 31.667 78.8906 31.7764C78.9727 31.8812 79.0615 31.9336 79.1572 31.9336C79.3623 31.9336 79.5697 31.8151 79.7793 31.5781C80.0801 31.2409 80.3512 30.8285 80.5928 30.3408C81.0212 29.484 81.2354 28.723 81.2354 28.0576ZM90.9561 26.6631L90.1084 29.5957C90.6781 28.7389 91.1042 28.1533 91.3867 27.8389C91.8014 27.3831 92.1592 27.0732 92.46 26.9092C92.7607 26.7451 93.0433 26.6631 93.3076 26.6631C93.5446 26.6631 93.7474 26.752 93.916 26.9297C94.0846 27.1029 94.1689 27.3307 94.1689 27.6133C94.1689 27.8685 94.1143 28.1784 94.0049 28.543L93.1299 31.4619C93.057 31.7171 93.0205 31.8835 93.0205 31.9609C93.0205 32.0065 93.0365 32.0475 93.0684 32.084C93.1048 32.1204 93.1413 32.1387 93.1777 32.1387C93.2233 32.1387 93.2712 32.1204 93.3213 32.084C93.4808 31.9518 93.6426 31.765 93.8066 31.5234C93.8477 31.4596 93.9137 31.3639 94.0049 31.2363L94.2646 31.3936C93.5947 32.5192 92.8906 33.082 92.1523 33.082C91.8698 33.082 91.6488 33.0091 91.4893 32.8633C91.3298 32.7174 91.25 32.5352 91.25 32.3164C91.25 32.125 91.3047 31.8402 91.4141 31.4619L92.2686 28.543C92.3278 28.3516 92.3574 28.2103 92.3574 28.1191C92.3574 28.069 92.3369 28.0257 92.2959 27.9893C92.2549 27.9482 92.207 27.9277 92.1523 27.9277C91.9792 27.9277 91.7695 28.0462 91.5234 28.2832C90.8945 28.8848 90.2861 29.7803 89.6982 30.9697L89.1377 33H87.3945L88.6729 28.6113C88.7959 28.1784 88.8574 27.8708 88.8574 27.6885C88.8574 27.611 88.8392 27.5472 88.8027 27.4971C88.7663 27.4424 88.707 27.4014 88.625 27.374C88.543 27.3421 88.388 27.3262 88.1602 27.3262L88.2354 27.0664L90.5391 26.6631H90.9561ZM99.6104 26.6631C99.9704 26.6631 100.308 26.7474 100.622 26.916C100.941 27.0801 101.18 27.3102 101.34 27.6064C101.504 27.9027 101.586 28.2308 101.586 28.5908C101.586 29.3291 101.379 30.0674 100.964 30.8057C100.554 31.5439 100.011 32.1273 99.3369 32.5557C98.6624 32.9795 97.9834 33.1914 97.2998 33.1914C96.68 33.1914 96.1992 33.0068 95.8574 32.6377C95.5202 32.2686 95.3516 31.8174 95.3516 31.2842C95.3516 30.6507 95.4769 30.0583 95.7275 29.5068C95.9827 28.9508 96.304 28.4678 96.6914 28.0576C97.0833 27.6429 97.5322 27.3079 98.0381 27.0527C98.5439 26.793 99.068 26.6631 99.6104 26.6631ZM99.3301 27.0254C99.0885 27.0254 98.888 27.096 98.7285 27.2373C98.4095 27.5244 98.0495 28.1966 97.6484 29.2539C97.2474 30.3066 97.0469 31.2568 97.0469 32.1045C97.0469 32.3141 97.1107 32.4873 97.2383 32.624C97.3659 32.7607 97.5163 32.8291 97.6895 32.8291C97.8672 32.8291 98.0244 32.7744 98.1611 32.665C98.3617 32.501 98.6077 32.1341 98.8994 31.5645C99.1911 30.9902 99.4303 30.359 99.6172 29.6709C99.804 28.9782 99.8975 28.3447 99.8975 27.7705C99.8975 27.5335 99.8405 27.3512 99.7266 27.2236C99.6126 27.0915 99.4805 27.0254 99.3301 27.0254ZM109.646 23.5186L107.424 31.168C107.283 31.6465 107.212 31.9359 107.212 32.0361C107.212 32.0863 107.23 32.1296 107.267 32.166C107.303 32.2025 107.342 32.2207 107.383 32.2207C107.46 32.2207 107.549 32.182 107.649 32.1045C107.818 31.9769 108.023 31.7354 108.265 31.3799L108.511 31.5098C107.868 32.6309 107.162 33.1914 106.392 33.1914C106.118 33.1914 105.906 33.1208 105.756 32.9795C105.61 32.8337 105.537 32.6491 105.537 32.4258C105.537 32.2116 105.596 31.9062 105.715 31.5098L105.92 30.8125C105.35 31.8197 104.856 32.4896 104.437 32.8223C104.118 33.0684 103.808 33.1914 103.507 33.1914C103.165 33.1914 102.876 33.0524 102.639 32.7744C102.406 32.4964 102.29 32.0908 102.29 31.5576C102.29 30.8786 102.44 30.2087 102.741 29.5479C103.042 28.887 103.388 28.3356 103.78 27.8936C104.177 27.4515 104.553 27.137 104.908 26.9502C105.268 26.7588 105.621 26.6631 105.968 26.6631C106.146 26.6631 106.303 26.6995 106.439 26.7725C106.581 26.8454 106.74 26.9821 106.918 27.1826L107.424 25.4805C107.547 25.0612 107.608 24.7604 107.608 24.5781C107.608 24.4688 107.567 24.3753 107.485 24.2979C107.403 24.2204 107.294 24.1816 107.157 24.1816C107.093 24.1816 107.014 24.1885 106.918 24.2021L106.986 23.9355L109.235 23.5186H109.646ZM106.638 27.8525C106.638 27.5745 106.583 27.3717 106.474 27.2441C106.364 27.1165 106.237 27.0527 106.091 27.0527C105.945 27.0527 105.788 27.1279 105.619 27.2783C105.296 27.57 104.956 28.1579 104.601 29.042C104.25 29.9215 104.074 30.6621 104.074 31.2637C104.074 31.4824 104.113 31.6442 104.19 31.749C104.268 31.8538 104.354 31.9062 104.45 31.9062C104.61 31.9062 104.769 31.8333 104.929 31.6875C105.316 31.3411 105.697 30.7464 106.07 29.9033C106.449 29.0557 106.638 28.3721 106.638 27.8525ZM111.197 30.4365C111.156 30.7327 111.136 30.9766 111.136 31.168C111.136 31.5098 111.234 31.7832 111.43 31.9883C111.63 32.1934 111.897 32.2959 112.229 32.2959C112.549 32.2959 112.868 32.2184 113.187 32.0635C113.51 31.9085 113.884 31.6374 114.308 31.25L114.513 31.4346C113.989 32.068 113.478 32.5192 112.981 32.7881C112.485 33.057 111.936 33.1914 111.334 33.1914C110.573 33.1914 110.047 33.0091 109.755 32.6445C109.463 32.2799 109.317 31.8584 109.317 31.3799C109.317 30.6325 109.534 29.8851 109.967 29.1377C110.404 28.3903 110.997 27.791 111.744 27.3398C112.496 26.8887 113.25 26.6631 114.007 26.6631C114.39 26.6631 114.679 26.7542 114.875 26.9365C115.071 27.1188 115.169 27.349 115.169 27.627C115.169 27.9596 115.073 28.2832 114.882 28.5977C114.618 29.026 114.285 29.3724 113.884 29.6367C113.483 29.8965 113.034 30.0947 112.537 30.2314C112.204 30.3226 111.758 30.391 111.197 30.4365ZM111.259 30.0811C111.66 30.0218 111.97 29.9421 112.188 29.8418C112.412 29.737 112.628 29.5729 112.838 29.3496C113.052 29.1217 113.237 28.8369 113.392 28.4951C113.547 28.1488 113.624 27.8252 113.624 27.5244C113.624 27.3968 113.588 27.2965 113.515 27.2236C113.446 27.1507 113.357 27.1143 113.248 27.1143C113.029 27.1143 112.783 27.2669 112.51 27.5723C112.008 28.1283 111.591 28.9645 111.259 30.0811ZM119.277 26.8203H126.756V27.709H119.277V26.8203ZM119.277 29.0557H126.756V29.9443H119.277V29.0557ZM132.382 23.7305H136.046C136.862 23.7305 137.445 23.7738 137.796 23.8604C138.256 23.9697 138.612 24.1839 138.862 24.5029C139.118 24.8174 139.245 25.1751 139.245 25.5762C139.245 25.9043 139.145 26.2393 138.944 26.5811C138.744 26.9229 138.443 27.2054 138.042 27.4287C137.646 27.6475 137.035 27.8503 136.21 28.0371C137.067 28.2786 137.661 28.5885 137.994 28.9668C138.327 29.3451 138.493 29.7848 138.493 30.2861C138.493 30.7555 138.329 31.2204 138.001 31.6807C137.673 32.1364 137.238 32.4714 136.695 32.6855C136.153 32.8952 135.16 33 133.715 33H129.859L129.948 32.7471C130.322 32.7471 130.589 32.7129 130.748 32.6445C130.912 32.5762 131.042 32.4714 131.138 32.3301C131.238 32.1842 131.354 31.8835 131.486 31.4277L133.141 25.7266C133.309 25.1478 133.394 24.7604 133.394 24.5645C133.394 24.4049 133.325 24.2728 133.188 24.168C133.056 24.0632 132.765 24.0016 132.313 23.9834L132.382 23.7305ZM134.48 27.8252C135.1 27.8161 135.588 27.7181 135.943 27.5312C136.303 27.3444 136.59 27.0391 136.805 26.6152C137.023 26.1868 137.133 25.7835 137.133 25.4053C137.133 25.0498 137.021 24.7604 136.798 24.5371C136.575 24.3138 136.276 24.2067 135.902 24.2158L135.526 24.2295L134.48 27.8252ZM134.316 28.3379L133.134 32.46C133.362 32.4691 133.533 32.4736 133.646 32.4736C134.663 32.4736 135.369 32.1911 135.766 31.626C136.162 31.0563 136.36 30.4479 136.36 29.8008C136.36 29.4909 136.283 29.2174 136.128 28.9805C135.978 28.7389 135.782 28.5726 135.54 28.4814C135.299 28.3857 134.891 28.3379 134.316 28.3379ZM146.259 26.7588L144.933 31.3047L144.796 31.8584C144.782 31.9268 144.775 31.9769 144.775 32.0088C144.775 32.0635 144.794 32.1113 144.83 32.1523C144.871 32.1934 144.912 32.2139 144.953 32.2139C145.049 32.2139 145.181 32.141 145.35 31.9951C145.418 31.9359 145.582 31.7262 145.842 31.3662L146.081 31.4893C145.757 32.0817 145.411 32.5146 145.042 32.7881C144.677 33.057 144.283 33.1914 143.859 33.1914C143.6 33.1914 143.401 33.1253 143.265 32.9932C143.128 32.8564 143.06 32.6855 143.06 32.4805C143.06 32.3027 143.132 31.9723 143.278 31.4893L143.442 30.9355C142.914 31.8424 142.406 32.485 141.918 32.8633C141.635 33.082 141.335 33.1914 141.016 33.1914C140.596 33.1914 140.293 33.0205 140.106 32.6787C139.92 32.3324 139.826 31.9427 139.826 31.5098C139.826 30.8672 140.022 30.1312 140.414 29.3018C140.806 28.4678 141.321 27.7979 141.959 27.292C142.483 26.8727 142.975 26.6631 143.436 26.6631C143.691 26.6631 143.896 26.7383 144.051 26.8887C144.206 27.0345 144.32 27.3034 144.393 27.6953L144.639 26.8545L146.259 26.7588ZM144.071 28.0576C144.071 27.6885 144.014 27.4219 143.9 27.2578C143.818 27.1439 143.707 27.0869 143.565 27.0869C143.424 27.0869 143.278 27.1553 143.128 27.292C142.823 27.5745 142.492 28.1488 142.137 29.0146C141.786 29.876 141.61 30.6211 141.61 31.25C141.61 31.4915 141.649 31.667 141.727 31.7764C141.809 31.8812 141.897 31.9336 141.993 31.9336C142.198 31.9336 142.406 31.8151 142.615 31.5781C142.916 31.2409 143.187 30.8285 143.429 30.3408C143.857 29.484 144.071 28.723 144.071 28.0576ZM150.292 26.6631L149.444 29.5957C150.014 28.7389 150.44 28.1533 150.723 27.8389C151.137 27.3831 151.495 27.0732 151.796 26.9092C152.097 26.7451 152.379 26.6631 152.644 26.6631C152.881 26.6631 153.083 26.752 153.252 26.9297C153.421 27.1029 153.505 27.3307 153.505 27.6133C153.505 27.8685 153.45 28.1784 153.341 28.543L152.466 31.4619C152.393 31.7171 152.356 31.8835 152.356 31.9609C152.356 32.0065 152.372 32.0475 152.404 32.084C152.441 32.1204 152.477 32.1387 152.514 32.1387C152.559 32.1387 152.607 32.1204 152.657 32.084C152.817 31.9518 152.979 31.765 153.143 31.5234C153.184 31.4596 153.25 31.3639 153.341 31.2363L153.601 31.3936C152.931 32.5192 152.227 33.082 151.488 33.082C151.206 33.082 150.985 33.0091 150.825 32.8633C150.666 32.7174 150.586 32.5352 150.586 32.3164C150.586 32.125 150.641 31.8402 150.75 31.4619L151.604 28.543C151.664 28.3516 151.693 28.2103 151.693 28.1191C151.693 28.069 151.673 28.0257 151.632 27.9893C151.591 27.9482 151.543 27.9277 151.488 27.9277C151.315 27.9277 151.105 28.0462 150.859 28.2832C150.23 28.8848 149.622 29.7803 149.034 30.9697L148.474 33H146.73L148.009 28.6113C148.132 28.1784 148.193 27.8708 148.193 27.6885C148.193 27.611 148.175 27.5472 148.139 27.4971C148.102 27.4424 148.043 27.4014 147.961 27.374C147.879 27.3421 147.724 27.3262 147.496 27.3262L147.571 27.0664L149.875 26.6631H150.292ZM161.981 23.5186L159.76 31.168C159.618 31.6465 159.548 31.9359 159.548 32.0361C159.548 32.0863 159.566 32.1296 159.603 32.166C159.639 32.2025 159.678 32.2207 159.719 32.2207C159.796 32.2207 159.885 32.182 159.985 32.1045C160.154 31.9769 160.359 31.7354 160.601 31.3799L160.847 31.5098C160.204 32.6309 159.498 33.1914 158.728 33.1914C158.454 33.1914 158.242 33.1208 158.092 32.9795C157.946 32.8337 157.873 32.6491 157.873 32.4258C157.873 32.2116 157.932 31.9062 158.051 31.5098L158.256 30.8125C157.686 31.8197 157.192 32.4896 156.772 32.8223C156.453 33.0684 156.144 33.1914 155.843 33.1914C155.501 33.1914 155.212 33.0524 154.975 32.7744C154.742 32.4964 154.626 32.0908 154.626 31.5576C154.626 30.8786 154.776 30.2087 155.077 29.5479C155.378 28.887 155.724 28.3356 156.116 27.8936C156.513 27.4515 156.889 27.137 157.244 26.9502C157.604 26.7588 157.957 26.6631 158.304 26.6631C158.481 26.6631 158.639 26.6995 158.775 26.7725C158.917 26.8454 159.076 26.9821 159.254 27.1826L159.76 25.4805C159.883 25.0612 159.944 24.7604 159.944 24.5781C159.944 24.4688 159.903 24.3753 159.821 24.2979C159.739 24.2204 159.63 24.1816 159.493 24.1816C159.429 24.1816 159.35 24.1885 159.254 24.2021L159.322 23.9355L161.571 23.5186H161.981ZM158.974 27.8525C158.974 27.5745 158.919 27.3717 158.81 27.2441C158.7 27.1165 158.573 27.0527 158.427 27.0527C158.281 27.0527 158.124 27.1279 157.955 27.2783C157.632 27.57 157.292 28.1579 156.937 29.042C156.586 29.9215 156.41 30.6621 156.41 31.2637C156.41 31.4824 156.449 31.6442 156.526 31.749C156.604 31.8538 156.69 31.9062 156.786 31.9062C156.946 31.9062 157.105 31.8333 157.265 31.6875C157.652 31.3411 158.033 30.7464 158.406 29.9033C158.785 29.0557 158.974 28.3721 158.974 27.8525ZM167.368 26.6631L167.874 31.4619C168.562 30.7829 169.011 30.2474 169.221 29.8555C169.43 29.459 169.535 29.1286 169.535 28.8643C169.535 28.764 169.512 28.6637 169.467 28.5635C169.421 28.4632 169.33 28.3242 169.193 28.1465C169.057 27.9688 168.979 27.8571 168.961 27.8115C168.929 27.7249 168.913 27.6201 168.913 27.4971C168.913 27.2646 168.993 27.0687 169.152 26.9092C169.312 26.7451 169.512 26.6631 169.754 26.6631C169.995 26.6631 170.187 26.7451 170.328 26.9092C170.529 27.1462 170.629 27.4196 170.629 27.7295C170.629 28.2354 170.387 28.8984 169.904 29.7188C169.421 30.5391 168.318 31.6966 166.596 33.1914H166.322L165.898 28.9941L162.945 33.1914H162.651C162.72 31.9245 162.754 30.7396 162.754 29.6367C162.754 28.9167 162.715 28.3971 162.638 28.0781C162.592 27.8913 162.51 27.75 162.392 27.6543C162.278 27.5586 162.152 27.5107 162.016 27.5107C161.943 27.5107 161.849 27.5199 161.735 27.5381V27.2852L164.087 26.6631C164.215 27.0186 164.301 27.3535 164.347 27.668C164.424 28.151 164.463 28.7139 164.463 29.3564C164.463 29.5843 164.454 29.9307 164.436 30.3955L167.081 26.6631H167.368ZM173.828 23.5186C174.111 23.5186 174.348 23.6165 174.539 23.8125C174.735 24.0085 174.833 24.2454 174.833 24.5234C174.833 24.8014 174.735 25.0384 174.539 25.2344C174.343 25.4303 174.106 25.5283 173.828 25.5283C173.555 25.5283 173.32 25.4303 173.124 25.2344C172.928 25.0384 172.83 24.8014 172.83 24.5234C172.83 24.2454 172.926 24.0085 173.117 23.8125C173.313 23.6165 173.55 23.5186 173.828 23.5186ZM174.252 26.6631L172.851 31.5234C172.773 31.8014 172.734 31.9837 172.734 32.0703C172.734 32.1204 172.755 32.1683 172.796 32.2139C172.837 32.2549 172.88 32.2754 172.926 32.2754C173.003 32.2754 173.081 32.2412 173.158 32.1729C173.363 32.0042 173.609 31.6989 173.896 31.2568L174.129 31.3936C173.441 32.5921 172.709 33.1914 171.935 33.1914C171.638 33.1914 171.401 33.1094 171.224 32.9453C171.05 32.7767 170.964 32.5648 170.964 32.3096C170.964 32.141 171.003 31.9268 171.08 31.667L172.03 28.3994C172.121 28.085 172.167 27.848 172.167 27.6885C172.167 27.5882 172.124 27.4993 172.037 27.4219C171.951 27.3444 171.832 27.3057 171.682 27.3057C171.613 27.3057 171.531 27.3079 171.436 27.3125L171.524 27.0391L173.842 26.6631H174.252ZM182.216 23.5186L179.994 31.168C179.853 31.6465 179.782 31.9359 179.782 32.0361C179.782 32.0863 179.8 32.1296 179.837 32.166C179.873 32.2025 179.912 32.2207 179.953 32.2207C180.031 32.2207 180.119 32.182 180.22 32.1045C180.388 31.9769 180.593 31.7354 180.835 31.3799L181.081 31.5098C180.438 32.6309 179.732 33.1914 178.962 33.1914C178.688 33.1914 178.477 33.1208 178.326 32.9795C178.18 32.8337 178.107 32.6491 178.107 32.4258C178.107 32.2116 178.167 31.9062 178.285 31.5098L178.49 30.8125C177.921 31.8197 177.426 32.4896 177.007 32.8223C176.688 33.0684 176.378 33.1914 176.077 33.1914C175.735 33.1914 175.446 33.0524 175.209 32.7744C174.977 32.4964 174.86 32.0908 174.86 31.5576C174.86 30.8786 175.011 30.2087 175.312 29.5479C175.612 28.887 175.959 28.3356 176.351 27.8936C176.747 27.4515 177.123 27.137 177.479 26.9502C177.839 26.7588 178.192 26.6631 178.538 26.6631C178.716 26.6631 178.873 26.6995 179.01 26.7725C179.151 26.8454 179.311 26.9821 179.488 27.1826L179.994 25.4805C180.117 25.0612 180.179 24.7604 180.179 24.5781C180.179 24.4688 180.138 24.3753 180.056 24.2979C179.974 24.2204 179.864 24.1816 179.728 24.1816C179.664 24.1816 179.584 24.1885 179.488 24.2021L179.557 23.9355L181.806 23.5186H182.216ZM179.208 27.8525C179.208 27.5745 179.153 27.3717 179.044 27.2441C178.935 27.1165 178.807 27.0527 178.661 27.0527C178.515 27.0527 178.358 27.1279 178.189 27.2783C177.866 27.57 177.526 28.1579 177.171 29.042C176.82 29.9215 176.645 30.6621 176.645 31.2637C176.645 31.4824 176.683 31.6442 176.761 31.749C176.838 31.8538 176.925 31.9062 177.021 31.9062C177.18 31.9062 177.34 31.8333 177.499 31.6875C177.886 31.3411 178.267 30.7464 178.641 29.9033C179.019 29.0557 179.208 28.3721 179.208 27.8525ZM185.593 24.9951L185.046 26.8545H185.941L185.702 27.6406H184.82L183.679 31.6055C183.606 31.8516 183.569 32.0384 183.569 32.166C183.569 32.2253 183.59 32.2777 183.631 32.3232C183.672 32.3643 183.717 32.3848 183.768 32.3848C183.845 32.3848 183.925 32.3529 184.007 32.2891C184.216 32.1296 184.46 31.8516 184.738 31.4551L184.978 31.6055C184.663 32.1523 184.317 32.5534 183.938 32.8086C183.56 33.0638 183.189 33.1914 182.824 33.1914C182.514 33.1914 182.273 33.1139 182.1 32.959C181.931 32.7995 181.847 32.599 181.847 32.3574C181.847 32.0931 181.906 31.7536 182.024 31.3389L183.104 27.6406H182.175L182.312 27.1348C182.895 26.9206 183.387 26.6699 183.788 26.3828C184.189 26.0957 184.672 25.6331 185.237 24.9951H185.593ZM190.077 23.5186L188.3 29.6777C188.915 28.7708 189.362 28.1579 189.64 27.8389C190.054 27.3786 190.41 27.0687 190.706 26.9092C191.007 26.7451 191.294 26.6631 191.567 26.6631C191.8 26.6631 191.998 26.752 192.162 26.9297C192.331 27.1029 192.415 27.3353 192.415 27.627C192.415 27.873 192.36 28.1807 192.251 28.5498L191.383 31.4619C191.305 31.7171 191.267 31.888 191.267 31.9746C191.267 32.0156 191.283 32.0544 191.314 32.0908C191.346 32.1227 191.383 32.1387 191.424 32.1387C191.479 32.1387 191.533 32.1159 191.588 32.0703C191.734 31.9564 191.889 31.7741 192.053 31.5234C192.094 31.4596 192.16 31.3639 192.251 31.2363L192.518 31.3867C192.126 32.0339 191.754 32.4782 191.403 32.7197C191.052 32.9613 190.72 33.082 190.405 33.082C190.123 33.082 189.902 33.0091 189.742 32.8633C189.583 32.7174 189.503 32.5352 189.503 32.3164C189.503 32.1159 189.558 31.8311 189.667 31.4619L190.515 28.5498C190.569 28.3493 190.597 28.2035 190.597 28.1123C190.597 28.0622 190.576 28.0189 190.535 27.9824C190.499 27.9414 190.455 27.9209 190.405 27.9209C190.241 27.9209 190.016 28.0576 189.729 28.3311C189.136 28.8916 188.544 29.7712 187.951 30.9697L187.343 33H185.647L187.89 25.2754C187.981 24.9473 188.026 24.7126 188.026 24.5713C188.026 24.4574 187.981 24.3685 187.89 24.3047C187.771 24.2181 187.589 24.1816 187.343 24.1953L187.391 23.9219L189.667 23.5186H190.077ZM204.938 23.5186L204.166 26.6631H203.94C203.89 26.1709 203.801 25.7767 203.674 25.4805C203.482 25.0521 203.227 24.7217 202.908 24.4893C202.594 24.2568 202.252 24.1406 201.883 24.1406C201.527 24.1406 201.215 24.2773 200.946 24.5508C200.682 24.8197 200.55 25.125 200.55 25.4668C200.55 25.804 200.641 26.1367 200.823 26.4648C201.01 26.7884 201.448 27.2783 202.136 27.9346C202.687 28.4587 203.056 28.9098 203.243 29.2881C203.435 29.6663 203.53 30.0765 203.53 30.5186C203.53 31.0153 203.398 31.4733 203.134 31.8926C202.869 32.3118 202.484 32.6377 201.979 32.8701C201.477 33.098 200.908 33.2119 200.27 33.2119C199.878 33.2119 199.383 33.1527 198.786 33.0342C198.194 32.9202 197.799 32.8633 197.604 32.8633C197.449 32.8633 197.31 32.8883 197.187 32.9385C197.063 32.984 196.911 33.0752 196.729 33.2119H196.462L197.289 29.6777H197.549C197.608 30.2975 197.733 30.8262 197.925 31.2637C198.116 31.6966 198.39 32.0361 198.745 32.2822C199.101 32.5238 199.506 32.6445 199.962 32.6445C200.413 32.6445 200.789 32.4964 201.09 32.2002C201.395 31.8994 201.548 31.5485 201.548 31.1475C201.548 30.8057 201.461 30.4775 201.288 30.1631C201.119 29.8486 200.73 29.3906 200.119 28.7891C199.513 28.1875 199.094 27.6497 198.861 27.1758C198.693 26.8249 198.608 26.4512 198.608 26.0547C198.608 25.3665 198.88 24.7718 199.422 24.2705C199.964 23.7692 200.673 23.5186 201.548 23.5186C201.944 23.5186 202.466 23.6074 203.113 23.7852C203.492 23.89 203.758 23.9424 203.913 23.9424C204.045 23.9424 204.164 23.915 204.269 23.8604C204.373 23.8011 204.496 23.6872 204.638 23.5186H204.938ZM209.819 31.3525L210.024 31.5371C209.582 32.0658 209.147 32.4531 208.719 32.6992C208.149 33.0273 207.559 33.1914 206.948 33.1914C206.538 33.1914 206.174 33.1048 205.854 32.9316C205.54 32.7539 205.308 32.5078 205.157 32.1934C205.007 31.8743 204.932 31.5485 204.932 31.2158C204.932 30.4684 205.134 29.7347 205.54 29.0146C205.946 28.29 206.481 27.7181 207.146 27.2988C207.812 26.875 208.466 26.6631 209.108 26.6631C209.623 26.6631 210.011 26.777 210.271 27.0049C210.53 27.2327 210.66 27.5153 210.66 27.8525C210.66 28.1579 210.562 28.4176 210.366 28.6318C210.17 28.846 209.951 28.9531 209.71 28.9531C209.5 28.9531 209.325 28.8848 209.184 28.748C209.047 28.6113 208.979 28.4495 208.979 28.2627C208.979 28.0166 209.102 27.8024 209.348 27.6201C209.516 27.4925 209.601 27.3809 209.601 27.2852C209.601 27.2031 209.566 27.137 209.498 27.0869C209.407 27.014 209.288 26.9775 209.143 26.9775C208.76 26.9775 208.4 27.1325 208.062 27.4424C207.616 27.8525 207.274 28.3721 207.037 29.001C206.8 29.6299 206.682 30.2269 206.682 30.792C206.682 31.2386 206.802 31.5964 207.044 31.8652C207.285 32.1296 207.573 32.2617 207.905 32.2617C208.197 32.2617 208.511 32.1865 208.849 32.0361C209.19 31.8857 209.514 31.6579 209.819 31.3525ZM215.384 26.6631C215.744 26.6631 216.081 26.7474 216.396 26.916C216.715 27.0801 216.954 27.3102 217.113 27.6064C217.277 27.9027 217.359 28.2308 217.359 28.5908C217.359 29.3291 217.152 30.0674 216.737 30.8057C216.327 31.5439 215.785 32.1273 215.11 32.5557C214.436 32.9795 213.757 33.1914 213.073 33.1914C212.453 33.1914 211.973 33.0068 211.631 32.6377C211.294 32.2686 211.125 31.8174 211.125 31.2842C211.125 30.6507 211.25 30.0583 211.501 29.5068C211.756 28.9508 212.077 28.4678 212.465 28.0576C212.857 27.6429 213.306 27.3079 213.812 27.0527C214.317 26.793 214.841 26.6631 215.384 26.6631ZM215.104 27.0254C214.862 27.0254 214.661 27.096 214.502 27.2373C214.183 27.5244 213.823 28.1966 213.422 29.2539C213.021 30.3066 212.82 31.2568 212.82 32.1045C212.82 32.3141 212.884 32.4873 213.012 32.624C213.139 32.7607 213.29 32.8291 213.463 32.8291C213.641 32.8291 213.798 32.7744 213.935 32.665C214.135 32.501 214.381 32.1341 214.673 31.5645C214.965 30.9902 215.204 30.359 215.391 29.6709C215.577 28.9782 215.671 28.3447 215.671 27.7705C215.671 27.5335 215.614 27.3512 215.5 27.2236C215.386 27.0915 215.254 27.0254 215.104 27.0254ZM221.099 26.6631L220.066 30.5049C220.914 28.6318 221.552 27.4788 221.98 27.0459C222.231 26.7907 222.495 26.6631 222.773 26.6631C222.965 26.6631 223.12 26.7337 223.238 26.875C223.357 27.0117 223.416 27.2077 223.416 27.4629C223.416 27.9049 223.309 28.2764 223.095 28.5771C222.958 28.7686 222.805 28.8643 222.637 28.8643C222.454 28.8643 222.318 28.7799 222.227 28.6113C222.135 28.4427 222.072 28.3447 222.035 28.3174C221.999 28.2855 221.96 28.2695 221.919 28.2695C221.873 28.2695 221.826 28.2832 221.775 28.3105C221.675 28.3652 221.543 28.4997 221.379 28.7139C221.219 28.9235 221.021 29.2767 220.784 29.7734C220.547 30.2702 220.363 30.6917 220.23 31.0381C220.098 31.3799 219.914 32.0339 219.677 33H218.022L219.15 28.4678C219.232 28.1305 219.273 27.9072 219.273 27.7979C219.273 27.6748 219.251 27.5791 219.205 27.5107C219.164 27.4424 219.105 27.3923 219.027 27.3604C218.954 27.3285 218.799 27.3125 218.562 27.3125L218.624 27.1143L220.688 26.6631H221.099ZM225.426 30.4365C225.385 30.7327 225.364 30.9766 225.364 31.168C225.364 31.5098 225.462 31.7832 225.658 31.9883C225.859 32.1934 226.125 32.2959 226.458 32.2959C226.777 32.2959 227.096 32.2184 227.415 32.0635C227.739 31.9085 228.112 31.6374 228.536 31.25L228.741 31.4346C228.217 32.068 227.707 32.5192 227.21 32.7881C226.713 33.057 226.164 33.1914 225.562 33.1914C224.801 33.1914 224.275 33.0091 223.983 32.6445C223.692 32.2799 223.546 31.8584 223.546 31.3799C223.546 30.6325 223.762 29.8851 224.195 29.1377C224.633 28.3903 225.225 27.791 225.973 27.3398C226.725 26.8887 227.479 26.6631 228.235 26.6631C228.618 26.6631 228.908 26.7542 229.104 26.9365C229.299 27.1188 229.397 27.349 229.397 27.627C229.397 27.9596 229.302 28.2832 229.11 28.5977C228.846 29.026 228.513 29.3724 228.112 29.6367C227.711 29.8965 227.262 30.0947 226.766 30.2314C226.433 30.3226 225.986 30.391 225.426 30.4365ZM225.487 30.0811C225.888 30.0218 226.198 29.9421 226.417 29.8418C226.64 29.737 226.857 29.5729 227.066 29.3496C227.281 29.1217 227.465 28.8369 227.62 28.4951C227.775 28.1488 227.853 27.8252 227.853 27.5244C227.853 27.3968 227.816 27.2965 227.743 27.2236C227.675 27.1507 227.586 27.1143 227.477 27.1143C227.258 27.1143 227.012 27.2669 226.738 27.5723C226.237 28.1283 225.82 28.9645 225.487 30.0811Z" fill="black"/>
<path d="M238.001 32L246.001 24" stroke="black" stroke-linecap="round" stroke-linejoin="round"/>
<path d="M246 32L238 24" stroke="black" stroke-linecap="round" stroke-linejoin="round"/>
<path d="M262.169 23.5186L261.396 26.6631H261.171C261.121 26.1709 261.032 25.7767 260.904 25.4805C260.713 25.0521 260.458 24.7217 260.139 24.4893C259.824 24.2568 259.482 24.1406 259.113 24.1406C258.758 24.1406 258.446 24.2773 258.177 24.5508C257.912 24.8197 257.78 25.125 257.78 25.4668C257.78 25.804 257.871 26.1367 258.054 26.4648C258.241 26.7884 258.678 27.2783 259.366 27.9346C259.918 28.4587 260.287 28.9098 260.474 29.2881C260.665 29.6663 260.761 30.0765 260.761 30.5186C260.761 31.0153 260.629 31.4733 260.364 31.8926C260.1 32.3118 259.715 32.6377 259.209 32.8701C258.708 33.098 258.138 33.2119 257.5 33.2119C257.108 33.2119 256.614 33.1527 256.017 33.0342C255.424 32.9202 255.03 32.8633 254.834 32.8633C254.679 32.8633 254.54 32.8883 254.417 32.9385C254.294 32.984 254.141 33.0752 253.959 33.2119H253.692L254.52 29.6777H254.779C254.839 30.2975 254.964 30.8262 255.155 31.2637C255.347 31.6966 255.62 32.0361 255.976 32.2822C256.331 32.5238 256.737 32.6445 257.192 32.6445C257.644 32.6445 258.02 32.4964 258.32 32.2002C258.626 31.8994 258.778 31.5485 258.778 31.1475C258.778 30.8057 258.692 30.4775 258.519 30.1631C258.35 29.8486 257.96 29.3906 257.35 28.7891C256.743 28.1875 256.324 27.6497 256.092 27.1758C255.923 26.8249 255.839 26.4512 255.839 26.0547C255.839 25.3665 256.11 24.7718 256.652 24.2705C257.195 23.7692 257.903 23.5186 258.778 23.5186C259.175 23.5186 259.697 23.6074 260.344 23.7852C260.722 23.89 260.989 23.9424 261.144 23.9424C261.276 23.9424 261.394 23.915 261.499 23.8604C261.604 23.8011 261.727 23.6872 261.868 23.5186H262.169ZM265.806 24.9951L265.259 26.8545H266.154L265.915 27.6406H265.033L263.892 31.6055C263.819 31.8516 263.782 32.0384 263.782 32.166C263.782 32.2253 263.803 32.2777 263.844 32.3232C263.885 32.3643 263.93 32.3848 263.98 32.3848C264.058 32.3848 264.138 32.3529 264.22 32.2891C264.429 32.1296 264.673 31.8516 264.951 31.4551L265.19 31.6055C264.876 32.1523 264.53 32.5534 264.151 32.8086C263.773 33.0638 263.402 33.1914 263.037 33.1914C262.727 33.1914 262.486 33.1139 262.312 32.959C262.144 32.7995 262.06 32.599 262.06 32.3574C262.06 32.0931 262.119 31.7536 262.237 31.3389L263.317 27.6406H262.388L262.524 27.1348C263.108 26.9206 263.6 26.6699 264.001 26.3828C264.402 26.0957 264.885 25.6331 265.45 24.9951H265.806ZM272.396 26.7588L271.069 31.3047L270.933 31.8584C270.919 31.9268 270.912 31.9769 270.912 32.0088C270.912 32.0635 270.93 32.1113 270.967 32.1523C271.008 32.1934 271.049 32.2139 271.09 32.2139C271.186 32.2139 271.318 32.141 271.486 31.9951C271.555 31.9359 271.719 31.7262 271.979 31.3662L272.218 31.4893C271.894 32.0817 271.548 32.5146 271.179 32.7881C270.814 33.057 270.42 33.1914 269.996 33.1914C269.736 33.1914 269.538 33.1253 269.401 32.9932C269.265 32.8564 269.196 32.6855 269.196 32.4805C269.196 32.3027 269.269 31.9723 269.415 31.4893L269.579 30.9355C269.05 31.8424 268.542 32.485 268.055 32.8633C267.772 33.082 267.471 33.1914 267.152 33.1914C266.733 33.1914 266.43 33.0205 266.243 32.6787C266.056 32.3324 265.963 31.9427 265.963 31.5098C265.963 30.8672 266.159 30.1312 266.551 29.3018C266.943 28.4678 267.458 27.7979 268.096 27.292C268.62 26.8727 269.112 26.6631 269.572 26.6631C269.827 26.6631 270.033 26.7383 270.188 26.8887C270.342 27.0345 270.456 27.3034 270.529 27.6953L270.775 26.8545L272.396 26.7588ZM270.208 28.0576C270.208 27.6885 270.151 27.4219 270.037 27.2578C269.955 27.1439 269.843 27.0869 269.702 27.0869C269.561 27.0869 269.415 27.1553 269.265 27.292C268.959 27.5745 268.629 28.1488 268.273 29.0146C267.923 29.876 267.747 30.6211 267.747 31.25C267.747 31.4915 267.786 31.667 267.863 31.7764C267.945 31.8812 268.034 31.9336 268.13 31.9336C268.335 31.9336 268.542 31.8151 268.752 31.5781C269.053 31.2409 269.324 30.8285 269.565 30.3408C269.994 29.484 270.208 28.723 270.208 28.0576ZM277.112 23.5186L275.93 27.6406C276.29 27.2487 276.59 26.9889 276.832 26.8613C277.074 26.7292 277.336 26.6631 277.618 26.6631C278.165 26.6631 278.573 26.8613 278.842 27.2578C279.115 27.6497 279.252 28.1032 279.252 28.6182C279.252 29.8486 278.805 30.9469 277.912 31.9131C277.119 32.7653 276.217 33.1914 275.205 33.1914C274.453 33.1914 273.658 32.9704 272.819 32.5283L274.911 25.2754C275.011 24.9336 275.062 24.6989 275.062 24.5713C275.062 24.4619 275.016 24.3753 274.925 24.3115C274.797 24.2204 274.604 24.1816 274.344 24.1953L274.419 23.9219L276.702 23.5186H277.112ZM274.487 32.5967C274.701 32.7334 274.895 32.8018 275.068 32.8018C275.31 32.8018 275.513 32.7539 275.677 32.6582C275.937 32.5033 276.208 32.223 276.49 31.8174C276.777 31.4118 277.017 30.9219 277.208 30.3477C277.399 29.7734 277.495 29.2015 277.495 28.6318C277.495 28.3083 277.422 28.0622 277.276 27.8936C277.131 27.7249 276.962 27.6406 276.771 27.6406C276.451 27.6406 276.174 27.7956 275.937 28.1055C275.777 28.306 275.604 28.7321 275.417 29.3838L274.487 32.5967ZM282.834 23.5186C283.117 23.5186 283.354 23.6165 283.545 23.8125C283.741 24.0085 283.839 24.2454 283.839 24.5234C283.839 24.8014 283.741 25.0384 283.545 25.2344C283.349 25.4303 283.112 25.5283 282.834 25.5283C282.561 25.5283 282.326 25.4303 282.13 25.2344C281.934 25.0384 281.836 24.8014 281.836 24.5234C281.836 24.2454 281.932 24.0085 282.123 23.8125C282.319 23.6165 282.556 23.5186 282.834 23.5186ZM283.258 26.6631L281.856 31.5234C281.779 31.8014 281.74 31.9837 281.74 32.0703C281.74 32.1204 281.761 32.1683 281.802 32.2139C281.843 32.2549 281.886 32.2754 281.932 32.2754C282.009 32.2754 282.087 32.2412 282.164 32.1729C282.369 32.0042 282.615 31.6989 282.902 31.2568L283.135 31.3936C282.447 32.5921 281.715 33.1914 280.94 33.1914C280.644 33.1914 280.407 33.1094 280.229 32.9453C280.056 32.7767 279.97 32.5648 279.97 32.3096C279.97 32.141 280.008 31.9268 280.086 31.667L281.036 28.3994C281.127 28.085 281.173 27.848 281.173 27.6885C281.173 27.5882 281.13 27.4993 281.043 27.4219C280.956 27.3444 280.838 27.3057 280.688 27.3057C280.619 27.3057 280.537 27.3079 280.441 27.3125L280.53 27.0391L282.848 26.6631H283.258ZM288.016 23.5186L285.753 31.2158C285.621 31.6715 285.555 31.9564 285.555 32.0703C285.555 32.1296 285.573 32.1797 285.609 32.2207C285.65 32.2617 285.694 32.2822 285.739 32.2822C285.821 32.2822 285.899 32.2503 285.972 32.1865C286.19 32.0088 286.434 31.708 286.703 31.2842L286.97 31.4072C286.537 32.0999 286.111 32.5944 285.691 32.8906C285.404 33.0911 285.099 33.1914 284.775 33.1914C284.475 33.1914 284.235 33.1117 284.058 32.9521C283.88 32.7881 283.791 32.5921 283.791 32.3643C283.791 32.1956 283.846 31.9245 283.955 31.5508L285.801 25.248C285.901 24.9017 285.951 24.6715 285.951 24.5576C285.951 24.4482 285.903 24.3617 285.808 24.2979C285.68 24.2067 285.486 24.168 285.227 24.1816L285.302 23.9219L287.605 23.5186H288.016ZM290.627 23.5186C290.91 23.5186 291.146 23.6165 291.338 23.8125C291.534 24.0085 291.632 24.2454 291.632 24.5234C291.632 24.8014 291.534 25.0384 291.338 25.2344C291.142 25.4303 290.905 25.5283 290.627 25.5283C290.354 25.5283 290.119 25.4303 289.923 25.2344C289.727 25.0384 289.629 24.8014 289.629 24.5234C289.629 24.2454 289.725 24.0085 289.916 23.8125C290.112 23.6165 290.349 23.5186 290.627 23.5186ZM291.051 26.6631L289.649 31.5234C289.572 31.8014 289.533 31.9837 289.533 32.0703C289.533 32.1204 289.554 32.1683 289.595 32.2139C289.636 32.2549 289.679 32.2754 289.725 32.2754C289.802 32.2754 289.88 32.2412 289.957 32.1729C290.162 32.0042 290.408 31.6989 290.695 31.2568L290.928 31.3936C290.24 32.5921 289.508 33.1914 288.733 33.1914C288.437 33.1914 288.2 33.1094 288.022 32.9453C287.849 32.7767 287.763 32.5648 287.763 32.3096C287.763 32.141 287.801 31.9268 287.879 31.667L288.829 28.3994C288.92 28.085 288.966 27.848 288.966 27.6885C288.966 27.5882 288.923 27.4993 288.836 27.4219C288.749 27.3444 288.631 27.3057 288.48 27.3057C288.412 27.3057 288.33 27.3079 288.234 27.3125L288.323 27.0391L290.641 26.6631H291.051ZM295.392 24.9951L294.845 26.8545H295.74L295.501 27.6406H294.619L293.478 31.6055C293.405 31.8516 293.368 32.0384 293.368 32.166C293.368 32.2253 293.389 32.2777 293.43 32.3232C293.471 32.3643 293.516 32.3848 293.566 32.3848C293.644 32.3848 293.724 32.3529 293.806 32.2891C294.015 32.1296 294.259 31.8516 294.537 31.4551L294.776 31.6055C294.462 32.1523 294.116 32.5534 293.737 32.8086C293.359 33.0638 292.988 33.1914 292.623 33.1914C292.313 33.1914 292.072 33.1139 291.898 32.959C291.73 32.7995 291.646 32.599 291.646 32.3574C291.646 32.0931 291.705 31.7536 291.823 31.3389L292.903 27.6406H291.974L292.11 27.1348C292.694 26.9206 293.186 26.6699 293.587 26.3828C293.988 26.0957 294.471 25.6331 295.036 24.9951H295.392ZM295.631 27.2783L297.736 26.6631C297.905 26.8727 298.023 27.071 298.092 27.2578C298.215 27.5814 298.301 28.028 298.352 28.5977C298.447 29.7188 298.513 30.915 298.55 32.1865C299.037 31.5439 299.596 30.694 300.225 29.6367C300.416 29.3177 300.512 29.0169 300.512 28.7344C300.512 28.5566 300.4 28.388 300.177 28.2285C299.958 28.069 299.821 27.946 299.767 27.8594C299.712 27.7682 299.685 27.652 299.685 27.5107C299.685 27.2829 299.767 27.0846 299.931 26.916C300.099 26.7474 300.302 26.6631 300.539 26.6631C300.79 26.6631 301.006 26.7588 301.188 26.9502C301.375 27.1416 301.469 27.3672 301.469 27.627C301.469 27.9323 301.382 28.2878 301.209 28.6934C301.04 29.0944 300.642 29.7848 300.013 30.7646C299.206 32.0179 298.415 33.1025 297.641 34.0186C297.144 34.6019 296.743 35.0212 296.438 35.2764C296.132 35.5361 295.815 35.7412 295.487 35.8916C295.291 35.9782 295.098 36.0215 294.906 36.0215C294.646 36.0215 294.425 35.9303 294.243 35.748C294.056 35.5658 293.963 35.3493 293.963 35.0986C293.963 34.848 294.047 34.6361 294.216 34.4629C294.38 34.2897 294.574 34.2031 294.797 34.2031C295.075 34.2031 295.33 34.349 295.562 34.6406C295.717 34.8366 295.845 34.9346 295.945 34.9346C296.05 34.9346 296.153 34.9049 296.253 34.8457C296.39 34.7728 296.581 34.6042 296.827 34.3398C296.854 33.7702 296.868 33.3395 296.868 33.0479C296.868 32.6559 296.85 32.1045 296.813 31.3936L296.697 28.7891C296.656 28.3105 296.554 27.9665 296.39 27.7568C296.262 27.6019 296.096 27.5244 295.891 27.5244C295.813 27.5244 295.727 27.5312 295.631 27.5449V27.2783ZM310.205 26.6631L309.904 28.7754H309.651C309.615 28.2285 309.446 27.7979 309.146 27.4834C308.849 27.1689 308.53 27.0117 308.188 27.0117C307.979 27.0117 307.806 27.0732 307.669 27.1963C307.532 27.3193 307.464 27.4674 307.464 27.6406C307.464 27.7865 307.493 27.9232 307.553 28.0508C307.612 28.1784 307.744 28.3516 307.949 28.5703C308.669 29.3451 309.107 29.8783 309.262 30.1699C309.417 30.4616 309.494 30.7738 309.494 31.1064C309.494 31.4665 309.403 31.8083 309.221 32.1318C309.038 32.4508 308.765 32.7083 308.4 32.9043C308.04 33.0957 307.664 33.1914 307.272 33.1914C307.008 33.1914 306.682 33.139 306.295 33.0342C306.04 32.9613 305.848 32.9248 305.721 32.9248C305.607 32.9248 305.518 32.943 305.454 32.9795C305.39 33.0114 305.32 33.082 305.242 33.1914H304.989L305.324 30.915H305.543C305.702 31.4665 305.851 31.8607 305.987 32.0977C306.129 32.3301 306.315 32.5169 306.548 32.6582C306.78 32.7949 307.004 32.8633 307.218 32.8633C307.468 32.8633 307.676 32.7858 307.84 32.6309C308.004 32.4714 308.086 32.2822 308.086 32.0635C308.086 31.8493 308.031 31.6419 307.922 31.4414C307.817 31.2409 307.571 30.9287 307.184 30.5049C306.65 29.9261 306.299 29.4795 306.131 29.165C306.012 28.9372 305.953 28.6774 305.953 28.3857C305.953 27.8936 306.131 27.4834 306.486 27.1553C306.846 26.8271 307.35 26.6631 307.997 26.6631C308.28 26.6631 308.626 26.7132 309.036 26.8135C309.241 26.8636 309.405 26.8887 309.528 26.8887C309.706 26.8887 309.85 26.8135 309.959 26.6631H310.205ZM315.708 31.3525L315.913 31.5371C315.471 32.0658 315.036 32.4531 314.607 32.6992C314.038 33.0273 313.448 33.1914 312.837 33.1914C312.427 33.1914 312.062 33.1048 311.743 32.9316C311.429 32.7539 311.196 32.5078 311.046 32.1934C310.896 31.8743 310.82 31.5485 310.82 31.2158C310.82 30.4684 311.023 29.7347 311.429 29.0146C311.834 28.29 312.37 27.7181 313.035 27.2988C313.701 26.875 314.354 26.6631 314.997 26.6631C315.512 26.6631 315.899 26.777 316.159 27.0049C316.419 27.2327 316.549 27.5153 316.549 27.8525C316.549 28.1579 316.451 28.4176 316.255 28.6318C316.059 28.846 315.84 28.9531 315.599 28.9531C315.389 28.9531 315.214 28.8848 315.072 28.748C314.936 28.6113 314.867 28.4495 314.867 28.2627C314.867 28.0166 314.99 27.8024 315.236 27.6201C315.405 27.4925 315.489 27.3809 315.489 27.2852C315.489 27.2031 315.455 27.137 315.387 27.0869C315.296 27.014 315.177 26.9775 315.031 26.9775C314.648 26.9775 314.288 27.1325 313.951 27.4424C313.505 27.8525 313.163 28.3721 312.926 29.001C312.689 29.6299 312.57 30.2269 312.57 30.792C312.57 31.2386 312.691 31.5964 312.933 31.8652C313.174 32.1296 313.461 32.2617 313.794 32.2617C314.086 32.2617 314.4 32.1865 314.737 32.0361C315.079 31.8857 315.403 31.6579 315.708 31.3525ZM321.272 26.6631C321.632 26.6631 321.97 26.7474 322.284 26.916C322.603 27.0801 322.842 27.3102 323.002 27.6064C323.166 27.9027 323.248 28.2308 323.248 28.5908C323.248 29.3291 323.041 30.0674 322.626 30.8057C322.216 31.5439 321.674 32.1273 320.999 32.5557C320.325 32.9795 319.646 33.1914 318.962 33.1914C318.342 33.1914 317.861 33.0068 317.52 32.6377C317.182 32.2686 317.014 31.8174 317.014 31.2842C317.014 30.6507 317.139 30.0583 317.39 29.5068C317.645 28.9508 317.966 28.4678 318.354 28.0576C318.745 27.6429 319.194 27.3079 319.7 27.0527C320.206 26.793 320.73 26.6631 321.272 26.6631ZM320.992 27.0254C320.751 27.0254 320.55 27.096 320.391 27.2373C320.072 27.5244 319.712 28.1966 319.311 29.2539C318.91 30.3066 318.709 31.2568 318.709 32.1045C318.709 32.3141 318.773 32.4873 318.9 32.624C319.028 32.7607 319.178 32.8291 319.352 32.8291C319.529 32.8291 319.687 32.7744 319.823 32.665C320.024 32.501 320.27 32.1341 320.562 31.5645C320.853 30.9902 321.092 30.359 321.279 29.6709C321.466 28.9782 321.56 28.3447 321.56 27.7705C321.56 27.5335 321.503 27.3512 321.389 27.2236C321.275 27.0915 321.143 27.0254 320.992 27.0254ZM326.987 26.6631L325.955 30.5049C326.803 28.6318 327.441 27.4788 327.869 27.0459C328.12 26.7907 328.384 26.6631 328.662 26.6631C328.854 26.6631 329.008 26.7337 329.127 26.875C329.245 27.0117 329.305 27.2077 329.305 27.4629C329.305 27.9049 329.198 28.2764 328.983 28.5771C328.847 28.7686 328.694 28.8643 328.525 28.8643C328.343 28.8643 328.206 28.7799 328.115 28.6113C328.024 28.4427 327.96 28.3447 327.924 28.3174C327.887 28.2855 327.849 28.2695 327.808 28.2695C327.762 28.2695 327.714 28.2832 327.664 28.3105C327.564 28.3652 327.432 28.4997 327.268 28.7139C327.108 28.9235 326.91 29.2767 326.673 29.7734C326.436 30.2702 326.251 30.6917 326.119 31.0381C325.987 31.3799 325.802 32.0339 325.565 33H323.911L325.039 28.4678C325.121 28.1305 325.162 27.9072 325.162 27.7979C325.162 27.6748 325.139 27.5791 325.094 27.5107C325.053 27.4424 324.993 27.3923 324.916 27.3604C324.843 27.3285 324.688 27.3125 324.451 27.3125L324.513 27.1143L326.577 26.6631H326.987ZM331.314 30.4365C331.273 30.7327 331.253 30.9766 331.253 31.168C331.253 31.5098 331.351 31.7832 331.547 31.9883C331.747 32.1934 332.014 32.2959 332.347 32.2959C332.666 32.2959 332.985 32.2184 333.304 32.0635C333.627 31.9085 334.001 31.6374 334.425 31.25L334.63 31.4346C334.106 32.068 333.595 32.5192 333.099 32.7881C332.602 33.057 332.053 33.1914 331.451 33.1914C330.69 33.1914 330.164 33.0091 329.872 32.6445C329.58 32.2799 329.435 31.8584 329.435 31.3799C329.435 30.6325 329.651 29.8851 330.084 29.1377C330.521 28.3903 331.114 27.791 331.861 27.3398C332.613 26.8887 333.368 26.6631 334.124 26.6631C334.507 26.6631 334.796 26.7542 334.992 26.9365C335.188 27.1188 335.286 27.349 335.286 27.627C335.286 27.9596 335.19 28.2832 334.999 28.5977C334.735 29.026 334.402 29.3724 334.001 29.6367C333.6 29.8965 333.151 30.0947 332.654 30.2314C332.322 30.3226 331.875 30.391 331.314 30.4365ZM331.376 30.0811C331.777 30.0218 332.087 29.9421 332.306 29.8418C332.529 29.737 332.745 29.5729 332.955 29.3496C333.169 29.1217 333.354 28.8369 333.509 28.4951C333.664 28.1488 333.741 27.8252 333.741 27.5244C333.741 27.3968 333.705 27.2965 333.632 27.2236C333.563 27.1507 333.475 27.1143 333.365 27.1143C333.146 27.1143 332.9 27.2669 332.627 27.5723C332.126 28.1283 331.709 28.9645 331.376 30.0811Z" fill="black"/>
<path d="M344 32L352 24" stroke="black" stroke-linecap="round" stroke-linejoin="round"/>
<path d="M352 32L344 24" stroke="black" stroke-linecap="round" stroke-linejoin="round"/>
<path d="M362.188 33.2119L362.488 25.46C362.502 25.0088 362.509 24.7718 362.509 24.749C362.509 24.4984 362.447 24.3138 362.324 24.1953C362.206 24.0768 361.985 24.0062 361.661 23.9834L361.743 23.7305H365.64L365.564 23.9834C365.232 23.9834 364.979 24.0837 364.806 24.2842C364.637 24.4847 364.539 24.8994 364.512 25.5283L364.293 30.3613L367.909 26.1641C368.379 25.6217 368.668 25.2458 368.777 25.0361C368.887 24.8265 368.941 24.6442 368.941 24.4893C368.941 24.3753 368.891 24.2751 368.791 24.1885C368.691 24.0973 368.499 24.029 368.217 23.9834L368.312 23.7305H370.869V23.9834C370.65 24.0381 370.473 24.1178 370.336 24.2227C370.135 24.373 369.826 24.6921 369.406 25.1797L362.488 33.2119H362.188ZM374.485 26.7588L373.159 31.3047L373.022 31.8584C373.009 31.9268 373.002 31.9769 373.002 32.0088C373.002 32.0635 373.02 32.1113 373.057 32.1523C373.098 32.1934 373.139 32.2139 373.18 32.2139C373.275 32.2139 373.408 32.141 373.576 31.9951C373.645 31.9359 373.809 31.7262 374.068 31.3662L374.308 31.4893C373.984 32.0817 373.638 32.5146 373.269 32.7881C372.904 33.057 372.51 33.1914 372.086 33.1914C371.826 33.1914 371.628 33.1253 371.491 32.9932C371.354 32.8564 371.286 32.6855 371.286 32.4805C371.286 32.3027 371.359 31.9723 371.505 31.4893L371.669 30.9355C371.14 31.8424 370.632 32.485 370.145 32.8633C369.862 33.082 369.561 33.1914 369.242 33.1914C368.823 33.1914 368.52 33.0205 368.333 32.6787C368.146 32.3324 368.053 31.9427 368.053 31.5098C368.053 30.8672 368.249 30.1312 368.641 29.3018C369.033 28.4678 369.548 27.7979 370.186 27.292C370.71 26.8727 371.202 26.6631 371.662 26.6631C371.917 26.6631 372.122 26.7383 372.277 26.8887C372.432 27.0345 372.546 27.3034 372.619 27.6953L372.865 26.8545L374.485 26.7588ZM372.298 28.0576C372.298 27.6885 372.241 27.4219 372.127 27.2578C372.045 27.1439 371.933 27.0869 371.792 27.0869C371.651 27.0869 371.505 27.1553 371.354 27.292C371.049 27.5745 370.719 28.1488 370.363 29.0146C370.012 29.876 369.837 30.6211 369.837 31.25C369.837 31.4915 369.876 31.667 369.953 31.7764C370.035 31.8812 370.124 31.9336 370.22 31.9336C370.425 31.9336 370.632 31.8151 370.842 31.5781C371.143 31.2409 371.414 30.8285 371.655 30.3408C372.084 29.484 372.298 28.723 372.298 28.0576ZM379.209 23.5186L376.946 31.2158C376.814 31.6715 376.748 31.9564 376.748 32.0703C376.748 32.1296 376.766 32.1797 376.803 32.2207C376.844 32.2617 376.887 32.2822 376.933 32.2822C377.015 32.2822 377.092 32.2503 377.165 32.1865C377.384 32.0088 377.628 31.708 377.896 31.2842L378.163 31.4072C377.73 32.0999 377.304 32.5944 376.885 32.8906C376.598 33.0911 376.292 33.1914 375.969 33.1914C375.668 33.1914 375.429 33.1117 375.251 32.9521C375.073 32.7881 374.984 32.5921 374.984 32.3643C374.984 32.1956 375.039 31.9245 375.148 31.5508L376.994 25.248C377.094 24.9017 377.145 24.6715 377.145 24.5576C377.145 24.4482 377.097 24.3617 377.001 24.2979C376.873 24.2067 376.68 24.168 376.42 24.1816L376.495 23.9219L378.799 23.5186H379.209ZM381.82 23.5186C382.103 23.5186 382.34 23.6165 382.531 23.8125C382.727 24.0085 382.825 24.2454 382.825 24.5234C382.825 24.8014 382.727 25.0384 382.531 25.2344C382.335 25.4303 382.098 25.5283 381.82 25.5283C381.547 25.5283 381.312 25.4303 381.116 25.2344C380.92 25.0384 380.822 24.8014 380.822 24.5234C380.822 24.2454 380.918 24.0085 381.109 23.8125C381.305 23.6165 381.542 23.5186 381.82 23.5186ZM382.244 26.6631L380.843 31.5234C380.765 31.8014 380.727 31.9837 380.727 32.0703C380.727 32.1204 380.747 32.1683 380.788 32.2139C380.829 32.2549 380.872 32.2754 380.918 32.2754C380.995 32.2754 381.073 32.2412 381.15 32.1729C381.355 32.0042 381.602 31.6989 381.889 31.2568L382.121 31.3936C381.433 32.5921 380.701 33.1914 379.927 33.1914C379.631 33.1914 379.394 33.1094 379.216 32.9453C379.043 32.7767 378.956 32.5648 378.956 32.3096C378.956 32.141 378.995 31.9268 379.072 31.667L380.022 28.3994C380.114 28.085 380.159 27.848 380.159 27.6885C380.159 27.5882 380.116 27.4993 380.029 27.4219C379.943 27.3444 379.824 27.3057 379.674 27.3057C379.605 27.3057 379.523 27.3079 379.428 27.3125L379.517 27.0391L381.834 26.6631H382.244ZM390.208 23.5186L387.986 31.168C387.845 31.6465 387.774 31.9359 387.774 32.0361C387.774 32.0863 387.793 32.1296 387.829 32.166C387.866 32.2025 387.904 32.2207 387.945 32.2207C388.023 32.2207 388.112 32.182 388.212 32.1045C388.381 31.9769 388.586 31.7354 388.827 31.3799L389.073 31.5098C388.431 32.6309 387.724 33.1914 386.954 33.1914C386.681 33.1914 386.469 33.1208 386.318 32.9795C386.173 32.8337 386.1 32.6491 386.1 32.4258C386.1 32.2116 386.159 31.9062 386.277 31.5098L386.482 30.8125C385.913 31.8197 385.418 32.4896 384.999 32.8223C384.68 33.0684 384.37 33.1914 384.069 33.1914C383.728 33.1914 383.438 33.0524 383.201 32.7744C382.969 32.4964 382.853 32.0908 382.853 31.5576C382.853 30.8786 383.003 30.2087 383.304 29.5479C383.604 28.887 383.951 28.3356 384.343 27.8936C384.739 27.4515 385.115 27.137 385.471 26.9502C385.831 26.7588 386.184 26.6631 386.53 26.6631C386.708 26.6631 386.865 26.6995 387.002 26.7725C387.143 26.8454 387.303 26.9821 387.48 27.1826L387.986 25.4805C388.109 25.0612 388.171 24.7604 388.171 24.5781C388.171 24.4688 388.13 24.3753 388.048 24.2979C387.966 24.2204 387.856 24.1816 387.72 24.1816C387.656 24.1816 387.576 24.1885 387.48 24.2021L387.549 23.9355L389.798 23.5186H390.208ZM387.2 27.8525C387.2 27.5745 387.146 27.3717 387.036 27.2441C386.927 27.1165 386.799 27.0527 386.653 27.0527C386.507 27.0527 386.35 27.1279 386.182 27.2783C385.858 27.57 385.519 28.1579 385.163 29.042C384.812 29.9215 384.637 30.6621 384.637 31.2637C384.637 31.4824 384.675 31.6442 384.753 31.749C384.83 31.8538 384.917 31.9062 385.013 31.9062C385.172 31.9062 385.332 31.8333 385.491 31.6875C385.879 31.3411 386.259 30.7464 386.633 29.9033C387.011 29.0557 387.2 28.3721 387.2 27.8525ZM392.717 23.5186C392.999 23.5186 393.236 23.6165 393.428 23.8125C393.624 24.0085 393.722 24.2454 393.722 24.5234C393.722 24.8014 393.624 25.0384 393.428 25.2344C393.232 25.4303 392.995 25.5283 392.717 25.5283C392.443 25.5283 392.209 25.4303 392.013 25.2344C391.817 25.0384 391.719 24.8014 391.719 24.5234C391.719 24.2454 391.814 24.0085 392.006 23.8125C392.202 23.6165 392.439 23.5186 392.717 23.5186ZM393.141 26.6631L391.739 31.5234C391.662 31.8014 391.623 31.9837 391.623 32.0703C391.623 32.1204 391.644 32.1683 391.685 32.2139C391.726 32.2549 391.769 32.2754 391.814 32.2754C391.892 32.2754 391.969 32.2412 392.047 32.1729C392.252 32.0042 392.498 31.6989 392.785 31.2568L393.018 31.3936C392.329 32.5921 391.598 33.1914 390.823 33.1914C390.527 33.1914 390.29 33.1094 390.112 32.9453C389.939 32.7767 389.853 32.5648 389.853 32.3096C389.853 32.141 389.891 31.9268 389.969 31.667L390.919 28.3994C391.01 28.085 391.056 27.848 391.056 27.6885C391.056 27.5882 391.012 27.4993 390.926 27.4219C390.839 27.3444 390.721 27.3057 390.57 27.3057C390.502 27.3057 390.42 27.3079 390.324 27.3125L390.413 27.0391L392.73 26.6631H393.141ZM397.481 24.9951L396.935 26.8545H397.83L397.591 27.6406H396.709L395.567 31.6055C395.494 31.8516 395.458 32.0384 395.458 32.166C395.458 32.2253 395.479 32.2777 395.52 32.3232C395.561 32.3643 395.606 32.3848 395.656 32.3848C395.734 32.3848 395.813 32.3529 395.896 32.2891C396.105 32.1296 396.349 31.8516 396.627 31.4551L396.866 31.6055C396.552 32.1523 396.205 32.5534 395.827 32.8086C395.449 33.0638 395.077 33.1914 394.713 33.1914C394.403 33.1914 394.161 33.1139 393.988 32.959C393.82 32.7995 393.735 32.599 393.735 32.3574C393.735 32.0931 393.795 31.7536 393.913 31.3389L394.993 27.6406H394.063L394.2 27.1348C394.784 26.9206 395.276 26.6699 395.677 26.3828C396.078 26.0957 396.561 25.6331 397.126 24.9951H397.481ZM397.721 27.2783L399.826 26.6631C399.995 26.8727 400.113 27.071 400.182 27.2578C400.305 27.5814 400.391 28.028 400.441 28.5977C400.537 29.7188 400.603 30.915 400.64 32.1865C401.127 31.5439 401.686 30.694 402.314 29.6367C402.506 29.3177 402.602 29.0169 402.602 28.7344C402.602 28.5566 402.49 28.388 402.267 28.2285C402.048 28.069 401.911 27.946 401.856 27.8594C401.802 27.7682 401.774 27.652 401.774 27.5107C401.774 27.2829 401.856 27.0846 402.021 26.916C402.189 26.7474 402.392 26.6631 402.629 26.6631C402.88 26.6631 403.096 26.7588 403.278 26.9502C403.465 27.1416 403.559 27.3672 403.559 27.627C403.559 27.9323 403.472 28.2878 403.299 28.6934C403.13 29.0944 402.731 29.7848 402.103 30.7646C401.296 32.0179 400.505 33.1025 399.73 34.0186C399.234 34.6019 398.833 35.0212 398.527 35.2764C398.222 35.5361 397.905 35.7412 397.577 35.8916C397.381 35.9782 397.188 36.0215 396.996 36.0215C396.736 36.0215 396.515 35.9303 396.333 35.748C396.146 35.5658 396.053 35.3493 396.053 35.0986C396.053 34.848 396.137 34.6361 396.306 34.4629C396.47 34.2897 396.663 34.2031 396.887 34.2031C397.165 34.2031 397.42 34.349 397.652 34.6406C397.807 34.8366 397.935 34.9346 398.035 34.9346C398.14 34.9346 398.243 34.9049 398.343 34.8457C398.479 34.7728 398.671 34.6042 398.917 34.3398C398.944 33.7702 398.958 33.3395 398.958 33.0479C398.958 32.6559 398.94 32.1045 398.903 31.3936L398.787 28.7891C398.746 28.3105 398.644 27.9665 398.479 27.7568C398.352 27.6019 398.186 27.5244 397.98 27.5244C397.903 27.5244 397.816 27.5312 397.721 27.5449V27.2783ZM415.255 23.5186L414.482 26.6631H414.257C414.207 26.1709 414.118 25.7767 413.99 25.4805C413.799 25.0521 413.544 24.7217 413.225 24.4893C412.91 24.2568 412.568 24.1406 412.199 24.1406C411.844 24.1406 411.532 24.2773 411.263 24.5508C410.998 24.8197 410.866 25.125 410.866 25.4668C410.866 25.804 410.957 26.1367 411.14 26.4648C411.326 26.7884 411.764 27.2783 412.452 27.9346C413.004 28.4587 413.373 28.9098 413.56 29.2881C413.751 29.6663 413.847 30.0765 413.847 30.5186C413.847 31.0153 413.715 31.4733 413.45 31.8926C413.186 32.3118 412.801 32.6377 412.295 32.8701C411.794 33.098 411.224 33.2119 410.586 33.2119C410.194 33.2119 409.7 33.1527 409.103 33.0342C408.51 32.9202 408.116 32.8633 407.92 32.8633C407.765 32.8633 407.626 32.8883 407.503 32.9385C407.38 32.984 407.227 33.0752 407.045 33.2119H406.778L407.605 29.6777H407.865C407.924 30.2975 408.05 30.8262 408.241 31.2637C408.433 31.6966 408.706 32.0361 409.062 32.2822C409.417 32.5238 409.823 32.6445 410.278 32.6445C410.729 32.6445 411.105 32.4964 411.406 32.2002C411.712 31.8994 411.864 31.5485 411.864 31.1475C411.864 30.8057 411.778 30.4775 411.604 30.1631C411.436 29.8486 411.046 29.3906 410.436 28.7891C409.829 28.1875 409.41 27.6497 409.178 27.1758C409.009 26.8249 408.925 26.4512 408.925 26.0547C408.925 25.3665 409.196 24.7718 409.738 24.2705C410.281 23.7692 410.989 23.5186 411.864 23.5186C412.261 23.5186 412.783 23.6074 413.43 23.7852C413.808 23.89 414.075 23.9424 414.229 23.9424C414.362 23.9424 414.48 23.915 414.585 23.8604C414.69 23.8011 414.813 23.6872 414.954 23.5186H415.255ZM420.136 31.3525L420.341 31.5371C419.899 32.0658 419.464 32.4531 419.035 32.6992C418.465 33.0273 417.875 33.1914 417.265 33.1914C416.854 33.1914 416.49 33.1048 416.171 32.9316C415.856 32.7539 415.624 32.5078 415.474 32.1934C415.323 31.8743 415.248 31.5485 415.248 31.2158C415.248 30.4684 415.451 29.7347 415.856 29.0146C416.262 28.29 416.798 27.7181 417.463 27.2988C418.128 26.875 418.782 26.6631 419.425 26.6631C419.94 26.6631 420.327 26.777 420.587 27.0049C420.847 27.2327 420.977 27.5153 420.977 27.8525C420.977 28.1579 420.879 28.4176 420.683 28.6318C420.487 28.846 420.268 28.9531 420.026 28.9531C419.817 28.9531 419.641 28.8848 419.5 28.748C419.363 28.6113 419.295 28.4495 419.295 28.2627C419.295 28.0166 419.418 27.8024 419.664 27.6201C419.833 27.4925 419.917 27.3809 419.917 27.2852C419.917 27.2031 419.883 27.137 419.814 27.0869C419.723 27.014 419.605 26.9775 419.459 26.9775C419.076 26.9775 418.716 27.1325 418.379 27.4424C417.932 27.8525 417.59 28.3721 417.354 29.001C417.117 29.6299 416.998 30.2269 416.998 30.792C416.998 31.2386 417.119 31.5964 417.36 31.8652C417.602 32.1296 417.889 32.2617 418.222 32.2617C418.513 32.2617 418.828 32.1865 419.165 32.0361C419.507 31.8857 419.83 31.6579 420.136 31.3525ZM425.7 26.6631C426.06 26.6631 426.397 26.7474 426.712 26.916C427.031 27.0801 427.27 27.3102 427.43 27.6064C427.594 27.9027 427.676 28.2308 427.676 28.5908C427.676 29.3291 427.468 30.0674 427.054 30.8057C426.644 31.5439 426.101 32.1273 425.427 32.5557C424.752 32.9795 424.073 33.1914 423.39 33.1914C422.77 33.1914 422.289 33.0068 421.947 32.6377C421.61 32.2686 421.441 31.8174 421.441 31.2842C421.441 30.6507 421.567 30.0583 421.817 29.5068C422.073 28.9508 422.394 28.4678 422.781 28.0576C423.173 27.6429 423.622 27.3079 424.128 27.0527C424.634 26.793 425.158 26.6631 425.7 26.6631ZM425.42 27.0254C425.178 27.0254 424.978 27.096 424.818 27.2373C424.499 27.5244 424.139 28.1966 423.738 29.2539C423.337 30.3066 423.137 31.2568 423.137 32.1045C423.137 32.3141 423.201 32.4873 423.328 32.624C423.456 32.7607 423.606 32.8291 423.779 32.8291C423.957 32.8291 424.114 32.7744 424.251 32.665C424.451 32.501 424.698 32.1341 424.989 31.5645C425.281 30.9902 425.52 30.359 425.707 29.6709C425.894 28.9782 425.987 28.3447 425.987 27.7705C425.987 27.5335 425.93 27.3512 425.816 27.2236C425.702 27.0915 425.57 27.0254 425.42 27.0254ZM431.415 26.6631L430.383 30.5049C431.23 28.6318 431.868 27.4788 432.297 27.0459C432.548 26.7907 432.812 26.6631 433.09 26.6631C433.281 26.6631 433.436 26.7337 433.555 26.875C433.673 27.0117 433.732 27.2077 433.732 27.4629C433.732 27.9049 433.625 28.2764 433.411 28.5771C433.274 28.7686 433.122 28.8643 432.953 28.8643C432.771 28.8643 432.634 28.7799 432.543 28.6113C432.452 28.4427 432.388 28.3447 432.352 28.3174C432.315 28.2855 432.276 28.2695 432.235 28.2695C432.19 28.2695 432.142 28.2832 432.092 28.3105C431.992 28.3652 431.859 28.4997 431.695 28.7139C431.536 28.9235 431.338 29.2767 431.101 29.7734C430.864 30.2702 430.679 30.6917 430.547 31.0381C430.415 31.3799 430.23 32.0339 429.993 33H428.339L429.467 28.4678C429.549 28.1305 429.59 27.9072 429.59 27.7979C429.59 27.6748 429.567 27.5791 429.521 27.5107C429.48 27.4424 429.421 27.3923 429.344 27.3604C429.271 27.3285 429.116 27.3125 428.879 27.3125L428.94 27.1143L431.005 26.6631H431.415ZM435.742 30.4365C435.701 30.7327 435.681 30.9766 435.681 31.168C435.681 31.5098 435.779 31.7832 435.975 31.9883C436.175 32.1934 436.442 32.2959 436.774 32.2959C437.093 32.2959 437.412 32.2184 437.731 32.0635C438.055 31.9085 438.429 31.6374 438.853 31.25L439.058 31.4346C438.534 32.068 438.023 32.5192 437.526 32.7881C437.03 33.057 436.48 33.1914 435.879 33.1914C435.118 33.1914 434.591 33.0091 434.3 32.6445C434.008 32.2799 433.862 31.8584 433.862 31.3799C433.862 30.6325 434.079 29.8851 434.512 29.1377C434.949 28.3903 435.542 27.791 436.289 27.3398C437.041 26.8887 437.795 26.6631 438.552 26.6631C438.935 26.6631 439.224 26.7542 439.42 26.9365C439.616 27.1188 439.714 27.349 439.714 27.627C439.714 27.9596 439.618 28.2832 439.427 28.5977C439.162 29.026 438.83 29.3724 438.429 29.6367C438.028 29.8965 437.579 30.0947 437.082 30.2314C436.749 30.3226 436.303 30.391 435.742 30.4365ZM435.804 30.0811C436.205 30.0218 436.515 29.9421 436.733 29.8418C436.957 29.737 437.173 29.5729 437.383 29.3496C437.597 29.1217 437.782 28.8369 437.937 28.4951C438.091 28.1488 438.169 27.8252 438.169 27.5244C438.169 27.3968 438.132 27.2965 438.06 27.2236C437.991 27.1507 437.902 27.1143 437.793 27.1143C437.574 27.1143 437.328 27.2669 437.055 27.5723C436.553 28.1283 436.136 28.9645 435.804 30.0811Z" fill="black"/>
</svg>
