<svg width="16" height="16" viewBox="0 0 16 16" fill="currentColor" xmlns="http://www.w3.org/2000/svg">
<path d="M8.00008 13.3334C6.51119 13.3334 5.25008 12.8167 4.21675 11.7834C3.18341 10.7501 2.66675 9.48897 2.66675 8.00008C2.66675 6.51119 3.18341 5.25008 4.21675 4.21675C5.25008 3.18341 6.51119 2.66675 8.00008 2.66675C8.76675 2.66675 9.50008 2.82508 10.2001 3.14175C10.9001 3.45841 11.5001 3.91119 12.0001 4.50008V3.33341C12.0001 2.96523 12.2986 2.66675 12.6667 2.66675C13.0349 2.66675 13.3334 2.96522 13.3334 3.33341V6.33342C13.3334 6.8857 12.8857 7.33342 12.3334 7.33342H9.33341C8.96522 7.33342 8.66675 7.03494 8.66675 6.66675C8.66675 6.29856 8.96523 6.00008 9.33342 6.00008H11.4667C11.1112 5.37786 10.6251 4.88897 10.0084 4.53341C9.39175 4.17786 8.7223 4.00008 8.00008 4.00008C6.88897 4.00008 5.94453 4.38897 5.16675 5.16675C4.38897 5.94453 4.00008 6.88897 4.00008 8.00008C4.00008 9.11119 4.38897 10.0556 5.16675 10.8334C5.94453 11.6112 6.88897 12.0001 8.00008 12.0001C8.85564 12.0001 9.62786 11.7556 10.3167 11.2667C10.869 10.8748 11.2892 10.3829 11.5772 9.79099C11.7071 9.52425 11.9656 9.33342 12.2623 9.33342C12.7193 9.33342 13.054 9.76865 12.8685 10.1863C12.5143 10.984 11.9804 11.6608 11.2667 12.2167C10.3112 12.9612 9.2223 13.3334 8.00008 13.3334Z" fill="currentColor"/>
</svg>
