<svg width="72" height="72" viewBox="0 0 72 72" fill="none" xmlns="http://www.w3.org/2000/svg">
<path d="M70.6208 66.9857C71.4669 66.9857 71.9958 66.0698 71.5729 65.337L37.4178 6.14777C36.995 5.41512 35.9378 5.4145 35.5142 6.14665L24.8561 24.5665C24.4321 25.2994 24.9609 26.2163 25.8076 26.2163H33.5447C33.9374 26.2163 34.3002 26.0069 34.4966 25.6669L35.5147 23.9042C35.9379 23.1714 36.9957 23.1716 37.4187 23.9045L56.2074 56.4592C56.6303 57.192 56.1014 58.1079 55.2553 58.1079H36.467H6.13217C5.73931 58.1079 5.37631 58.3176 5.17999 58.6579L1.32662 65.3371C0.903815 66.0699 1.43273 66.9857 2.2788 66.9857H70.6208Z" fill="url(#paint0_linear_217_21175)"/>
<path d="M70.6208 66.9857C71.4669 66.9857 71.9958 66.0698 71.5729 65.337L37.4178 6.14777C36.995 5.41512 35.9378 5.4145 35.5142 6.14665L24.8561 24.5665C24.4321 25.2994 24.9609 26.2163 25.8076 26.2163H33.5447C33.9374 26.2163 34.3002 26.0069 34.4966 25.6669L35.5147 23.9042C35.9379 23.1714 36.9957 23.1716 37.4187 23.9045L56.2074 56.4592C56.6303 57.192 56.1014 58.1079 55.2553 58.1079H36.467H6.13217C5.73931 58.1079 5.37631 58.3176 5.17999 58.6579L1.32662 65.3371C0.903815 66.0699 1.43273 66.9857 2.2788 66.9857H70.6208Z" fill="url(#paint1_linear_217_21175)"/>
<path d="M70.6208 66.9857C71.4669 66.9857 71.9958 66.0698 71.5729 65.337L37.4178 6.14777C36.995 5.41512 35.9378 5.4145 35.5142 6.14665L24.8561 24.5665C24.4321 25.2994 24.9609 26.2163 25.8076 26.2163H33.5447C33.9374 26.2163 34.3002 26.0069 34.4966 25.6669L35.5147 23.9042C35.9379 23.1714 36.9957 23.1716 37.4187 23.9045L56.2074 56.4592C56.6303 57.192 56.1014 58.1079 55.2553 58.1079H36.467H6.13217C5.73931 58.1079 5.37631 58.3176 5.17999 58.6579L1.32662 65.3371C0.903815 66.0699 1.43273 66.9857 2.2788 66.9857H70.6208Z" fill="#6DF299"/>
<path d="M24.6455 46.0204C23.7992 46.0204 23.2703 45.104 23.6937 44.3711L26.8623 38.887C27.0587 38.5471 27.4215 38.3377 27.8141 38.3377H32.0414C32.432 38.3377 32.7932 38.1305 32.9904 37.7933L36.8957 31.1141C37.3242 30.3813 36.7956 29.46 35.9467 29.46H24.2605H22.6927C22.2999 29.46 21.937 29.6695 21.7406 30.0097L8.32715 53.2493C7.90416 53.9822 8.43306 54.8981 9.27922 54.8981H17.619H36.4672H43.9042C44.5113 54.8981 45.0035 54.406 45.0035 53.7988V47.1197C45.0035 46.5125 44.5113 46.0204 43.9042 46.0204H24.6455Z" fill="#2742F2"/>
<path d="M24.6455 46.0204C23.7992 46.0204 23.2703 45.104 23.6937 44.3711L26.8623 38.887C27.0587 38.5471 27.4215 38.3377 27.8141 38.3377H32.0414C32.432 38.3377 32.7932 38.1305 32.9904 37.7933L36.8957 31.1141C37.3242 30.3813 36.7956 29.46 35.9467 29.46H24.2605H22.6927C22.2999 29.46 21.937 29.6695 21.7406 30.0097L8.32715 53.2493C7.90416 53.9822 8.43306 54.8981 9.27922 54.8981H17.619H36.4672H43.9042C44.5113 54.8981 45.0035 54.406 45.0035 53.7988V47.1197C45.0035 46.5125 44.5113 46.0204 43.9042 46.0204H24.6455Z" fill="#fff"/>
<defs>
<linearGradient id="paint0_linear_217_21175" x1="16.1212" y1="-11.9887" x2="68.3134" y2="66.0688" gradientUnits="userSpaceOnUse">
<stop stop-color="#293EFB"/>
<stop offset="1" stop-color="#40E2FF"/>
</linearGradient>
<linearGradient id="paint1_linear_217_21175" x1="0.375487" y1="66.9857" x2="59.257" y2="56.6454" gradientUnits="userSpaceOnUse">
<stop stop-color="#C8FEFF"/>
<stop offset="0.32" stop-color="#77FAFF"/>
<stop offset="1" stop-color="#71FAB2"/>
</linearGradient>
</defs>
</svg>
