<svg width="154" height="105" viewBox="0 0 154 105" fill="none" xmlns="http://www.w3.org/2000/svg">
<g clip-path="url(#clip0_806_4356)">
<g opacity="0.8">
<mask id="mask0_806_4356" style="mask-type:alpha" maskUnits="userSpaceOnUse" x="0" y="0" width="155" height="106">
<path d="M154.834 0.654672C154.769 49.629 154.676 103.083 154.834 105.522L-8.08778e-05 104.867L-7.62939e-05 -6.76803e-06L154.834 0.654672Z" fill="url(#paint0_linear_806_4356)"/>
</mask>
<g mask="url(#mask0_806_4356)">
<path d="M87.6481 92.5807C76.7913 92.5807 67.6631 81.3527 67.6631 71.2866C67.6631 61.2204 72.058 48.0105 83.7065 48.0105C89.4789 48.0105 96.4877 41.2815 103.346 46.2942C110.327 51.397 108.74 65.1259 108.74 70.2038C108.74 80.2699 98.505 92.5807 87.6481 92.5807Z" fill="#4DF284"/>
<g filter="url(#filter0_f_806_4356)">
<path d="M87.7782 91.7184C76.1344 91.7184 67.8013 83.0013 67.8013 75.1863C67.8013 67.3713 72.1944 57.1155 83.8381 57.1155C89.6082 57.1155 96.6141 51.6882 103.469 55.5799C110.448 59.5415 108.861 70.2002 108.861 74.1425C108.861 81.9575 99.4219 91.7184 87.7782 91.7184Z" fill="#4DF284"/>
</g>
<g filter="url(#filter1_f_806_4356)">
<path d="M87.4278 91.7185C74.3774 91.7185 65.0376 80.9549 65.0376 71.305C65.0376 61.6551 69.9614 48.9914 83.0118 48.9914C89.4789 48.9914 97.3312 41.3908 105.015 46.1962C112.836 51.088 111.058 65.0654 111.058 69.9333C111.058 79.5832 100.478 91.7185 87.4278 91.7185Z" fill="#4DF284"/>
</g>
<g filter="url(#filter2_f_806_4356)">
<path d="M85.9134 88.5659C69.8009 85.9493 56.4544 72.1136 56.4544 59.6287C56.4544 47.1437 64.6324 33.6469 80.2838 33.6469C88.0398 33.6469 98.0102 20.0397 107.225 26.2569C116.605 32.5858 115.676 55.3884 115.676 61.6864C115.676 74.1713 104.579 91.5972 85.9134 88.5659Z" fill="#4DF284"/>
</g>
<g filter="url(#filter3_f_806_4356)">
<path d="M81.6942 85.4023C64.8418 85.4023 49.1301 69.3167 49.1301 57.1101C49.1301 44.9035 57.9356 31.7076 74.788 31.7076C83.1392 31.7076 93.2791 27.0491 103.201 33.1277C113.301 39.3155 118.226 64.6258 118.226 70.7834C118.226 82.99 98.5466 85.4023 81.6942 85.4023Z" fill="#4DF284"/>
</g>
<g filter="url(#filter4_f_806_4356)">
<path d="M73.9334 80.5299C56.518 80.5299 41.5252 64.0775 41.5252 51.5926C41.5252 39.1077 50.6249 25.6108 68.0403 25.6108C76.6705 25.6108 89.5564 42.5012 99.8098 48.7184C110.247 55.0473 107.874 72.0752 107.874 78.3732C107.874 90.8581 91.3488 80.5299 73.9334 80.5299Z" fill="#4DF284"/>
</g>
<g filter="url(#filter5_f_806_4356)">
<path d="M87.0332 82.5148C71.7948 82.5148 58.6761 66.0624 58.6761 53.5775C58.6761 41.0926 66.6383 27.5957 81.8768 27.5957C89.4282 27.5957 98.597 24.2747 107.569 30.4919C116.702 36.8208 114.625 53.8487 114.625 60.1467C114.625 72.6316 102.272 82.5148 87.0332 82.5148Z" fill="#4DF284"/>
</g>
</g>
</g>
</g>
<defs>
<filter id="filter0_f_806_4356" x="67.0794" y="53.453" width="42.6585" height="38.9871" filterUnits="userSpaceOnUse" color-interpolation-filters="sRGB">
<feFlood flood-opacity="0" result="BackgroundImageFix"/>
<feBlend mode="normal" in="SourceGraphic" in2="BackgroundImageFix" result="shape"/>
<feGaussianBlur stdDeviation="0.360918" result="effect1_foregroundBlur_806_4356"/>
</filter>
<filter id="filter1_f_806_4356" x="62.5112" y="42.0771" width="51.2467" height="52.1678" filterUnits="userSpaceOnUse" color-interpolation-filters="sRGB">
<feFlood flood-opacity="0" result="BackgroundImageFix"/>
<feBlend mode="normal" in="SourceGraphic" in2="BackgroundImageFix" result="shape"/>
<feGaussianBlur stdDeviation="1.26321" result="effect1_foregroundBlur_806_4356"/>
</filter>
<filter id="filter2_f_806_4356" x="52.8452" y="21.021" width="66.4654" height="71.502" filterUnits="userSpaceOnUse" color-interpolation-filters="sRGB">
<feFlood flood-opacity="0" result="BackgroundImageFix"/>
<feBlend mode="normal" in="SourceGraphic" in2="BackgroundImageFix" result="shape"/>
<feGaussianBlur stdDeviation="1.80459" result="effect1_foregroundBlur_806_4356"/>
</filter>
<filter id="filter3_f_806_4356" x="39.3854" y="20.2567" width="88.5857" height="74.8904" filterUnits="userSpaceOnUse" color-interpolation-filters="sRGB">
<feFlood flood-opacity="0" result="BackgroundImageFix"/>
<feBlend mode="normal" in="SourceGraphic" in2="BackgroundImageFix" result="shape"/>
<feGaussianBlur stdDeviation="4.87239" result="effect1_foregroundBlur_806_4356"/>
</filter>
<filter id="filter4_f_806_4356" x="17.3437" y="1.42937" width="114.944" height="107.294" filterUnits="userSpaceOnUse" color-interpolation-filters="sRGB">
<feFlood flood-opacity="0" result="BackgroundImageFix"/>
<feBlend mode="normal" in="SourceGraphic" in2="BackgroundImageFix" result="shape"/>
<feGaussianBlur stdDeviation="12.0907" result="effect1_foregroundBlur_806_4356"/>
</filter>
<filter id="filter5_f_806_4356" x="47.4876" y="15.5213" width="78.5287" height="78.1821" filterUnits="userSpaceOnUse" color-interpolation-filters="sRGB">
<feFlood flood-opacity="0" result="BackgroundImageFix"/>
<feBlend mode="normal" in="SourceGraphic" in2="BackgroundImageFix" result="shape"/>
<feGaussianBlur stdDeviation="5.59422" result="effect1_foregroundBlur_806_4356"/>
</filter>
<linearGradient id="paint0_linear_806_4356" x1="93.9547" y1="79.5045" x2="83.0569" y2="25.5101" gradientUnits="userSpaceOnUse">
<stop stop-color="#C4C4C4"/>
<stop offset="1" stop-color="#C4C4C4" stop-opacity="0"/>
</linearGradient>
<clipPath id="clip0_806_4356">
<rect width="154" height="105" fill="white"/>
</clipPath>
</defs>
</svg>
