<svg width="61" height="60" viewBox="0 0 61 60" fill="none" xmlns="http://www.w3.org/2000/svg">
<g clip-path="url(#clip0_806_4449)">
<g filter="url(#filter0_i_806_4449)">
<circle cx="30.3352" cy="30.0002" r="30" fill="black" fill-opacity="0.01"/>
</g>
<path d="M33.6286 22.9885C33.6286 26.3456 30.9071 29.0671 27.55 29.0671C24.1928 29.0671 21.4713 26.3456 21.4713 22.9885C21.4713 19.6313 24.1928 16.9098 27.55 16.9098C30.9071 16.9098 33.6286 19.6313 33.6286 22.9885Z" fill="url(#paint0_linear_806_4449)" stroke="white" stroke-width="1.2"/>
<path d="M17.1393 39.4874C17.1393 33.7718 21.7666 29.4801 27.5394 29.4801C33.3122 29.4801 37.9395 33.7718 37.9395 39.4874C37.9395 40.6748 36.9769 41.6374 35.7895 41.6374H19.2893C18.1019 41.6374 17.1393 40.6748 17.1393 39.4874Z" fill="url(#paint1_linear_806_4449)" stroke="white" stroke-width="1.2"/>
<path d="M33.5097 21.8455C34.277 21.1515 35.2944 20.7288 36.4105 20.7288C38.7996 20.7288 40.7364 22.6655 40.7364 25.0546C40.7364 27.4437 38.7996 29.3804 36.4105 29.3804C34.4439 29.4251 32.913 28.1524 32.3523 27.2532" stroke="white" stroke-width="1.2"/>
<path d="M32.5388 30.4489C33.6542 29.7673 34.985 29.3801 36.414 29.3801C40.349 29.3801 43.5389 32.3156 43.5389 36.2506V36.2506C43.5389 37.2343 42.7415 38.0318 41.7577 38.0318H38.1953" stroke="white" stroke-width="1.2"/>
</g>
<defs>
<filter id="filter0_i_806_4449" x="0.335205" y="0.000244141" width="60" height="60" filterUnits="userSpaceOnUse" color-interpolation-filters="sRGB">
<feFlood flood-opacity="0" result="BackgroundImageFix"/>
<feBlend mode="normal" in="SourceGraphic" in2="BackgroundImageFix" result="shape"/>
<feColorMatrix in="SourceAlpha" type="matrix" values="0 0 0 0 0 0 0 0 0 0 0 0 0 0 0 0 0 0 127 0" result="hardAlpha"/>
<feOffset/>
<feGaussianBlur stdDeviation="5.35714"/>
<feComposite in2="hardAlpha" operator="arithmetic" k2="-1" k3="1"/>
<feColorMatrix type="matrix" values="0 0 0 0 1 0 0 0 0 1 0 0 0 0 1 0 0 0 0.3 0"/>
<feBlend mode="normal" in2="shape" result="effect1_innerShadow_806_4449"/>
</filter>
<linearGradient id="paint0_linear_806_4449" x1="27.55" y1="16.3098" x2="27.55" y2="29.6671" gradientUnits="userSpaceOnUse">
<stop offset="0.0830575" stop-color="white" stop-opacity="0.3"/>
<stop offset="0.640613" stop-color="white" stop-opacity="0.14"/>
</linearGradient>
<linearGradient id="paint1_linear_806_4449" x1="27.5394" y1="28.8801" x2="27.5394" y2="42.2374" gradientUnits="userSpaceOnUse">
<stop offset="0.0830575" stop-color="white" stop-opacity="0.3"/>
<stop offset="0.640613" stop-color="white" stop-opacity="0.14"/>
</linearGradient>
<clipPath id="clip0_806_4449">
<rect width="60" height="60" fill="white" transform="translate(0.333252)"/>
</clipPath>
</defs>
</svg>
