<svg width="60" height="60" viewBox="0 0 60 60" fill="none" xmlns="http://www.w3.org/2000/svg">
<g clip-path="url(#clip0_820_557)">
<g filter="url(#filter0_i_820_557)">
<circle cx="30" cy="30" r="30" fill="black" fill-opacity="0.01"/>
</g>
<path d="M19.8987 22.842C19.1204 22.5878 19.1204 21.4868 19.8987 21.2326L29.7418 18.0181C29.9125 17.9623 30.0966 17.9623 30.2673 18.0181L40.1105 21.2326C40.8888 21.4868 40.8888 22.5878 40.1105 22.842L30.2673 26.0565C30.0966 26.1123 29.9125 26.1123 29.7418 26.0565L19.8987 22.842Z" fill="url(#paint0_linear_820_557)" stroke="white" stroke-width="1.10914"/>
<path d="M18.5798 38.8396V24.8718L28.7379 28.6812V42.649L18.5798 38.8396Z" fill="url(#paint1_linear_820_557)" stroke="white" stroke-width="1.10914" stroke-linecap="square" stroke-linejoin="round"/>
<path d="M41.8552 38.8396V24.8718L31.6971 28.6812V42.649L41.8552 38.8396Z" fill="url(#paint2_linear_820_557)" stroke="white" stroke-width="1.10914" stroke-linecap="square" stroke-linejoin="round"/>
</g>
<defs>
<filter id="filter0_i_820_557" x="0" y="0" width="60" height="60" filterUnits="userSpaceOnUse" color-interpolation-filters="sRGB">
<feFlood flood-opacity="0" result="BackgroundImageFix"/>
<feBlend mode="normal" in="SourceGraphic" in2="BackgroundImageFix" result="shape"/>
<feColorMatrix in="SourceAlpha" type="matrix" values="0 0 0 0 0 0 0 0 0 0 0 0 0 0 0 0 0 0 127 0" result="hardAlpha"/>
<feOffset/>
<feGaussianBlur stdDeviation="5.35714"/>
<feComposite in2="hardAlpha" operator="arithmetic" k2="-1" k3="1"/>
<feColorMatrix type="matrix" values="0 0 0 0 1 0 0 0 0 1 0 0 0 0 1 0 0 0 0.3 0"/>
<feBlend mode="normal" in2="shape" result="effect1_innerShadow_820_557"/>
</filter>
<linearGradient id="paint0_linear_820_557" x1="30.0032" y1="18.1002" x2="30.0032" y2="25.719" gradientUnits="userSpaceOnUse">
<stop stop-color="white" stop-opacity="0.5"/>
<stop offset="0.699243" stop-color="white" stop-opacity="0.14"/>
</linearGradient>
<linearGradient id="paint1_linear_820_557" x1="27.0449" y1="28.2579" x2="16.6327" y2="32.2802" gradientUnits="userSpaceOnUse">
<stop stop-color="white" stop-opacity="0.38"/>
<stop offset="0.699243" stop-color="white" stop-opacity="0.14"/>
</linearGradient>
<linearGradient id="paint2_linear_820_557" x1="33.3901" y1="28.2579" x2="43.8024" y2="32.2802" gradientUnits="userSpaceOnUse">
<stop stop-color="white" stop-opacity="0.38"/>
<stop offset="0.699243" stop-color="white" stop-opacity="0.14"/>
</linearGradient>
<clipPath id="clip0_820_557">
<rect width="60" height="60" fill="white"/>
</clipPath>
</defs>
</svg>
