<svg width="60" height="60" viewBox="0 0 60 60" fill="none" xmlns="http://www.w3.org/2000/svg">
<g clip-path="url(#clip0_820_545)">
<g filter="url(#filter0_i_820_545)">
<circle cx="30" cy="30" r="30" fill="black" fill-opacity="0.01"/>
</g>
<path d="M34.4831 21.2238C38.0577 22.8527 40.5913 26.3682 40.8113 30.4977M25.7168 21.1329C22.0344 22.7191 19.4078 26.2896 19.1836 30.4977M22.5065 38.9036C24.4517 40.7672 27.0908 41.9122 29.9974 41.9122C33.0075 41.9122 35.7308 40.6842 37.6935 38.7018" stroke="white" stroke-width="1.0701"/>
<ellipse cx="29.9986" cy="20.2536" rx="4.73786" ry="4.73773" fill="url(#paint0_linear_820_545)" stroke="white" stroke-width="1.0701"/>
<ellipse cx="19.8475" cy="35.1441" rx="4.73786" ry="4.73773" fill="url(#paint1_linear_820_545)" stroke="white" stroke-width="1.0701"/>
<ellipse cx="40.1517" cy="35.1441" rx="4.73786" ry="4.73773" fill="url(#paint2_linear_820_545)" stroke="white" stroke-width="1.0701"/>
</g>
<defs>
<filter id="filter0_i_820_545" x="0" y="0" width="60" height="60" filterUnits="userSpaceOnUse" color-interpolation-filters="sRGB">
<feFlood flood-opacity="0" result="BackgroundImageFix"/>
<feBlend mode="normal" in="SourceGraphic" in2="BackgroundImageFix" result="shape"/>
<feColorMatrix in="SourceAlpha" type="matrix" values="0 0 0 0 0 0 0 0 0 0 0 0 0 0 0 0 0 0 127 0" result="hardAlpha"/>
<feOffset/>
<feGaussianBlur stdDeviation="5.35714"/>
<feComposite in2="hardAlpha" operator="arithmetic" k2="-1" k3="1"/>
<feColorMatrix type="matrix" values="0 0 0 0 1 0 0 0 0 1 0 0 0 0 1 0 0 0 0.3 0"/>
<feBlend mode="normal" in2="shape" result="effect1_innerShadow_820_545"/>
</filter>
<linearGradient id="paint0_linear_820_545" x1="29.9986" y1="15.5159" x2="29.9986" y2="24.9913" gradientUnits="userSpaceOnUse">
<stop stop-color="white" stop-opacity="0.5"/>
<stop offset="0.711209" stop-color="white" stop-opacity="0.14"/>
</linearGradient>
<linearGradient id="paint1_linear_820_545" x1="19.8475" y1="30.4064" x2="19.8475" y2="39.8818" gradientUnits="userSpaceOnUse">
<stop stop-color="white" stop-opacity="0.5"/>
<stop offset="0.753199" stop-color="white" stop-opacity="0.14"/>
</linearGradient>
<linearGradient id="paint2_linear_820_545" x1="40.1517" y1="30.4064" x2="40.1517" y2="39.8818" gradientUnits="userSpaceOnUse">
<stop stop-color="white" stop-opacity="0.5"/>
<stop offset="0.739603" stop-color="white" stop-opacity="0.14"/>
</linearGradient>
<clipPath id="clip0_820_545">
<rect width="60" height="60" fill="white"/>
</clipPath>
</defs>
</svg>
