<svg width="49" height="48" viewBox="0 0 49 48" fill="none" xmlns="http://www.w3.org/2000/svg">
<circle cx="24.667" cy="24" r="21.75" fill="white" stroke="#E6E6E6" stroke-width="0.5"/>
<path d="M24.667 14.4517V16.3608" stroke="#191919" stroke-width="1.43182" stroke-linecap="round" stroke-linejoin="round"/>
<path d="M15.167 23.9517L17.0761 23.9517" stroke="#191919" stroke-width="1.43182" stroke-linecap="round" stroke-linejoin="round"/>
<path d="M32.2578 23.9517L34.1669 23.9517" stroke="#191919" stroke-width="1.43182" stroke-linecap="round" stroke-linejoin="round"/>
<path d="M30.667 19.35L32.0169 18" stroke="#191919" stroke-width="1.43182" stroke-linecap="round" stroke-linejoin="round"/>
<path d="M19.0166 19.35L17.6667 18" stroke="#191919" stroke-width="1.43182" stroke-linecap="round" stroke-linejoin="round"/>
<path d="M24.667 22.9971V19.179" stroke="#191919" stroke-width="1.43182" stroke-linecap="round" stroke-linejoin="round"/>
<path d="M24.667 13.9033C19.1441 13.9033 14.667 18.3805 14.667 23.9033C14.667 27.1087 16.1751 29.9619 18.5205 31.7919C18.673 31.9109 18.8622 31.9715 19.0556 31.9715H30.2784C30.4718 31.9715 30.661 31.9109 30.8135 31.7919C33.1589 29.9619 34.667 27.1087 34.667 23.9033C34.667 18.3805 30.1898 13.9033 24.667 13.9033Z" stroke="#191919" stroke-width="1.5"/>
<circle cx="24.6669" cy="23.9518" r="1.90909" fill="#191919"/>
</svg>
