<svg width="21" height="20" viewBox="0 0 21 20" fill="none" xmlns="http://www.w3.org/2000/svg">
<circle cx="10.8" cy="10.0001" r="8.6" fill="#191919"/>
<path d="M9.7583 13.6C9.7583 13.7105 9.66876 13.8 9.5583 13.8H8.8923C8.78647 13.8 8.68496 13.7581 8.60999 13.6834L7.28615 12.3646C7.21081 12.2895 7.16846 12.1875 7.16846 12.0812V7.74352C7.16846 7.63717 7.21081 7.5352 7.28615 7.46014L8.60999 6.14128C8.68496 6.06659 8.78647 6.02466 8.8923 6.02466H9.5583C9.66876 6.02466 9.7583 6.1142 9.7583 6.22466V13.6ZM10.3685 7.57739C10.258 7.57739 10.1685 7.48785 10.1685 7.37739V6.22466C10.1685 6.1142 10.258 6.02466 10.3685 6.02466H12.7625C12.8686 6.02466 12.9704 6.0668 13.0454 6.14182L14.3638 7.46024C14.4388 7.53525 14.481 7.63699 14.481 7.74308V8.94185C14.481 9.0523 14.3914 9.14185 14.281 9.14185H12.0911C11.9807 9.14185 11.8911 9.0523 11.8911 8.94185V7.77739C11.8911 7.66694 11.8016 7.57739 11.6911 7.57739H10.3685ZM10.3685 13.8C10.258 13.8 10.1685 13.7105 10.1685 13.6V12.4473C10.1685 12.3369 10.258 12.2473 10.3685 12.2473H11.6911C11.8016 12.2473 11.8911 12.1578 11.8911 12.0473V11.3106C11.8911 11.2001 11.9807 11.1106 12.0911 11.1106H14.281C14.3914 11.1106 14.481 11.2001 14.481 11.3106V12.0816C14.481 12.1877 14.4388 12.2895 14.3638 12.3645L13.0454 13.6829C12.9704 13.7579 12.8686 13.8 12.7625 13.8H10.3685Z" fill="#4DF284"/>
<circle cx="10.8001" cy="10" r="7.2" stroke="#4DF284" stroke-width="0.6"/>
</svg>
