<svg width="24" height="24" viewBox="0 0 24 24" fill="none" xmlns="http://www.w3.org/2000/svg">
<circle cx="11.9997" cy="11.9997" r="10.32" fill="#191919"/>
<path d="M10.0076 4.85708C10.0854 4.83541 10.1393 4.7645 10.1393 4.68367V4.22092C10.1393 4.10301 10.0278 4.01695 9.91377 4.04678C6.38404 4.96989 3.7793 8.18046 3.7793 11.9998C3.7793 15.8192 6.38404 19.0298 9.91377 19.9529C10.0278 19.9827 10.1393 19.8967 10.1393 19.7788V19.316C10.1393 19.2352 10.0854 19.1643 10.0076 19.1426C6.88046 18.2725 4.58596 15.4039 4.58596 11.9998C4.58596 8.59578 6.88046 5.72716 10.0076 4.85708Z" fill="#4DF284"/>
<path d="M14.0849 4.04678C13.9708 4.01695 13.8593 4.10302 13.8593 4.22093V4.68367C13.8593 4.7645 13.9132 4.83542 13.9911 4.85709C17.1181 5.72717 19.4126 8.59579 19.4126 11.9998C19.4126 15.4039 17.1181 18.2725 13.9911 19.1426C13.9132 19.1643 13.8593 19.2352 13.8593 19.316V19.7788C13.8593 19.8967 13.9708 19.9827 14.0849 19.9529C17.6146 19.0298 20.2193 15.8192 20.2193 11.9998C20.2193 8.18046 17.6146 4.96991 14.0849 4.04678Z" fill="#4DF284"/>
<path d="M15.0391 15.0494C14.9771 15.2509 14.791 15.3884 14.5802 15.3884H13.443C13.2277 15.3884 13.0388 15.2451 12.9808 15.0379L11.9796 11.4623C11.9778 11.456 11.972 11.4515 11.9654 11.4515C11.9587 11.4515 11.9529 11.456 11.9511 11.4624L10.9711 15.0354C10.9139 15.2439 10.7244 15.3884 10.5082 15.3884H9.3848C9.17373 15.3884 8.98742 15.2506 8.92575 15.0487L8.251 12.8401H7.19984C7.00102 12.8401 6.83984 12.6789 6.83984 12.4801V12.0001C6.83984 11.8012 7.00102 11.6401 7.19984 11.6401H7.88439L7.28433 9.67591C7.19009 9.36744 7.42084 9.05566 7.74339 9.05566H8.7069C8.92906 9.05566 9.12219 9.20811 9.17378 9.42419L10.038 13.0435C10.0403 13.0532 10.0489 13.0601 10.0589 13.0601C10.0687 13.0601 10.0773 13.0533 10.0797 13.0438L10.9858 9.41925C11.0393 9.20557 11.2313 9.05566 11.4515 9.05566H12.5712C12.7905 9.05566 12.9819 9.20431 13.0363 9.41679L13.9648 13.0492C13.9664 13.0556 13.9721 13.0601 13.9787 13.0601C13.9854 13.0601 13.9911 13.0555 13.9927 13.0491L14.8792 9.42171C14.9317 9.20683 15.1243 9.05566 15.3455 9.05566H16.2312C16.5541 9.05566 16.7849 9.36802 16.69 9.67665L16.0867 11.6401H16.7998C16.9987 11.6401 17.1598 11.8012 17.1598 12.0001V12.4801C17.1598 12.6789 16.9987 12.8401 16.7998 12.8401H15.718L15.0391 15.0494Z" fill="#4DF284"/>
</svg>
