<svg width="16" height="17" viewBox="0 0 16 17" fill="none" xmlns="http://www.w3.org/2000/svg">
<path d="M14.5 8.5C14.5 12.0899 11.5899 15 8 15C4.41015 15 1.5 12.0899 1.5 8.5C1.5 4.91015 4.41015 2 8 2C11.5899 2 14.5 4.91015 14.5 8.5Z" fill="#BFBFBF"/>
<path fill-rule="evenodd" clip-rule="evenodd" d="M5.71967 9.7552C5.42678 10.0481 5.42678 10.523 5.71967 10.8159C6.01256 11.1088 6.48744 11.1088 6.78033 10.8159L8.01782 9.57837L9.25531 10.8159C9.54821 11.1088 10.0231 11.1088 10.316 10.8159C10.6089 10.523 10.6089 10.0481 10.316 9.7552L9.07848 8.51771L10.3159 7.28033C10.6088 6.98744 10.6088 6.51256 10.3159 6.21967C10.023 5.92678 9.5481 5.92678 9.2552 6.21967L8.01782 7.45705L6.78044 6.21967C6.48755 5.92678 6.01267 5.92678 5.71978 6.21967C5.42689 6.51256 5.42689 6.98744 5.71978 7.28033L6.95716 8.51771L5.71967 9.7552Z" fill="white"/>
</svg>
