<svg width="14" height="14" viewBox="0 0 14 14" fill="currentColor" xmlns="http://www.w3.org/2000/svg">
<path fill-rule="evenodd" clip-rule="evenodd" d="M8.10797 1.42633C8.44968 1.08462 9.0037 1.08462 9.34541 1.42633L10.9746 3.05548C11.3163 3.39719 11.3163 3.95121 10.9746 4.29292L5.01002 10.2575C4.87078 10.3967 4.68863 10.4849 4.49305 10.5078L2.72936 10.7143C2.18281 10.7783 1.71357 10.3279 1.7551 9.7792L1.89441 7.93878C1.9102 7.73013 2.00024 7.53406 2.14819 7.3861L8.10797 1.42633ZM7.67304 3.51117L8.88972 4.72785L9.94337 3.6742L8.72669 2.45752L7.67304 3.51117ZM8.06477 5.55281L6.84809 4.33613L3.04959 8.13462L2.94515 9.51441L4.25672 9.36085L8.06477 5.55281ZM12.25 12.25C12.25 12.5722 11.9888 12.8333 11.6667 12.8333L2.33333 12.8333C2.01117 12.8333 1.75 12.5722 1.75 12.25C1.75 11.9278 2.01117 11.6667 2.33333 11.6667L11.6667 11.6667C11.9888 11.6667 12.25 11.9278 12.25 12.25Z" fill="currentColor"/>
</svg>
