<svg width="108" height="36" viewBox="0 0 108 36" fill="none" xmlns="http://www.w3.org/2000/svg">
<path d="M44.7315 10.543C40.0025 10.543 36.4028 14.0017 36.4028 18.8861C36.4028 23.7704 40.0025 27.2058 44.7315 27.2058C48.2148 27.2058 51.0755 25.4575 52.2887 22.3681C52.3736 22.1519 52.2095 21.9242 51.9772 21.9242H48.8737C48.7433 21.9242 48.6251 21.9992 48.5629 22.1138C47.7689 23.5747 46.4009 24.2846 44.708 24.2846C41.8377 24.2846 39.7908 22.1813 39.7908 18.8861C39.7908 15.5675 41.8377 13.4876 44.708 13.4876C46.4005 13.4876 47.7684 14.1971 48.5624 15.6368C48.625 15.7504 48.7426 15.8246 48.8723 15.8246H51.9761C52.2088 15.8246 52.3729 15.5964 52.2873 15.3801C51.0734 12.3113 48.2135 10.543 44.7315 10.543Z" fill="white"/>
<path d="M101.092 26.2535C101.092 26.442 101.245 26.5948 101.434 26.5948H104.318C104.506 26.5948 104.659 26.442 104.659 26.2535V11.5014C104.659 11.3129 104.506 11.1601 104.318 11.1601H101.434C101.245 11.1601 101.092 11.3129 101.092 11.5014V26.2535Z" fill="white"/>
<path d="M95.2814 26.5948C95.0929 26.5948 94.9401 26.442 94.9401 26.2535V11.5014C94.9401 11.3129 95.0929 11.1601 95.2814 11.1601H98.1655C98.354 11.1601 98.5068 11.3129 98.5068 11.5014V26.2535C98.5068 26.442 98.354 26.5948 98.1655 26.5948H95.2814Z" fill="white"/>
<path fill-rule="evenodd" clip-rule="evenodd" d="M92.6649 23.1546C92.7361 22.9446 92.573 22.7362 92.3513 22.7362H89.2087C89.0761 22.7362 88.9576 22.8143 88.8903 22.9285C88.5764 23.4614 88.0312 23.8625 87.135 23.8625C85.9878 23.8625 85.0492 23.1533 84.9241 21.6307H92.6925C92.8656 21.6307 93.0119 21.5012 93.0265 21.3288C93.0479 21.0762 93.0586 20.8267 93.0586 20.5878C93.0586 17.042 90.66 14.7894 87.2602 14.7894C83.7978 14.7894 81.3783 17.0837 81.3783 20.7755C81.3783 24.4673 83.8395 26.7617 87.2602 26.7617C89.9788 26.7617 91.9638 25.2211 92.6649 23.1546ZM84.945 19.6492C85.1535 18.356 86.0504 17.6469 87.2184 17.6469C88.4073 17.6469 89.4085 18.3769 89.4085 19.6492H84.945Z" fill="white"/>
<path fill-rule="evenodd" clip-rule="evenodd" d="M71.4978 16.604C72.1444 15.582 73.375 14.7894 75.0853 14.7894C77.9428 14.7894 80.2163 17.0837 80.2163 20.7547C80.2163 24.4256 77.9428 26.7617 75.0853 26.7617C73.375 26.7617 72.1444 25.9482 71.4978 24.9679V31.8017C71.4978 31.9902 71.345 32.143 71.1565 32.143H68.2724C68.0839 32.143 67.9311 31.9902 67.9311 31.8017V15.2975C67.9311 15.109 68.0839 14.9562 68.2724 14.9562H71.1565C71.345 14.9562 71.4978 15.109 71.4978 15.2975V16.604ZM76.587 20.7547C76.587 18.8983 75.3773 17.8972 74.0216 17.8972C72.6867 17.8972 71.4769 18.9192 71.4769 20.7755C71.4769 22.6319 72.6867 23.6539 74.0216 23.6539C75.3773 23.6539 76.587 22.611 76.587 20.7547Z" fill="white"/>
<path fill-rule="evenodd" clip-rule="evenodd" d="M58.8138 14.7894C55.9563 14.7894 53.6828 17.0837 53.6828 20.7547C53.6828 24.4256 55.9563 26.7617 58.7929 26.7617C60.5241 26.7617 61.7547 25.9691 62.4013 24.9471V26.2535C62.4013 26.442 62.5541 26.5948 62.7426 26.5948H65.6267C65.8152 26.5948 65.968 26.442 65.968 26.2535V15.2975C65.968 15.109 65.8152 14.9562 65.6267 14.9562H62.7426C62.5541 14.9562 62.4013 15.109 62.4013 15.2975V16.604C61.7756 15.582 60.545 14.7894 58.8138 14.7894ZM59.8567 17.8972C61.2124 17.8972 62.4013 18.9192 62.4013 20.7755C62.4013 22.6319 61.2124 23.6539 59.8567 23.6539C58.5218 23.6539 57.312 22.611 57.312 20.7547C57.312 18.8983 58.5218 17.8972 59.8567 17.8972Z" fill="white"/>
<path d="M32.5443 31.243C32.9204 31.243 33.1555 30.8359 32.9675 30.5102L17.7875 4.2039C17.5996 3.87828 17.1297 3.878 16.9414 4.2034L12.2045 12.39C12.016 12.7157 12.2511 13.1233 12.6274 13.1233H16.0661C16.2406 13.1233 16.4019 13.0302 16.4892 12.8791L16.9416 12.0957C17.1297 11.77 17.5999 11.7701 17.7879 12.0958L26.1384 26.5645C26.3264 26.8902 26.0913 27.2973 25.7152 27.2973H17.3649H3.88275C3.70814 27.2973 3.54681 27.3905 3.45955 27.5417L1.74694 30.5103C1.55903 30.836 1.7941 31.243 2.17013 31.243H32.5443Z" fill="#4DF284"/>
<path d="M12.1111 21.9251C11.735 21.9251 11.4999 21.5178 11.6881 21.1921L13.0964 18.7548C13.1837 18.6037 13.3449 18.5106 13.5194 18.5106H15.3982C15.5718 18.5106 15.7323 18.4185 15.8199 18.2686L17.5556 15.3001C17.7461 14.9744 17.5112 14.5649 17.1339 14.5649H11.94H11.2432C11.0686 14.5649 10.9073 14.6581 10.82 14.8093L4.85851 25.138C4.67051 25.4637 4.90558 25.8708 5.28165 25.8708H8.98824H17.3652H20.6705C20.9404 25.8708 21.1591 25.6521 21.1591 25.3822V22.4137C21.1591 22.1439 20.9404 21.9251 20.6705 21.9251H12.1111Z" fill="white"/>
</svg>
