<svg width="108" height="36" viewBox="0 0 108 36" fill="none" xmlns="http://www.w3.org/2000/svg">
<path d="M44.7318 10.5432C40.0028 10.5432 36.4031 14.002 36.4031 18.8863C36.4031 23.7707 40.0028 27.2061 44.7318 27.2061C48.215 27.2061 51.0757 25.4577 52.2889 22.3684C52.3738 22.1521 52.2097 21.9244 51.9774 21.9244H48.874C48.7436 21.9244 48.6254 21.9995 48.5631 22.1141C47.7692 23.575 46.4011 24.2848 44.7083 24.2848C41.8379 24.2848 39.791 22.1815 39.791 18.8863C39.791 15.5678 41.8379 13.4878 44.7083 13.4878C46.4008 13.4878 47.7686 14.1974 48.5626 15.637C48.6252 15.7506 48.7429 15.8248 48.8726 15.8248H51.9764C52.209 15.8248 52.3731 15.5966 52.2876 15.3803C51.0736 12.3115 48.2137 10.5432 44.7318 10.5432Z" fill="#191919"/>
<path d="M101.093 26.2538C101.093 26.4423 101.245 26.5951 101.434 26.5951H104.318C104.507 26.5951 104.659 26.4423 104.659 26.2538V11.5016C104.659 11.3132 104.507 11.1604 104.318 11.1604H101.434C101.245 11.1604 101.093 11.3132 101.093 11.5016V26.2538Z" fill="#191919"/>
<path d="M95.2816 26.5951C95.0931 26.5951 94.9404 26.4423 94.9404 26.2538V11.5016C94.9404 11.3132 95.0931 11.1604 95.2816 11.1604H98.1657C98.3542 11.1604 98.507 11.3132 98.507 11.5016V26.2538C98.507 26.4423 98.3542 26.5951 98.1657 26.5951H95.2816Z" fill="#191919"/>
<path fill-rule="evenodd" clip-rule="evenodd" d="M92.6651 23.1549C92.7364 22.9449 92.5733 22.7364 92.3516 22.7364H89.2089C89.0763 22.7364 88.9579 22.8145 88.8906 22.9287C88.5766 23.4616 88.0314 23.8627 87.1353 23.8627C85.9881 23.8627 85.0495 23.1535 84.9243 21.6309H92.6928C92.8658 21.6309 93.0122 21.5014 93.0268 21.329C93.0481 21.0764 93.0588 20.8269 93.0588 20.5881C93.0588 17.0422 90.6602 14.7896 87.2604 14.7896C83.798 14.7896 81.3785 17.084 81.3785 20.7758C81.3785 24.4676 83.8397 26.7619 87.2604 26.7619C89.979 26.7619 91.9641 25.2213 92.6651 23.1549ZM84.9452 19.6495C85.1538 18.3563 86.0507 17.6471 87.2187 17.6471C88.4076 17.6471 89.4087 18.3771 89.4087 19.6495H84.9452Z" fill="#191919"/>
<path fill-rule="evenodd" clip-rule="evenodd" d="M71.498 16.6042C72.1446 15.5822 73.3752 14.7896 75.0855 14.7896C77.943 14.7896 80.2165 17.084 80.2165 20.7549C80.2165 24.4259 77.943 26.7619 75.0855 26.7619C73.3752 26.7619 72.1446 25.9485 71.498 24.9682V31.8019C71.498 31.9904 71.3452 32.1432 71.1567 32.1432H68.2726C68.0841 32.1432 67.9314 31.9904 67.9314 31.8019V15.2978C67.9314 15.1093 68.0841 14.9565 68.2726 14.9565H71.1567C71.3452 14.9565 71.498 15.1093 71.498 15.2978V16.6042ZM76.5873 20.7549C76.5873 18.8986 75.3775 17.8974 74.0218 17.8974C72.6869 17.8974 71.4772 18.9194 71.4772 20.7758C71.4772 22.6321 72.6869 23.6541 74.0218 23.6541C75.3775 23.6541 76.5873 22.6112 76.5873 20.7549Z" fill="#191919"/>
<path fill-rule="evenodd" clip-rule="evenodd" d="M58.814 14.7896C55.9565 14.7896 53.6831 17.084 53.6831 20.7549C53.6831 24.4259 55.9565 26.7619 58.7932 26.7619C60.5244 26.7619 61.755 25.9693 62.4016 24.9473V26.2538C62.4016 26.4423 62.5544 26.5951 62.7428 26.5951H65.627C65.8154 26.5951 65.9682 26.4423 65.9682 26.2538V15.2978C65.9682 15.1093 65.8154 14.9565 65.627 14.9565H62.7428C62.5544 14.9565 62.4016 15.1093 62.4016 15.2978V16.6042C61.7758 15.5822 60.5452 14.7896 58.814 14.7896ZM59.8569 17.8974C61.2127 17.8974 62.4016 18.9194 62.4016 20.7758C62.4016 22.6321 61.2127 23.6541 59.8569 23.6541C58.522 23.6541 57.3123 22.6112 57.3123 20.7549C57.3123 18.8986 58.522 17.8974 59.8569 17.8974Z" fill="#191919"/>
<path d="M32.5443 31.2431C32.9204 31.2431 33.1555 30.8361 32.9675 30.5103L17.7875 4.20402C17.5996 3.8784 17.1297 3.87812 16.9414 4.20352L12.2045 12.3901C12.016 12.7158 12.2511 13.1234 12.6274 13.1234H16.0661C16.2406 13.1234 16.4019 13.0303 16.4892 12.8792L16.9416 12.0958C17.1297 11.7701 17.5999 11.7702 17.7879 12.0959L26.1384 26.5646C26.3264 26.8904 26.0913 27.2974 25.7152 27.2974H17.3649H3.88275C3.70814 27.2974 3.54681 27.3906 3.45955 27.5419L1.74694 30.5104C1.55903 30.8361 1.7941 31.2431 2.17013 31.2431H32.5443Z" fill="url(#paint0_linear_116_17495)"/>
<path d="M32.5443 31.2431C32.9204 31.2431 33.1555 30.8361 32.9675 30.5103L17.7875 4.20402C17.5996 3.8784 17.1297 3.87812 16.9414 4.20352L12.2045 12.3901C12.016 12.7158 12.2511 13.1234 12.6274 13.1234H16.0661C16.2406 13.1234 16.4019 13.0303 16.4892 12.8792L16.9416 12.0958C17.1297 11.7701 17.5999 11.7702 17.7879 12.0959L26.1384 26.5646C26.3264 26.8904 26.0913 27.2974 25.7152 27.2974H17.3649H3.88275C3.70814 27.2974 3.54681 27.3906 3.45955 27.5419L1.74694 30.5104C1.55903 30.8361 1.7941 31.2431 2.17013 31.2431H32.5443Z" fill="url(#paint1_linear_116_17495)"/>
<path d="M32.5443 31.2431C32.9204 31.2431 33.1555 30.8361 32.9675 30.5103L17.7875 4.20402C17.5996 3.8784 17.1297 3.87812 16.9414 4.20352L12.2045 12.3901C12.016 12.7158 12.2511 13.1234 12.6274 13.1234H16.0661C16.2406 13.1234 16.4019 13.0303 16.4892 12.8792L16.9416 12.0958C17.1297 11.7701 17.5999 11.7702 17.7879 12.0959L26.1384 26.5646C26.3264 26.8904 26.0913 27.2974 25.7152 27.2974H17.3649H3.88275C3.70814 27.2974 3.54681 27.3906 3.45955 27.5419L1.74694 30.5104C1.55903 30.8361 1.7941 31.2431 2.17013 31.2431H32.5443Z" fill="#6DF299"/>
<path d="M12.1109 21.9251C11.7347 21.9251 11.4997 21.5178 11.6878 21.1921L13.0961 18.7548C13.1834 18.6037 13.3447 18.5106 13.5191 18.5106H15.3979C15.5715 18.5106 15.7321 18.4185 15.8197 18.2686L17.5554 15.3001C17.7458 14.9744 17.5109 14.5649 17.1336 14.5649H11.9398H11.2429C11.0684 14.5649 10.9071 14.6581 10.8198 14.8093L4.85826 25.138C4.67027 25.4637 4.90533 25.8708 5.28141 25.8708H8.988H17.365H20.6703C20.9401 25.8708 21.1589 25.6521 21.1589 25.3822V22.4137C21.1589 22.1439 20.9401 21.9251 20.6703 21.9251H12.1109Z" fill="#2742F2"/>
<path d="M12.1109 21.9251C11.7347 21.9251 11.4997 21.5178 11.6878 21.1921L13.0961 18.7548C13.1834 18.6037 13.3447 18.5106 13.5191 18.5106H15.3979C15.5715 18.5106 15.7321 18.4185 15.8197 18.2686L17.5554 15.3001C17.7458 14.9744 17.5109 14.5649 17.1336 14.5649H11.9398H11.2429C11.0684 14.5649 10.9071 14.6581 10.8198 14.8093L4.85826 25.138C4.67027 25.4637 4.90533 25.8708 5.28141 25.8708H8.988H17.365H20.6703C20.9401 25.8708 21.1589 25.6521 21.1589 25.3822V22.4137C21.1589 22.1439 20.9401 21.9251 20.6703 21.9251H12.1109Z" fill="#191919"/>
<defs>
<linearGradient id="paint0_linear_116_17495" x1="8.32231" y1="-3.85665" x2="31.5189" y2="30.8356" gradientUnits="userSpaceOnUse">
<stop stop-color="#293EFB"/>
<stop offset="1" stop-color="#40E2FF"/>
</linearGradient>
<linearGradient id="paint1_linear_116_17495" x1="1.32422" y1="31.2431" x2="27.4938" y2="26.6474" gradientUnits="userSpaceOnUse">
<stop stop-color="#C8FEFF"/>
<stop offset="0.32" stop-color="#77FAFF"/>
<stop offset="1" stop-color="#71FAB2"/>
</linearGradient>
</defs>
</svg>
