<svg width="126" height="12" viewBox="0 0 126 12" fill="none" xmlns="http://www.w3.org/2000/svg">
<path d="M0.33981 11L2.03015 0.818182H6.42504C7.18072 0.818182 7.81874 0.955729 8.3391 1.23082C8.85946 1.50592 9.23399 1.90199 9.46268 2.41903C9.69137 2.93608 9.74606 3.55587 9.62674 4.27841C9.50742 5.00758 9.24393 5.6224 8.83626 6.12287C8.4319 6.62003 7.91651 6.99787 7.29009 7.25639C6.66699 7.5116 5.96765 7.6392 5.19208 7.6392H2.56708L2.92504 5.49148H4.99322C5.31803 5.49148 5.60307 5.4517 5.84833 5.37216C6.0936 5.2893 6.29246 5.16004 6.44492 4.98438C6.59739 4.8054 6.69682 4.57008 6.74322 4.27841C6.78962 3.98674 6.76642 3.74976 6.67362 3.56747C6.58081 3.38187 6.42669 3.24598 6.21126 3.1598C5.99582 3.07031 5.72901 3.02557 5.41083 3.02557H4.4364L3.10401 11H0.33981ZM7.08129 6.3267L8.85117 11H5.84833L4.13811 6.3267H7.08129ZM13.623 11.1392C12.8077 11.1392 12.1315 10.9834 11.5946 10.6719C11.0577 10.357 10.6798 9.90625 10.4611 9.3196C10.2423 8.72964 10.2026 8.02367 10.3418 7.2017C10.4743 6.41288 10.7478 5.72348 11.1621 5.13352C11.5797 4.54356 12.105 4.08452 12.7381 3.75639C13.3744 3.42827 14.087 3.2642 14.8758 3.2642C15.4526 3.2642 15.958 3.35369 16.3922 3.53267C16.8297 3.71165 17.186 3.97183 17.4611 4.31321C17.7362 4.65459 17.9218 5.06723 18.0179 5.55114C18.1173 6.03172 18.1173 6.57528 18.0179 7.18182L17.9185 7.81818H11.0974L11.3361 6.30682H15.6315C15.6647 6.08807 15.6431 5.89583 15.5669 5.73011C15.494 5.56108 15.3763 5.43016 15.2139 5.33736C15.0548 5.24124 14.8626 5.19318 14.6372 5.19318C14.4118 5.19318 14.1997 5.24124 14.0008 5.33736C13.8053 5.43348 13.6379 5.56771 13.4987 5.74006C13.3628 5.9124 13.2717 6.11458 13.2253 6.34659L12.927 7.9375C12.8872 8.18277 12.9021 8.40152 12.9717 8.59375C13.0413 8.78598 13.1623 8.93679 13.3347 9.04616C13.507 9.15554 13.7291 9.21023 14.0008 9.21023C14.1865 9.21023 14.3621 9.18537 14.5278 9.13565C14.6969 9.08262 14.846 9.00639 14.9753 8.90696C15.1079 8.80421 15.2139 8.67992 15.2935 8.53409H17.7991C17.6202 9.06439 17.3368 9.52509 16.949 9.91619C16.5645 10.304 16.0906 10.6056 15.5271 10.821C14.967 11.0331 14.3323 11.1392 13.623 11.1392ZM22.4405 11.1392C21.6119 11.1392 20.9291 10.9751 20.3922 10.647C19.8552 10.3156 19.4791 9.85488 19.2636 9.26491C19.0482 8.67164 19.0068 7.9839 19.1393 7.2017C19.2653 6.41951 19.5337 5.73343 19.9447 5.14347C20.359 4.55019 20.8893 4.08949 21.5356 3.76136C22.1853 3.42992 22.9244 3.2642 23.753 3.2642C24.502 3.2642 25.1268 3.40009 25.6273 3.67188C26.131 3.94034 26.4907 4.3215 26.7061 4.81534C26.9248 5.30587 26.9812 5.88258 26.8751 6.54545H24.3297C24.3595 6.14773 24.2949 5.8428 24.1358 5.63068C23.98 5.41856 23.753 5.3125 23.4547 5.3125C23.2094 5.3125 22.984 5.3821 22.7785 5.52131C22.5764 5.6572 22.4024 5.86435 22.2565 6.14276C22.114 6.41785 22.0096 6.7642 21.9433 7.18182C21.877 7.59943 21.8687 7.94744 21.9185 8.22585C21.9715 8.50095 22.0742 8.7081 22.2267 8.8473C22.3825 8.98319 22.5797 9.05114 22.8183 9.05114C23.0238 9.05114 23.2127 9.00473 23.3851 8.91193C23.5607 8.81581 23.7115 8.67661 23.8375 8.49432C23.9667 8.30871 24.0645 8.08333 24.1308 7.81818H26.6763C26.5503 8.49432 26.2968 9.08097 25.9156 9.57812C25.5345 10.0753 25.0489 10.4598 24.4589 10.7315C23.869 11.0033 23.1962 11.1392 22.4405 11.1392ZM27.5516 11L28.8243 3.36364H31.4891L31.2505 4.81534H31.33C31.5587 4.27841 31.8454 3.88565 32.1901 3.63707C32.5348 3.38849 32.911 3.2642 33.3187 3.2642C33.438 3.2642 33.5523 3.27415 33.6617 3.29403C33.7744 3.31061 33.8854 3.33381 33.9948 3.36364L33.5971 5.71023C33.4678 5.66051 33.3071 5.62571 33.1148 5.60582C32.9226 5.58262 32.7519 5.57102 32.6028 5.57102C32.3376 5.57102 32.089 5.63234 31.857 5.75497C31.6283 5.87429 31.4328 6.04332 31.2704 6.26207C31.1113 6.47751 31.0052 6.73106 30.9522 7.02273L30.2959 11H27.5516ZM39.4104 7.65909L40.1264 3.36364H42.8707L41.5979 11H38.9928L39.2315 9.5483H39.1519C38.9166 10.0355 38.5653 10.4167 38.0979 10.6918C37.6339 10.9635 37.1169 11.0994 36.5468 11.0994C36.0132 11.0994 35.5674 10.9768 35.2095 10.7315C34.8515 10.4863 34.5979 10.1482 34.4488 9.71733C34.2997 9.28646 34.2698 8.79261 34.3593 8.2358L35.1747 3.36364H37.919L37.2031 7.65909C37.1467 8.03693 37.1948 8.33357 37.3472 8.54901C37.503 8.76444 37.7533 8.87216 38.0979 8.87216C38.3266 8.87216 38.5321 8.8241 38.7144 8.72798C38.9 8.62855 39.0525 8.48935 39.1718 8.31037C39.2944 8.12808 39.374 7.91098 39.4104 7.65909ZM43.2737 11L44.5465 3.36364H47.2908L46.018 11H43.2737ZM46.0379 2.56818C45.6667 2.56818 45.3668 2.44555 45.1381 2.20028C44.9094 1.9517 44.8249 1.65672 44.8845 1.31534C44.9442 0.967329 45.1265 0.672348 45.4314 0.430397C45.7363 0.185132 46.0744 0.0625 46.4456 0.0625C46.8201 0.0625 47.1184 0.185132 47.3405 0.430397C47.5626 0.672348 47.6454 0.967329 47.5891 1.31534C47.536 1.65672 47.3571 1.9517 47.0521 2.20028C46.7505 2.44555 46.4125 2.56818 46.0379 2.56818ZM53.523 3.36364L53.1849 5.35227H48.1537L48.4918 3.36364H53.523ZM49.7645 1.53409H52.5088L51.3454 8.54403C51.3289 8.65009 51.3322 8.73958 51.3554 8.8125C51.3786 8.8821 51.425 8.93513 51.4946 8.97159C51.5675 9.00473 51.6636 9.02131 51.7829 9.02131C51.8625 9.02131 51.9603 9.01136 52.0763 8.99148C52.1923 8.96828 52.2801 8.9517 52.3398 8.94176L52.4193 10.8707C52.2801 10.9105 52.0928 10.9553 51.8575 11.005C51.6255 11.058 51.3554 11.0928 51.0472 11.1094C50.4042 11.1392 49.8805 11.0713 49.4761 10.9055C49.0751 10.7398 48.7967 10.4813 48.6409 10.13C48.4884 9.77533 48.4619 9.33286 48.5614 8.80256L49.7645 1.53409ZM53.67 11L54.9427 3.36364H57.5479L57.3092 4.81534H57.3888C57.6241 4.33807 57.9572 3.96023 58.3881 3.68182C58.8189 3.40341 59.3012 3.2642 59.8348 3.2642C60.3684 3.2642 60.8059 3.40672 61.1473 3.69176C61.4887 3.97348 61.661 4.34801 61.6643 4.81534H61.7439C61.9494 4.34801 62.2858 3.97348 62.7531 3.69176C63.2204 3.40672 63.7391 3.2642 64.3092 3.2642C65.0351 3.2642 65.5869 3.49953 65.9648 3.97017C66.3459 4.44081 66.4702 5.06723 66.3376 5.84943L65.4825 11H62.7382L63.4939 6.54545C63.5403 6.2107 63.4939 5.94886 63.3547 5.75994C63.2155 5.56771 63.0033 5.47159 62.7183 5.47159C62.4366 5.47159 62.198 5.56771 62.0024 5.75994C61.8102 5.94886 61.6908 6.2107 61.6444 6.54545L60.8888 11H58.2638L59.0194 6.54545C59.0658 6.2107 59.0194 5.94886 58.8802 5.75994C58.741 5.56771 58.5289 5.47159 58.2439 5.47159C58.0583 5.47159 57.8892 5.51468 57.7368 5.60085C57.5876 5.68703 57.4633 5.81132 57.3639 5.97372C57.2678 6.13281 57.2032 6.32339 57.17 6.54545L56.4143 11H53.67ZM70.7353 11.1392C69.92 11.1392 69.2439 10.9834 68.7069 10.6719C68.17 10.357 67.7922 9.90625 67.5734 9.3196C67.3547 8.72964 67.3149 8.02367 67.4541 7.2017C67.5867 6.41288 67.8601 5.72348 68.2744 5.13352C68.692 4.54356 69.2174 4.08452 69.8504 3.75639C70.4868 3.42827 71.1994 3.2642 71.9882 3.2642C72.5649 3.2642 73.0703 3.35369 73.5045 3.53267C73.942 3.71165 74.2983 3.97183 74.5734 4.31321C74.8485 4.65459 75.0341 5.06723 75.1302 5.55114C75.2297 6.03172 75.2297 6.57528 75.1302 7.18182L75.0308 7.81818H68.2098L68.4484 6.30682H72.7439C72.777 6.08807 72.7555 5.89583 72.6792 5.73011C72.6063 5.56108 72.4887 5.43016 72.3263 5.33736C72.1672 5.24124 71.9749 5.19318 71.7496 5.19318C71.5242 5.19318 71.3121 5.24124 71.1132 5.33736C70.9176 5.43348 70.7503 5.56771 70.6111 5.74006C70.4752 5.9124 70.384 6.11458 70.3376 6.34659L70.0393 7.9375C69.9996 8.18277 70.0145 8.40152 70.0841 8.59375C70.1537 8.78598 70.2746 8.93679 70.447 9.04616C70.6193 9.15554 70.8414 9.21023 71.1132 9.21023C71.2988 9.21023 71.4745 9.18537 71.6402 9.13565C71.8092 9.08262 71.9584 9.00639 72.0876 8.90696C72.2202 8.80421 72.3263 8.67992 72.4058 8.53409H74.9115C74.7325 9.06439 74.4491 9.52509 74.0613 9.91619C73.6769 10.304 73.2029 10.6056 72.6395 10.821C72.0793 11.0331 71.4446 11.1392 70.7353 11.1392ZM79.3738 6.70455L78.6579 11H75.9136L77.1863 3.36364H79.7914L79.5528 4.81534H79.6324C79.8743 4.32812 80.2273 3.94863 80.6913 3.67685C81.1586 3.40175 81.674 3.2642 82.2375 3.2642C82.7777 3.2642 83.2268 3.38684 83.5848 3.6321C83.9427 3.87737 84.1963 4.21544 84.3454 4.64631C84.4946 5.07718 84.5211 5.57102 84.425 6.12784L83.6096 11H80.8653L81.5812 6.70455C81.6442 6.3267 81.5978 6.03007 81.442 5.81463C81.2896 5.5992 81.0377 5.49148 80.6863 5.49148C80.4643 5.49148 80.2604 5.54119 80.0748 5.64062C79.8925 5.73674 79.7401 5.87595 79.6174 6.05824C79.4981 6.23722 79.4169 6.45265 79.3738 6.70455ZM91.0512 3.36364L90.7131 5.35227H85.6819L86.02 3.36364H91.0512ZM87.2927 1.53409H90.037L88.8737 8.54403C88.8571 8.65009 88.8604 8.73958 88.8836 8.8125C88.9068 8.8821 88.9532 8.93513 89.0228 8.97159C89.0957 9.00473 89.1918 9.02131 89.3112 9.02131C89.3907 9.02131 89.4885 9.01136 89.6045 8.99148C89.7205 8.96828 89.8083 8.9517 89.868 8.94176L89.9475 10.8707C89.8083 10.9105 89.6211 10.9553 89.3857 11.005C89.1537 11.058 88.8836 11.0928 88.5754 11.1094C87.9324 11.1392 87.4087 11.0713 87.0043 10.9055C86.6033 10.7398 86.3249 10.4813 86.1691 10.13C86.0166 9.77533 85.9901 9.33286 86.0896 8.80256L87.2927 1.53409ZM94.2076 11L95.898 0.818182H100.293C101.049 0.818182 101.685 0.967329 102.202 1.26562C102.719 1.56392 103.09 1.98319 103.316 2.52344C103.541 3.06368 103.594 3.69508 103.475 4.41761C103.355 5.15341 103.09 5.78812 102.679 6.32173C102.272 6.85204 101.751 7.26136 101.118 7.54972C100.488 7.83475 99.7824 7.97727 99.0002 7.97727H96.3752L96.7332 5.82955H98.8014C99.1328 5.82955 99.4245 5.7732 99.6764 5.66051C99.9283 5.54451 100.132 5.3821 100.288 5.1733C100.444 4.96117 100.545 4.70928 100.591 4.41761C100.638 4.12595 100.616 3.87737 100.527 3.67188C100.44 3.46307 100.291 3.30398 100.079 3.1946C99.8703 3.08191 99.6035 3.02557 99.2786 3.02557H98.3042L96.9718 11H94.2076ZM108.15 0.818182L106.459 11H103.715L105.405 0.818182H108.15ZM110.245 11.1193C109.762 11.1193 109.346 11.0398 108.998 10.8807C108.653 10.7183 108.401 10.473 108.242 10.1449C108.086 9.81345 108.051 9.39583 108.137 8.89205C108.207 8.47443 108.338 8.11813 108.53 7.82315C108.722 7.52817 108.961 7.28622 109.246 7.0973C109.531 6.90838 109.851 6.7642 110.206 6.66477C110.564 6.56203 110.941 6.49574 111.339 6.46591C111.77 6.43276 112.12 6.39134 112.388 6.34162C112.657 6.2919 112.857 6.22396 112.99 6.13778C113.122 6.05161 113.202 5.93561 113.228 5.78977V5.76989C113.258 5.57102 113.205 5.41856 113.069 5.3125C112.937 5.20644 112.751 5.15341 112.512 5.15341C112.254 5.15341 112.03 5.20975 111.841 5.32244C111.656 5.43513 111.528 5.6108 111.458 5.84943H108.933C109.039 5.38542 109.256 4.95786 109.584 4.56676C109.916 4.17235 110.355 3.85748 110.902 3.62216C111.452 3.38352 112.108 3.2642 112.87 3.2642C113.414 3.2642 113.891 3.32884 114.302 3.4581C114.713 3.58404 115.053 3.76136 115.321 3.99006C115.593 4.21544 115.784 4.48059 115.893 4.78551C116.006 5.08712 116.032 5.41525 115.973 5.76989L115.098 11H112.532L112.711 9.92614H112.652C112.453 10.2112 112.229 10.4415 111.981 10.6172C111.735 10.7929 111.467 10.9205 111.175 11C110.887 11.0795 110.577 11.1193 110.245 11.1193ZM111.439 9.3892C111.644 9.3892 111.846 9.34612 112.045 9.25994C112.244 9.17377 112.415 9.04948 112.557 8.88707C112.7 8.72467 112.791 8.52746 112.831 8.29545L112.93 7.65909C112.857 7.68892 112.776 7.71709 112.686 7.74361C112.6 7.76681 112.509 7.79001 112.413 7.81321C112.32 7.83641 112.221 7.85795 112.115 7.87784C112.012 7.89773 111.906 7.91761 111.797 7.9375C111.578 7.97064 111.394 8.02533 111.245 8.10156C111.096 8.17448 110.98 8.26562 110.897 8.375C110.814 8.48106 110.762 8.60038 110.743 8.73295C110.713 8.94176 110.761 9.10417 110.887 9.22017C111.016 9.33286 111.2 9.3892 111.439 9.3892ZM120.169 6.70455L119.453 11H116.709L117.982 3.36364H120.587L120.348 4.81534H120.428C120.67 4.32812 121.023 3.94863 121.487 3.67685C121.954 3.40175 122.469 3.2642 123.033 3.2642C123.573 3.2642 124.022 3.38684 124.38 3.6321C124.738 3.87737 124.992 4.21544 125.141 4.64631C125.29 5.07718 125.316 5.57102 125.22 6.12784L124.405 11H121.661L122.376 6.70455C122.439 6.3267 122.393 6.03007 122.237 5.81463C122.085 5.5992 121.833 5.49148 121.482 5.49148C121.26 5.49148 121.056 5.54119 120.87 5.64062C120.688 5.73674 120.535 5.87595 120.413 6.05824C120.293 6.23722 120.212 6.45265 120.169 6.70455Z" fill="url(#paint0_linear_1087_196)"/>
<defs>
<linearGradient id="paint0_linear_1087_196" x1="0" y1="6" x2="126" y2="6" gradientUnits="userSpaceOnUse">
<stop stop-color="#5AEF42"/>
<stop offset="1" stop-color="#21F2B3"/>
</linearGradient>
</defs>
</svg>
