<svg width="60" height="60" viewBox="0 0 60 60" fill="none" xmlns="http://www.w3.org/2000/svg">
<circle cx="30" cy="30" r="27.5" fill="#FFFAF0"/>
<circle cx="30" cy="30" r="27.5" fill="white"/>
<path fill-rule="evenodd" clip-rule="evenodd" d="M41 33.5874H19V39.6244C19 39.6287 18.9999 39.633 18.9999 39.6374C18.9999 41.7636 23.9248 43.4874 29.9999 43.4874C36.075 43.4874 40.9999 41.7637 40.9999 39.6374H41V33.5874Z" fill="#15D47B"/>
<path d="M19 33.5874V32.8374H18.25V33.5874H19ZM41 33.5874H41.75V32.8374H41V33.5874ZM19 39.6244L19.75 39.6315V39.6244H19ZM40.9999 39.6374V38.8874H40.25L40.2499 39.6374L40.9999 39.6374ZM41 39.6374V40.3874H41.75V39.6374H41ZM19 34.3374H41V32.8374H19V34.3374ZM19.75 39.6244V33.5874H18.25V39.6244H19.75ZM19.7499 39.6374C19.7499 39.6354 19.7499 39.6334 19.75 39.6315L18.25 39.6173C18.25 39.624 18.2499 39.6307 18.2499 39.6374H19.7499ZM29.9999 42.7374C27.0237 42.7374 24.3613 42.314 22.4695 41.6518C21.5202 41.3195 20.8053 40.9411 20.3425 40.5581C19.8749 40.1712 19.7499 39.8562 19.7499 39.6374H18.2499C18.2499 40.4816 18.7406 41.1795 19.3862 41.7138C20.0367 42.252 20.9328 42.7032 21.974 43.0676C24.0634 43.7989 26.901 44.2374 29.9999 44.2374V42.7374ZM40.2499 39.6374C40.2499 39.8563 40.1249 40.1712 39.6573 40.5582C39.1945 40.9411 38.4797 41.3196 37.5303 41.6518C35.6385 42.314 32.9761 42.7374 29.9999 42.7374V44.2374C33.0988 44.2374 35.9364 43.7989 38.0258 43.0676C39.0671 42.7032 39.9632 42.252 40.6136 41.7138C41.2593 41.1795 41.7499 40.4817 41.7499 39.6374L40.2499 39.6374ZM41 38.8874H40.9999V40.3874H41V38.8874ZM40.25 33.5874V39.6374H41.75V33.5874H40.25Z" fill="white"/>
<path fill-rule="evenodd" clip-rule="evenodd" d="M41 27.125H19V33.1617C19 33.166 18.9999 33.1703 18.9999 33.1746C18.9999 35.3009 23.9248 37.0246 29.9999 37.0246C36.0747 37.0246 40.9994 35.3011 40.9999 33.175H41V27.125Z" fill="#15D47B"/>
<path d="M19 27.125V26.375H18.25V27.125H19ZM41 27.125H41.75V26.375H41V27.125ZM19 33.1617L19.75 33.1687V33.1617H19ZM40.9999 33.175V32.425H40.2501L40.2499 33.1748L40.9999 33.175ZM41 33.175V33.925H41.75V33.175H41ZM19 27.875H41V26.375H19V27.875ZM19.75 33.1617V27.125H18.25V33.1617H19.75ZM19.7499 33.1746C19.7499 33.1727 19.7499 33.1707 19.75 33.1687L18.25 33.1546C18.25 33.1613 18.2499 33.168 18.2499 33.1746H19.7499ZM29.9999 36.2746C27.0237 36.2746 24.3613 35.8512 22.4695 35.1891C21.5202 34.8568 20.8053 34.4784 20.3425 34.0954C19.8749 33.7085 19.7499 33.3935 19.7499 33.1746H18.2499C18.2499 34.0189 18.7406 34.7168 19.3862 35.2511C20.0367 35.7893 20.9328 36.2405 21.974 36.6049C24.0634 37.3362 26.901 37.7746 29.9999 37.7746V36.2746ZM40.2499 33.1748C40.2499 33.3937 40.1248 33.7087 39.6571 34.0956C39.1942 34.4786 38.4794 34.857 37.53 35.1892C35.6382 35.8513 32.976 36.2746 29.9999 36.2746V37.7746C33.0987 37.7746 35.9362 37.3362 38.0255 36.605C39.0668 36.2406 39.9628 35.7895 40.6133 35.2513C41.259 34.7171 41.7497 34.0194 41.7499 33.1752L40.2499 33.1748ZM41 32.425H40.9999V33.925H41V32.425ZM40.25 27.125V33.175H41.75V27.125H40.25Z" fill="white"/>
<path fill-rule="evenodd" clip-rule="evenodd" d="M41 20.6626H19V26.6993C19 26.7036 18.9999 26.7079 18.9999 26.7122C18.9999 28.8385 23.9248 30.5622 29.9999 30.5622C36.0747 30.5622 40.9994 28.8387 40.9999 26.7126H41V20.6626Z" fill="#15D47B"/>
<path d="M19 20.6626V19.9126H18.25V20.6626H19ZM41 20.6626H41.75V19.9126H41V20.6626ZM19 26.6993L19.75 26.7063V26.6993H19ZM40.9999 26.7126V25.9626H40.2501L40.2499 26.7124L40.9999 26.7126ZM41 26.7126V27.4626H41.75V26.7126H41ZM19 21.4126H41V19.9126H19V21.4126ZM19.75 26.6993V20.6626H18.25V26.6993H19.75ZM19.7499 26.7122C19.7499 26.7103 19.7499 26.7083 19.75 26.7063L18.25 26.6922C18.25 26.6989 18.2499 26.7056 18.2499 26.7122H19.7499ZM29.9999 29.8122C27.0237 29.8122 24.3613 29.3888 22.4695 28.7267C21.5202 28.3944 20.8053 28.016 20.3425 27.633C19.8749 27.2461 19.7499 26.9311 19.7499 26.7122H18.2499C18.2499 27.5565 18.7406 28.2544 19.3862 28.7887C20.0367 29.3269 20.9328 29.7781 21.974 30.1425C24.0634 30.8738 26.901 31.3122 29.9999 31.3122V29.8122ZM40.2499 26.7124C40.2499 26.9313 40.1248 27.2463 39.6571 27.6332C39.1942 28.0162 38.4794 28.3946 37.53 28.7268C35.6382 29.3889 32.976 29.8122 29.9999 29.8122V31.3122C33.0987 31.3122 35.9362 30.8738 38.0255 30.1426C39.0668 29.7782 39.9628 29.3271 40.6133 28.7889C41.259 28.2547 41.7497 27.557 41.7499 26.7128L40.2499 26.7124ZM41 25.9626H40.9999V27.4626H41V25.9626ZM40.25 20.6626V26.7126H41.75V20.6626H40.25Z" fill="white"/>
<ellipse cx="30" cy="20.1127" rx="11" ry="3.85" fill="#15D47B" stroke="white" stroke-width="1.5"/>
</svg>
