<svg width="60" height="60" viewBox="0 0 60 60" fill="none" xmlns="http://www.w3.org/2000/svg">
<circle cx="30" cy="30" r="27.5" fill="white"/>
<g clip-path="url(#clip0_452_25358)">
<circle cx="30" cy="30" r="13" fill="#15D47B"/>
<path d="M29.1701 24.2348C29.5663 23.6452 30.4337 23.6452 30.8299 24.2348L32.2399 26.3325C32.3717 26.5286 32.5686 26.6716 32.7958 26.7364L35.2266 27.4291C35.9097 27.6238 36.1778 28.4487 35.7395 29.0078L34.1802 30.997C34.0344 31.1829 33.9592 31.4144 33.9679 31.6505L34.0602 34.1763C34.0861 34.8862 33.3844 35.396 32.7173 35.152L30.3435 34.2837C30.1217 34.2025 29.8783 34.2025 29.6565 34.2837L27.2827 35.152C26.6156 35.396 25.9139 34.8862 25.9398 34.1763L26.0321 31.6505C26.0408 31.4144 25.9656 31.1829 25.8198 30.997L24.2605 29.0078C23.8222 28.4487 24.0903 27.6238 24.7734 27.4291L27.2042 26.7364C27.4314 26.6716 27.6283 26.5286 27.7601 26.3325L29.1701 24.2348Z" fill="white"/>
<path d="M39.7874 44.1994L39.2618 43.6644L39.7874 44.1994C40.4317 43.5666 40.4409 42.5313 39.8081 41.887L39.0294 41.0942H43.3609C44.264 41.0942 44.9961 40.3621 44.9961 39.459C44.9961 38.5559 44.264 37.8238 43.3609 37.8238H39.0294L39.8081 37.031C40.4409 36.3867 40.4317 35.3514 39.7874 34.7186C39.1431 34.0858 38.1078 34.0951 37.4749 34.7394L33.9647 38.3132C33.3399 38.9493 33.3399 39.9687 33.9647 40.6049L37.4749 44.1787C38.1078 44.823 39.1431 44.8323 39.7874 44.1994Z" fill="#15D47B" stroke="white" stroke-width="1.5" stroke-linecap="round" stroke-linejoin="round"/>
</g>
<defs>
<clipPath id="clip0_452_25358">
<rect width="28.75" height="28.75" fill="white" transform="translate(15.625 15.625)"/>
</clipPath>
</defs>
</svg>
