<svg width="14" height="14" viewBox="0 0 14 14" fill="none" xmlns="http://www.w3.org/2000/svg">
<circle cx="7.59998" cy="7" r="5.625" stroke="currentColor"/>
<path d="M7.19739 8.46125C7.01375 8.46125 6.86489 8.31238 6.86489 8.12875C6.86489 7.98875 6.87364 7.86333 6.89114 7.7525C6.91447 7.64167 6.94655 7.53667 6.98739 7.4375C7.03405 7.33833 7.09239 7.24208 7.16239 7.14875C7.23822 7.05542 7.33155 6.95625 7.44239 6.85125L7.83614 6.475C7.94697 6.37583 8.0403 6.265 8.11614 6.1425C8.1978 6.02 8.23864 5.87125 8.23864 5.69625C8.23864 5.46875 8.16572 5.27917 8.01989 5.1275C7.87989 4.97 7.67864 4.89125 7.41614 4.89125C7.28197 4.89125 7.15947 4.9175 7.04864 4.97C6.94364 5.01667 6.8503 5.08375 6.76864 5.17125C6.6928 5.25292 6.63447 5.34917 6.59364 5.46C6.52765 5.63911 6.36544 5.7871 6.17532 5.7701L5.98442 5.75303C5.69093 5.72678 5.46942 5.45803 5.57033 5.18119C5.59829 5.10451 5.63022 5.03119 5.66614 4.96125C5.7828 4.73958 5.93155 4.55292 6.11239 4.40125C6.29322 4.24958 6.5003 4.13583 6.73364 4.06C6.96697 3.97833 7.2178 3.9375 7.48614 3.9375C7.73697 3.9375 7.97322 3.97542 8.19489 4.05125C8.42239 4.12125 8.62072 4.22917 8.78989 4.375C8.96489 4.515 9.10197 4.69 9.20114 4.9C9.3003 5.11 9.34989 5.35208 9.34989 5.62625C9.34989 5.81292 9.32947 5.97625 9.28864 6.11625C9.2478 6.25625 9.18947 6.38458 9.11364 6.50125C9.0378 6.61792 8.94447 6.73167 8.83364 6.8425C8.72864 6.9475 8.60905 7.05833 8.47489 7.175C8.35822 7.27417 8.26197 7.36167 8.18614 7.4375C8.11614 7.51333 8.0578 7.58917 8.01114 7.665C7.9703 7.74083 7.94114 7.8225 7.92364 7.91C7.90614 7.9975 7.89739 8.10542 7.89739 8.23375C7.89739 8.3594 7.79553 8.46125 7.66989 8.46125H7.19739ZM6.68989 9.6775C6.68989 9.49083 6.75697 9.33042 6.89114 9.19625C7.03114 9.06208 7.19739 8.995 7.38989 8.995C7.57655 8.995 7.73989 9.05917 7.87989 9.1875C8.01989 9.31583 8.08989 9.47333 8.08989 9.66C8.08989 9.84667 8.01989 10.0071 7.87989 10.1413C7.74572 10.2754 7.58239 10.3425 7.38989 10.3425C7.29655 10.3425 7.20614 10.325 7.11864 10.29C7.03697 10.255 6.96405 10.2083 6.89989 10.15C6.83572 10.0917 6.78322 10.0217 6.74239 9.94C6.70739 9.85833 6.68989 9.77083 6.68989 9.6775Z" fill="currentColor"/>
</svg>
