<svg width="16" height="16" viewBox="0 0 16 16" fill="none" xmlns="http://www.w3.org/2000/svg">
<path d="M14.5 8C14.5 11.5899 11.5899 14.5 8 14.5C4.41015 14.5 1.5 11.5899 1.5 8C1.5 4.41015 4.41015 1.5 8 1.5C11.5899 1.5 14.5 4.41015 14.5 8Z" fill="#FF5B4C"/>
<path fill-rule="evenodd" clip-rule="evenodd" d="M5.71967 9.2552C5.42678 9.5481 5.42678 10.023 5.71967 10.3159C6.01256 10.6088 6.48744 10.6088 6.78033 10.3159L8.01782 9.07837L9.25531 10.3159C9.54821 10.6088 10.0231 10.6088 10.316 10.3159C10.6089 10.023 10.6089 9.5481 10.316 9.2552L9.07848 8.01771L10.3159 6.78033C10.6088 6.48744 10.6088 6.01256 10.3159 5.71967C10.023 5.42678 9.5481 5.42678 9.2552 5.71967L8.01782 6.95705L6.78044 5.71967C6.48755 5.42678 6.01267 5.42678 5.71978 5.71967C5.42689 6.01256 5.42689 6.48744 5.71978 6.78033L6.95716 8.01771L5.71967 9.2552Z" fill="white"/>
</svg>
