<svg width="49" height="48" viewBox="0 0 49 48" fill="none" xmlns="http://www.w3.org/2000/svg">
<circle cx="24.333" cy="24" r="21.75" fill="white" stroke="#E6E6E6" stroke-width="0.5"/>
<path d="M20.1514 20.3409V19.3079C20.1514 18.9736 20.3185 18.6614 20.5967 18.4759L25.8445 14.9773C26.1928 14.7451 26.6489 14.7544 26.9874 15.0006L31.7623 18.4732C32.021 18.6614 32.1741 18.962 32.1741 19.282V25.0455" stroke="#191919" stroke-width="1.5" stroke-linecap="round" stroke-linejoin="round"/>
<path d="M24.333 21.9091H28.5148" stroke="#191919" stroke-width="1.5" stroke-linecap="round" stroke-linejoin="round"/>
<rect x="14.9238" y="22.9546" width="3.13636" height="9.40909" rx="1.04545" stroke="#191919" stroke-width="1.5"/>
<path d="M18.0605 24H21.0028C21.1311 24 21.2583 24.0236 21.3781 24.0697L26.6109 26.0823C27.4856 26.4187 28.1641 27.1287 28.4604 28.0178L28.5151 28.1818" stroke="#191919" stroke-width="1.5" stroke-linecap="round" stroke-linejoin="round"/>
<path d="M23.2878 28.1818L25.2539 28.6733C25.3368 28.694 25.422 28.7045 25.5074 28.7045H30.9346C31.3859 28.7045 31.8108 28.917 32.0816 29.278V29.278C32.6524 30.039 32.3372 31.1348 31.4493 31.4763L28.2743 32.6975C27.0702 33.1606 25.7527 33.2412 24.5011 32.9283L18.0605 31.3181" stroke="#191919" stroke-width="1.5" stroke-linecap="round" stroke-linejoin="round"/>
</svg>
