<svg width="48" height="16" viewBox="0 0 48 16" fill="none" xmlns="http://www.w3.org/2000/svg">
<path d="M11.6728 5.336H15.4248V6.216H12.6808V7.656H15.2808V8.504H12.6808V10.104H15.5688V11H11.6728V5.336ZM15.9556 7.928V7.16H16.6276V6.048H17.5716V7.16H18.5316V7.928H17.5716V9.712C17.5716 9.88267 17.601 10.024 17.6596 10.136C17.7236 10.248 17.8623 10.304 18.0756 10.304C18.1396 10.304 18.209 10.2987 18.2836 10.288C18.3583 10.272 18.425 10.2507 18.4836 10.224L18.5156 10.976C18.4303 11.008 18.329 11.032 18.2116 11.048C18.0943 11.0693 17.9823 11.08 17.8756 11.08C17.6196 11.08 17.4116 11.0453 17.2516 10.976C17.0916 10.9013 16.9636 10.8027 16.8676 10.68C16.777 10.552 16.713 10.408 16.6756 10.248C16.6436 10.0827 16.6276 9.90667 16.6276 9.72V7.928H15.9556ZM21.3624 7.048C21.6131 7.048 21.8264 7.09333 22.0024 7.184C22.1837 7.26933 22.3304 7.384 22.4424 7.528C22.5597 7.672 22.6451 7.83733 22.6984 8.024C22.7517 8.21067 22.7784 8.40267 22.7784 8.6V11H21.8184V8.888C21.8184 8.776 21.8104 8.66133 21.7944 8.544C21.7784 8.42133 21.7437 8.312 21.6904 8.216C21.6424 8.11467 21.5704 8.032 21.4744 7.968C21.3837 7.904 21.2611 7.872 21.1064 7.872C20.9517 7.872 20.8184 7.90133 20.7064 7.96C20.5944 8.01867 20.5011 8.09867 20.4264 8.2C20.3517 8.296 20.2957 8.40533 20.2584 8.528C20.2211 8.65067 20.2024 8.776 20.2024 8.904V11H19.2424V4.952H20.2024V7.696H20.2184C20.2557 7.616 20.3091 7.53867 20.3784 7.464C20.4531 7.384 20.5384 7.31467 20.6344 7.256C20.7304 7.192 20.8397 7.14133 20.9624 7.104C21.0851 7.06667 21.2184 7.048 21.3624 7.048ZM26.6023 8.696C26.6023 8.57333 26.5836 8.456 26.5463 8.344C26.5143 8.232 26.4609 8.13333 26.3863 8.048C26.3116 7.96267 26.2156 7.896 26.0983 7.848C25.9863 7.79467 25.8529 7.768 25.6983 7.768C25.4103 7.768 25.1649 7.856 24.9623 8.032C24.7649 8.20267 24.6556 8.424 24.6343 8.696H26.6023ZM27.5623 9.128C27.5623 9.17067 27.5623 9.21333 27.5623 9.256C27.5623 9.29867 27.5596 9.34133 27.5543 9.384H24.6343C24.6449 9.52267 24.6796 9.65067 24.7383 9.768C24.8023 9.88 24.8849 9.97867 24.9863 10.064C25.0876 10.144 25.2023 10.208 25.3303 10.256C25.4583 10.304 25.5916 10.328 25.7303 10.328C25.9703 10.328 26.1729 10.2853 26.3383 10.2C26.5036 10.1093 26.6396 9.98667 26.7463 9.832L27.3863 10.344C27.0076 10.856 26.4583 11.112 25.7383 11.112C25.4396 11.112 25.1649 11.0667 24.9143 10.976C24.6636 10.88 24.4449 10.7467 24.2583 10.576C24.0769 10.4053 23.9329 10.1973 23.8263 9.952C23.7249 9.70133 23.6743 9.41867 23.6743 9.104C23.6743 8.79467 23.7249 8.51467 23.8263 8.264C23.9329 8.008 24.0769 7.792 24.2583 7.616C24.4396 7.43467 24.6529 7.296 24.8983 7.2C25.1489 7.09867 25.4183 7.048 25.7063 7.048C25.9729 7.048 26.2183 7.09333 26.4423 7.184C26.6716 7.26933 26.8689 7.4 27.0343 7.576C27.1996 7.74667 27.3276 7.96267 27.4183 8.224C27.5143 8.48 27.5623 8.78133 27.5623 9.128ZM28.492 7.16H29.412V7.8H29.428C29.5347 7.576 29.684 7.39467 29.876 7.256C30.068 7.11733 30.292 7.048 30.548 7.048C30.5853 7.048 30.6253 7.05067 30.668 7.056C30.7107 7.056 30.748 7.06133 30.78 7.072V7.952C30.716 7.936 30.66 7.92533 30.612 7.92C30.5693 7.91467 30.5267 7.912 30.484 7.912C30.2653 7.912 30.0893 7.952 29.956 8.032C29.8227 8.112 29.7187 8.208 29.644 8.32C29.5693 8.432 29.5187 8.54667 29.492 8.664C29.4653 8.78133 29.452 8.87467 29.452 8.944V11H28.492V7.16ZM33.9695 8.696C33.9695 8.57333 33.9508 8.456 33.9135 8.344C33.8815 8.232 33.8281 8.13333 33.7535 8.048C33.6788 7.96267 33.5828 7.896 33.4655 7.848C33.3535 7.79467 33.2201 7.768 33.0655 7.768C32.7775 7.768 32.5321 7.856 32.3295 8.032C32.1321 8.20267 32.0228 8.424 32.0015 8.696H33.9695ZM34.9295 9.128C34.9295 9.17067 34.9295 9.21333 34.9295 9.256C34.9295 9.29867 34.9268 9.34133 34.9215 9.384H32.0015C32.0121 9.52267 32.0468 9.65067 32.1055 9.768C32.1695 9.88 32.2521 9.97867 32.3535 10.064C32.4548 10.144 32.5695 10.208 32.6975 10.256C32.8255 10.304 32.9588 10.328 33.0975 10.328C33.3375 10.328 33.5401 10.2853 33.7055 10.2C33.8708 10.1093 34.0068 9.98667 34.1135 9.832L34.7535 10.344C34.3748 10.856 33.8255 11.112 33.1055 11.112C32.8068 11.112 32.5321 11.0667 32.2815 10.976C32.0308 10.88 31.8121 10.7467 31.6255 10.576C31.4441 10.4053 31.3001 10.1973 31.1935 9.952C31.0921 9.70133 31.0415 9.41867 31.0415 9.104C31.0415 8.79467 31.0921 8.51467 31.1935 8.264C31.3001 8.008 31.4441 7.792 31.6255 7.616C31.8068 7.43467 32.0201 7.296 32.2655 7.2C32.5161 7.09867 32.7855 7.048 33.0735 7.048C33.3401 7.048 33.5855 7.09333 33.8095 7.184C34.0388 7.26933 34.2361 7.4 34.4015 7.576C34.5668 7.74667 34.6948 7.96267 34.7855 8.224C34.8815 8.48 34.9295 8.78133 34.9295 9.128ZM39.3632 11H38.4512V10.384H38.4352C38.3499 10.576 38.2005 10.7467 37.9872 10.896C37.7792 11.04 37.5312 11.112 37.2432 11.112C36.9925 11.112 36.7765 11.0693 36.5952 10.984C36.4192 10.8933 36.2725 10.776 36.1552 10.632C36.0432 10.488 35.9605 10.3227 35.9072 10.136C35.8539 9.94933 35.8272 9.75733 35.8272 9.56V7.16H36.7872V9.288C36.7872 9.4 36.7952 9.51733 36.8112 9.64C36.8272 9.76267 36.8619 9.87467 36.9152 9.976C36.9685 10.072 37.0405 10.152 37.1312 10.216C37.2272 10.28 37.3525 10.312 37.5072 10.312C37.6565 10.312 37.7872 10.2827 37.8992 10.224C38.0165 10.16 38.1099 10.08 38.1792 9.984C38.2539 9.888 38.3099 9.77867 38.3472 9.656C38.3845 9.528 38.4032 9.4 38.4032 9.272V7.16H39.3632V11ZM45.0995 7.048C45.3501 7.048 45.5635 7.09333 45.7395 7.184C45.9208 7.26933 46.0675 7.384 46.1795 7.528C46.2968 7.672 46.3821 7.83733 46.4355 8.024C46.4888 8.21067 46.5155 8.40267 46.5155 8.6V11H45.5555V8.872C45.5555 8.76 45.5475 8.64267 45.5315 8.52C45.5155 8.39733 45.4808 8.288 45.4275 8.192C45.3741 8.09067 45.2995 8.008 45.2035 7.944C45.1128 7.88 44.9901 7.848 44.8355 7.848C44.6861 7.848 44.5581 7.88 44.4515 7.944C44.3448 8.008 44.2568 8.09067 44.1875 8.192C44.1181 8.29333 44.0675 8.408 44.0355 8.536C44.0035 8.65867 43.9875 8.78133 43.9875 8.904V11H43.0275V8.68C43.0275 8.44 42.9688 8.24267 42.8515 8.088C42.7395 7.928 42.5608 7.848 42.3155 7.848C42.1715 7.848 42.0461 7.88 41.9395 7.944C41.8328 8.00267 41.7448 8.08 41.6755 8.176C41.6115 8.272 41.5608 8.384 41.5235 8.512C41.4915 8.63467 41.4755 8.76 41.4755 8.888V11H40.5155V7.16H41.4275V7.776H41.4435C41.4861 7.68 41.5421 7.58933 41.6115 7.504C41.6861 7.41867 41.7715 7.34133 41.8675 7.272C41.9688 7.20267 42.0835 7.14933 42.2115 7.112C42.3395 7.06933 42.4808 7.048 42.6355 7.048C42.9341 7.048 43.1821 7.11467 43.3795 7.248C43.5768 7.38133 43.7288 7.55733 43.8355 7.776C43.9635 7.54133 44.1341 7.36267 44.3475 7.24C44.5608 7.112 44.8115 7.048 45.0995 7.048Z" fill="#666666"/>
<g clip-path="url(#clip0_559_28056)">
<path d="M4.49408 14.0426V11.0104L0.743164 8.81689L4.49408 14.0426Z" fill="#F0CDC2" stroke="#1616B4" stroke-width="0.0671429" stroke-linejoin="round"/>
<path d="M4.50586 14.0426V11.0104L8.25675 8.81689L4.50586 14.0426Z" fill="#C9B3F5" stroke="#1616B4" stroke-width="0.0671429" stroke-linejoin="round"/>
<path d="M4.49316 10.2556V6.38574L0.699219 8.08462L4.49316 10.2556Z" fill="#88AAF1" stroke="#1616B4" stroke-width="0.0671429" stroke-linejoin="round"/>
<path d="M4.50586 10.2556V6.38574L8.29981 8.08462L4.50586 10.2556Z" fill="#C9B3F5" stroke="#1616B4" stroke-width="0.0671429" stroke-linejoin="round"/>
<path d="M0.700195 8.08493L4.49413 1.95605V6.38605L0.700195 8.08493Z" fill="#F0CDC2" stroke="#1616B4" stroke-width="0.0671429" stroke-linejoin="round"/>
<path d="M8.29979 8.08493L4.50586 1.95605V6.38605L8.29979 8.08493Z" fill="#B8FAF6" stroke="#1616B4" stroke-width="0.0671429" stroke-linejoin="round"/>
</g>
<defs>
<clipPath id="clip0_559_28056">
<rect width="7.72143" height="12.22" fill="white" transform="translate(0.632812 1.88965)"/>
</clipPath>
</defs>
</svg>
