<svg width="41" height="16" viewBox="0 0 41 16" fill="none" xmlns="http://www.w3.org/2000/svg">
<path d="M14.4645 13.8863C14.6316 13.8863 14.7361 13.7054 14.6526 13.5606L7.90587 1.86894C7.82236 1.72422 7.61353 1.7241 7.52985 1.86872L5.42455 5.50721C5.34079 5.65197 5.44525 5.8331 5.6125 5.8331H7.14081C7.21837 5.8331 7.29005 5.79173 7.32884 5.72457L7.52994 5.37639C7.61355 5.23164 7.82249 5.23168 7.90604 5.37645L11.6174 11.807C11.7009 11.9518 11.5965 12.1327 11.4293 12.1327H7.71805H1.72599C1.64839 12.1327 1.57668 12.1741 1.5379 12.2413L0.776744 13.5607C0.693228 13.7054 0.797704 13.8863 0.96483 13.8863H14.4645Z" fill="url(#paint0_linear_559_28041)"/>
<path d="M14.4645 13.8863C14.6316 13.8863 14.7361 13.7054 14.6526 13.5606L7.90587 1.86894C7.82236 1.72422 7.61353 1.7241 7.52985 1.86872L5.42455 5.50721C5.34079 5.65197 5.44525 5.8331 5.6125 5.8331H7.14081C7.21837 5.8331 7.29005 5.79173 7.32884 5.72457L7.52994 5.37639C7.61355 5.23164 7.82249 5.23168 7.90604 5.37645L11.6174 11.807C11.7009 11.9518 11.5965 12.1327 11.4293 12.1327H7.71805H1.72599C1.64839 12.1327 1.57668 12.1741 1.5379 12.2413L0.776744 13.5607C0.693228 13.7054 0.797704 13.8863 0.96483 13.8863H14.4645Z" fill="url(#paint1_linear_559_28041)"/>
<path d="M14.4645 13.8863C14.6316 13.8863 14.7361 13.7054 14.6526 13.5606L7.90587 1.86894C7.82236 1.72422 7.61353 1.7241 7.52985 1.86872L5.42455 5.50721C5.34079 5.65197 5.44525 5.8331 5.6125 5.8331H7.14081C7.21837 5.8331 7.29005 5.79173 7.32884 5.72457L7.52994 5.37639C7.61355 5.23164 7.82249 5.23168 7.90604 5.37645L11.6174 11.807C11.7009 11.9518 11.5965 12.1327 11.4293 12.1327H7.71805H1.72599C1.64839 12.1327 1.57668 12.1741 1.5379 12.2413L0.776744 13.5607C0.693228 13.7054 0.797704 13.8863 0.96483 13.8863H14.4645Z" fill="#6DF299"/>
<path d="M5.38305 9.74483C5.21586 9.74483 5.11139 9.56381 5.19503 9.41905L5.82093 8.33577C5.85973 8.26862 5.93139 8.22726 6.00894 8.22726H6.84396C6.92111 8.22726 6.99247 8.18632 7.03141 8.11972L7.80283 6.80038C7.88747 6.65562 7.78307 6.47363 7.61538 6.47363H5.30699H4.9973C4.91971 6.47363 4.84802 6.51503 4.80923 6.58223L2.15966 11.1728C2.07611 11.3175 2.18058 11.4985 2.34773 11.4985H3.9951H7.71819H9.18723C9.30715 11.4985 9.40437 11.4012 9.40437 11.2813V9.96197C9.40437 9.84204 9.30715 9.74483 9.18723 9.74483H5.38305Z" fill="#666666"/>
<path d="M21.712 6.664C21.5627 6.46133 21.368 6.31467 21.128 6.224C20.888 6.128 20.6533 6.08 20.424 6.08C20.1307 6.08 19.864 6.13333 19.624 6.24C19.384 6.34667 19.176 6.49333 19 6.68C18.8293 6.86667 18.696 7.08533 18.6 7.336C18.5093 7.58667 18.464 7.85867 18.464 8.152C18.464 8.46133 18.5093 8.744 18.6 9C18.6907 9.256 18.8187 9.47733 18.984 9.664C19.1547 9.84533 19.3573 9.98667 19.592 10.088C19.8267 10.1893 20.0907 10.24 20.384 10.24C20.688 10.24 20.9573 10.1813 21.192 10.064C21.4267 9.94133 21.616 9.78133 21.76 9.584L22.568 10.152C22.3173 10.4667 22.0107 10.712 21.648 10.888C21.2853 11.0587 20.8613 11.144 20.376 11.144C19.9333 11.144 19.5253 11.072 19.152 10.928C18.784 10.7787 18.4667 10.5733 18.2 10.312C17.9333 10.0453 17.7253 9.73067 17.576 9.368C17.4267 9 17.352 8.59467 17.352 8.152C17.352 7.69867 17.4293 7.29067 17.584 6.928C17.744 6.56 17.96 6.248 18.232 5.992C18.5093 5.736 18.8347 5.53867 19.208 5.4C19.5813 5.26133 19.9867 5.192 20.424 5.192C20.6053 5.192 20.7947 5.21067 20.992 5.248C21.1893 5.28 21.3787 5.33333 21.56 5.408C21.7413 5.47733 21.912 5.56533 22.072 5.672C22.232 5.77867 22.368 5.90667 22.48 6.056L21.712 6.664ZM25.3897 10.512H25.3657C25.2697 10.6827 25.115 10.824 24.9017 10.936C24.6884 11.0427 24.4457 11.096 24.1737 11.096C24.019 11.096 23.8564 11.0747 23.6857 11.032C23.5204 10.9947 23.3657 10.9307 23.2217 10.84C23.083 10.744 22.9657 10.6213 22.8697 10.472C22.779 10.3173 22.7337 10.128 22.7337 9.904C22.7337 9.616 22.8137 9.38667 22.9737 9.216C23.139 9.04533 23.3497 8.91467 23.6057 8.824C23.8617 8.73333 24.1444 8.67467 24.4537 8.648C24.7684 8.616 25.075 8.6 25.3737 8.6V8.504C25.3737 8.264 25.2857 8.088 25.1097 7.976C24.939 7.85867 24.7337 7.8 24.4937 7.8C24.291 7.8 24.0964 7.84267 23.9097 7.928C23.723 8.01333 23.5684 8.11733 23.4457 8.24L22.9497 7.656C23.1684 7.45333 23.419 7.30133 23.7017 7.2C23.9897 7.09867 24.2804 7.048 24.5737 7.048C24.915 7.048 25.195 7.096 25.4137 7.192C25.6377 7.288 25.8137 7.41333 25.9417 7.568C26.0697 7.72267 26.1577 7.896 26.2057 8.088C26.259 8.28 26.2857 8.472 26.2857 8.664V11H25.3897V10.512ZM25.3737 9.248H25.1577C25.003 9.248 24.8404 9.256 24.6697 9.272C24.499 9.28267 24.3417 9.312 24.1977 9.36C24.0537 9.40267 23.9337 9.46667 23.8377 9.552C23.7417 9.632 23.6937 9.744 23.6937 9.888C23.6937 9.97867 23.7124 10.056 23.7497 10.12C23.7924 10.1787 23.8457 10.2267 23.9097 10.264C23.9737 10.3013 24.0457 10.328 24.1257 10.344C24.2057 10.36 24.2857 10.368 24.3657 10.368C24.6964 10.368 24.947 10.28 25.1177 10.104C25.2884 9.928 25.3737 9.688 25.3737 9.384V9.248ZM28.3241 7.16V7.696H28.3481C28.3961 7.62133 28.4575 7.54667 28.5321 7.472C28.6121 7.392 28.7081 7.32267 28.8201 7.264C28.9321 7.2 29.0575 7.14933 29.1961 7.112C29.3401 7.06933 29.5001 7.048 29.6761 7.048C29.9481 7.048 30.1988 7.10133 30.4281 7.208C30.6575 7.30933 30.8548 7.45067 31.0201 7.632C31.1855 7.81333 31.3135 8.02667 31.4041 8.272C31.4948 8.51733 31.5401 8.78133 31.5401 9.064C31.5401 9.34667 31.4948 9.61333 31.4041 9.864C31.3188 10.1093 31.1935 10.3253 31.0281 10.512C30.8681 10.6933 30.6708 10.84 30.4361 10.952C30.2068 11.0587 29.9455 11.112 29.6521 11.112C29.3801 11.112 29.1295 11.056 28.9001 10.944C28.6761 10.832 28.5028 10.68 28.3801 10.488H28.3641V12.92H27.4041V7.16H28.3241ZM30.5641 9.064C30.5641 8.91467 30.5401 8.768 30.4921 8.624C30.4495 8.47467 30.3828 8.34133 30.2921 8.224C30.2015 8.10667 30.0868 8.01333 29.9481 7.944C29.8095 7.86933 29.6468 7.832 29.4601 7.832C29.2841 7.832 29.1268 7.86933 28.9881 7.944C28.8495 8.01867 28.7295 8.11467 28.6281 8.232C28.5321 8.34933 28.4575 8.48267 28.4041 8.632C28.3561 8.78133 28.3321 8.93067 28.3321 9.08C28.3321 9.22933 28.3561 9.37867 28.4041 9.528C28.4575 9.672 28.5321 9.80267 28.6281 9.92C28.7295 10.0373 28.8495 10.1333 28.9881 10.208C29.1268 10.2773 29.2841 10.312 29.4601 10.312C29.6468 10.312 29.8095 10.2747 29.9481 10.2C30.0868 10.1253 30.2015 10.0293 30.2921 9.912C30.3828 9.79467 30.4495 9.66133 30.4921 9.512C30.5401 9.36267 30.5641 9.21333 30.5641 9.064ZM35.1706 8.696C35.1706 8.57333 35.152 8.456 35.1146 8.344C35.0826 8.232 35.0293 8.13333 34.9546 8.048C34.88 7.96267 34.784 7.896 34.6666 7.848C34.5546 7.79467 34.4213 7.768 34.2666 7.768C33.9786 7.768 33.7333 7.856 33.5306 8.032C33.3333 8.20267 33.224 8.424 33.2026 8.696H35.1706ZM36.1306 9.128C36.1306 9.17067 36.1306 9.21333 36.1306 9.256C36.1306 9.29867 36.128 9.34133 36.1226 9.384H33.2026C33.2133 9.52267 33.248 9.65067 33.3066 9.768C33.3706 9.88 33.4533 9.97867 33.5546 10.064C33.656 10.144 33.7706 10.208 33.8986 10.256C34.0266 10.304 34.16 10.328 34.2986 10.328C34.5386 10.328 34.7413 10.2853 34.9066 10.2C35.072 10.1093 35.208 9.98667 35.3146 9.832L35.9546 10.344C35.576 10.856 35.0266 11.112 34.3066 11.112C34.008 11.112 33.7333 11.0667 33.4826 10.976C33.232 10.88 33.0133 10.7467 32.8266 10.576C32.6453 10.4053 32.5013 10.1973 32.3946 9.952C32.2933 9.70133 32.2426 9.41867 32.2426 9.104C32.2426 8.79467 32.2933 8.51467 32.3946 8.264C32.5013 8.008 32.6453 7.792 32.8266 7.616C33.008 7.43467 33.2213 7.296 33.4666 7.2C33.7173 7.09867 33.9866 7.048 34.2746 7.048C34.5413 7.048 34.7866 7.09333 35.0106 7.184C35.24 7.26933 35.4373 7.4 35.6026 7.576C35.768 7.74667 35.896 7.96267 35.9866 8.224C36.0826 8.48 36.1306 8.78133 36.1306 9.128ZM37.0764 4.952H38.0364V11H37.0764V4.952ZM39.217 4.952H40.177V11H39.217V4.952Z" fill="#666666"/>
<defs>
<linearGradient id="paint0_linear_559_28041" x1="3.69913" y1="-1.71358" x2="14.0087" y2="13.7052" gradientUnits="userSpaceOnUse">
<stop stop-color="#293EFB"/>
<stop offset="1" stop-color="#40E2FF"/>
</linearGradient>
<linearGradient id="paint1_linear_559_28041" x1="0.588867" y1="13.8863" x2="12.2198" y2="11.8438" gradientUnits="userSpaceOnUse">
<stop stop-color="#C8FEFF"/>
<stop offset="0.32" stop-color="#77FAFF"/>
<stop offset="1" stop-color="#71FAB2"/>
</linearGradient>
</defs>
</svg>
