<svg width="24" height="24" viewBox="0 0 24 24" fill="none" xmlns="http://www.w3.org/2000/svg">
<circle cx="12" cy="12" r="10" fill="#F5F5F5"/>
<path fill-rule="evenodd" clip-rule="evenodd" d="M8.36811 14.6424C8.07521 14.9353 8.07521 15.4102 8.36811 15.7031C8.661 15.996 9.13588 15.996 9.42877 15.7031L12.036 13.0959L14.6431 15.7031C14.936 15.996 15.4109 15.996 15.7038 15.7031C15.9967 15.4102 15.9967 14.9353 15.7038 14.6424L13.0966 12.0353L15.7036 9.42828C15.9965 9.13538 15.9965 8.66051 15.7036 8.36762C15.4107 8.07473 14.9358 8.07473 14.6429 8.36762L12.036 10.9746L9.42897 8.36762C9.13607 8.07473 8.6612 8.07473 8.3683 8.36762C8.07541 8.66051 8.07541 9.13539 8.3683 9.42828L10.9753 12.0353L8.36811 14.6424Z" fill="#BFBFBF"/>
</svg>
