<svg width="20" height="20" viewBox="0 0 20 20" fill="none" xmlns="http://www.w3.org/2000/svg">
<path d="M8.86667 9.99993L1.5 9.99993M1.5 9.99993L3.76667 12.2666M1.5 9.99993L3.76667 7.73327" stroke="currentColor" stroke-linecap="round" stroke-linejoin="round"/>
<path d="M5.4668 6.59993V6.03327C5.4668 4.78142 6.48162 3.7666 7.73346 3.7666L15.1001 3.7666C16.352 3.7666 17.3668 4.78142 17.3668 6.03327V8.29993M5.4668 13.3999V13.9666C5.4668 15.2184 6.48162 16.2333 7.73347 16.2333H15.1001C16.352 16.2333 17.3668 15.2184 17.3668 13.9666V11.6999" stroke="currentColor" stroke-linecap="round"/>
<path d="M13.4004 9.9998C13.4004 9.06092 14.1615 8.2998 15.1004 8.2998H18.4161C18.4626 8.2998 18.5004 8.33755 18.5004 8.3841V11.6155C18.5004 11.6621 18.4626 11.6998 18.4161 11.6998H15.1004C14.1615 11.6998 13.4004 10.9387 13.4004 9.9998V9.9998Z" stroke="currentColor"/>
</svg>
