<svg width="20" height="20" viewBox="0 0 20 20" fill="none" xmlns="http://www.w3.org/2000/svg">
<path d="M1.49993 10.0005L8.89648 10.0005M8.89648 10.0005L6.62062 7.72461M8.89648 10.0005L6.62062 12.2763" stroke="currentColor" stroke-linecap="round" stroke-linejoin="round"/>
<path d="M4.34473 6.58604V6.01707C4.34473 4.76015 5.36366 3.74121 6.62059 3.74121H14.5861C15.843 3.74121 16.862 4.76015 16.862 6.01707V8.29293M4.34473 13.4136V13.9826C4.34473 15.2395 5.36366 16.2585 6.62059 16.2585H14.5861C15.843 16.2585 16.862 15.2395 16.862 13.9826V11.7067" stroke="currentColor" stroke-linecap="round"/>
<path d="M12.8789 9.99987C12.8789 9.05717 13.6431 8.29297 14.5858 8.29297H17.915C17.9617 8.29297 17.9996 8.33086 17.9996 8.37761V11.6221C17.9996 11.6689 17.9617 11.7068 17.915 11.7068H14.5858C13.6431 11.7068 12.8789 10.9426 12.8789 9.99987V9.99987Z" stroke="currentColor"/>
</svg>
