<svg width="32" height="32" viewBox="0 0 32 32" fill="none" xmlns="http://www.w3.org/2000/svg">
<g clip-path="url(#clip0_2805_2228)">
<path d="M28.8506 27.253C29.1594 27.253 29.3525 26.9187 29.1981 26.6512L16.7307 5.0458C16.5764 4.77837 16.1905 4.77815 16.0359 5.04539L12.1455 11.7691C11.9907 12.0366 12.1837 12.3713 12.4928 12.3713H15.317C15.4603 12.3713 15.5927 12.2948 15.6644 12.1707L16.0361 11.5273C16.1906 11.2598 16.5767 11.2599 16.7311 11.5274L23.5893 23.4106C23.7437 23.6781 23.5507 24.0124 23.2418 24.0124H16.3837H5.31079C5.16739 24.0124 5.03488 24.089 4.96322 24.2132L3.55665 26.6512C3.40232 26.9187 3.59539 27.253 3.90422 27.253H28.8506Z" fill="#293EFB"/>
<path d="M12.0686 19.6006C11.7597 19.6006 11.5666 19.2661 11.7212 18.9986L12.8778 16.9968C12.9495 16.8727 13.0819 16.7962 13.2252 16.7962H14.7683C14.9108 16.7962 15.0427 16.7206 15.1146 16.5975L16.5402 14.1595C16.6966 13.892 16.5037 13.5557 16.1938 13.5557H11.9281H11.3558C11.2124 13.5557 11.0799 13.6322 11.0082 13.7563L6.11202 22.2393C5.95762 22.5068 6.15068 22.8412 6.45955 22.8412H9.50377H16.3838H19.0984C19.3201 22.8412 19.4997 22.6615 19.4997 22.4399V20.0018C19.4997 19.7802 19.3201 19.6006 19.0984 19.6006H12.0686Z" fill="#293EFB"/>
</g>
<defs>
<clipPath id="clip0_2805_2228">
<rect width="27.1532" height="22.8087" fill="white" transform="translate(2.6665 4.44434)"/>
</clipPath>
</defs>
</svg>
