<svg width="60" height="60" viewBox="0 0 60 60" fill="none" xmlns="http://www.w3.org/2000/svg">
<g clip-path="url(#clip0_820_476)">
<g filter="url(#filter0_i_820_476)">
<circle cx="29.998" cy="30" r="30" fill="black" fill-opacity="0.01"/>
</g>
<circle cx="7.68955" cy="7.68955" r="7.68955" transform="matrix(0.7071 0.707113 -0.7071 0.707113 37.5281 16.5006)" fill="url(#paint0_linear_820_476)" stroke="white" stroke-width="1.2"/>
<path d="M31.2178 32.9316L21.5134 42.6362" stroke="white" stroke-width="1.2" stroke-linecap="round" stroke-linejoin="round"/>
<path d="M28.7917 36.5717L31.5104 39.2903" stroke="white" stroke-width="1.2" stroke-linecap="round" stroke-linejoin="round"/>
<path d="M24.7217 39.7732L28.7996 43.8512" stroke="white" stroke-width="1.2" stroke-linecap="round" stroke-linejoin="round"/>
<path d="M19.9536 20.2106C19.8665 19.9751 19.6419 19.8188 19.3909 19.8188C19.1398 19.8188 18.9153 19.9751 18.8282 20.2106L18.6356 20.7309C18.147 22.0515 17.1058 23.0927 15.7852 23.5814L15.2649 23.7739C15.0295 23.861 14.8731 24.0856 14.8731 24.3366C14.8731 24.5877 15.0295 24.8122 15.2649 24.8993L15.7852 25.0919C17.1058 25.5805 18.147 26.6217 18.6356 27.9423L18.8282 28.4626C18.9153 28.6981 19.1398 28.8544 19.3909 28.8544C19.6419 28.8544 19.8665 28.6981 19.9536 28.4626L20.1461 27.9423C20.6348 26.6217 21.676 25.5805 22.9965 25.0919L23.5168 24.8993C23.7523 24.8122 23.9086 24.5877 23.9086 24.3366C23.9086 24.0856 23.7523 23.861 23.5168 23.7739L22.9965 23.5814C21.676 23.0927 20.6348 22.0515 20.1461 20.7309L19.9536 20.2106Z" fill="url(#paint1_linear_820_476)" stroke="white" stroke-width="1.2" stroke-linejoin="round"/>
</g>
<defs>
<filter id="filter0_i_820_476" x="-0.00195312" y="0" width="60" height="60" filterUnits="userSpaceOnUse" color-interpolation-filters="sRGB">
<feFlood flood-opacity="0" result="BackgroundImageFix"/>
<feBlend mode="normal" in="SourceGraphic" in2="BackgroundImageFix" result="shape"/>
<feColorMatrix in="SourceAlpha" type="matrix" values="0 0 0 0 0 0 0 0 0 0 0 0 0 0 0 0 0 0 127 0" result="hardAlpha"/>
<feOffset/>
<feGaussianBlur stdDeviation="5.35714"/>
<feComposite in2="hardAlpha" operator="arithmetic" k2="-1" k3="1"/>
<feColorMatrix type="matrix" values="0 0 0 0 1 0 0 0 0 1 0 0 0 0 1 0 0 0 0.3 0"/>
<feBlend mode="normal" in2="shape" result="effect1_innerShadow_820_476"/>
</filter>
<linearGradient id="paint0_linear_820_476" x1="1.7206" y1="2.43481" x2="12.8017" y2="13.5159" gradientUnits="userSpaceOnUse">
<stop stop-color="white" stop-opacity="0.5"/>
<stop offset="0.698631" stop-color="white" stop-opacity="0.14"/>
</linearGradient>
<linearGradient id="paint1_linear_820_476" x1="19.3909" y1="19.6353" x2="19.3909" y2="29.4298" gradientUnits="userSpaceOnUse">
<stop offset="0.119045" stop-color="white" stop-opacity="0.5"/>
<stop offset="0.602726" stop-color="white" stop-opacity="0.12"/>
</linearGradient>
<clipPath id="clip0_820_476">
<rect width="60" height="60" fill="white"/>
</clipPath>
</defs>
</svg>
